<?xml version="1.0" encoding="utf-8"?>
<!-- Generator: Adobe Illustrator 23.0.6, SVG Export Plug-In . SVG Version: 6.00 Build 0)  -->
<svg version="1.1" id="Layer_1" xmlns="http://www.w3.org/2000/svg" xmlns:xlink="http://www.w3.org/1999/xlink" x="0px" y="0px"
	 viewBox="0 0 359 359" style="enable-background:new 0 0 359 359;" xml:space="preserve">
<style type="text/css">
	.st0{fill:#E6E6E6;}
	.st1{opacity:0.92;fill:#FFD018;}
	.st2{opacity:0.95;fill:#FFD018;}
	.st3{clip-path:url(#SVGID_4_);fill:none;stroke:#FFD018;stroke-miterlimit:10;stroke-dasharray:17.6543;}
	.st4{fill:none;stroke:#FFFFFF;stroke-width:2;stroke-miterlimit:10;}
	.st5{fill:#FFFFFF;}
	.st6{fill:none;stroke:#000000;stroke-width:2;stroke-miterlimit:10;}
	.st7{clip-path:url(#SVGID_8_);fill:none;stroke:#FFD018;stroke-miterlimit:10;stroke-dasharray:17.6543;}
	.st8{fill:#666666;}
	.st9{clip-path:url(#SVGID_14_);fill:none;stroke:#FFD018;stroke-miterlimit:10;stroke-dasharray:17.6543;}
	.st10{fill:#FFD018;}
	.st11{fill:none;stroke:#666666;stroke-width:3;stroke-miterlimit:10;}
	.st12{fill:none;stroke:#FFD018;stroke-width:3;stroke-miterlimit:10;}
	.st13{fill:#4C90F5;}
	.st14{clip-path:url(#SVGID_18_);fill:none;stroke:#FFD018;stroke-miterlimit:10;stroke-dasharray:17.6543;}
	.st15{fill:#D6A509;}
	.st16{fill:#DDBA9E;}
	.st17{fill:#EFD4B7;}
	.st18{fill:#F8F1E6;}
	.st19{fill:#494241;}
	.st20{fill:#55382F;}
	.st21{fill:#E2415D;}
	.st22{fill:#F4959C;}
	.st23{fill:#D2AE94;}
	.st24{fill:#7E3F20;}
	.st25{fill:#383838;}
	.st26{fill:#E4BA97;}
	.st27{fill:#444444;}
	.st28{fill-rule:evenodd;clip-rule:evenodd;fill:#3C444F;}
	.st29{fill-rule:evenodd;clip-rule:evenodd;fill:#FFFFFF;}
	.st30{fill:#CF4F44;}
	.st31{fill:#18333A;}
	.st32{fill:#FEEE99;}
	.st33{fill:#043843;}
	.st34{fill:#F2B74F;}
	.st35{fill:#FECE68;}
	.st36{fill:none;stroke:#666666;stroke-width:1.1512;stroke-miterlimit:10;}
	.st37{fill:none;stroke:#000000;stroke-width:1.0679;stroke-miterlimit:10;}
	.st38{fill:none;stroke:#000000;stroke-width:1.0679;stroke-miterlimit:10;stroke-dasharray:18.6438,18.6438;}
	.st39{fill:none;stroke:#000000;stroke-width:1.0679;stroke-miterlimit:10;stroke-dasharray:19.1692,19.1692;}
	.st40{fill:#FFFFFF;stroke:#9E9E9E;stroke-width:1.0622;stroke-miterlimit:10;}
	.st41{fill:none;stroke:#FFD018;stroke-width:1.9735;stroke-miterlimit:10;}
	.st42{fill-rule:evenodd;clip-rule:evenodd;fill:#FFFFFF;stroke:#FFD018;stroke-width:1.9735;stroke-miterlimit:10;}
	.st43{fill-rule:evenodd;clip-rule:evenodd;fill:#FFD018;}
	.st44{clip-path:url(#SVGID_24_);fill:none;stroke:#FFD018;stroke-miterlimit:10;stroke-dasharray:17.6543;}
	.st45{clip-path:url(#SVGID_28_);fill:none;stroke:#FFD018;stroke-miterlimit:10;stroke-dasharray:17.6543;}
	.st46{clip-path:url(#SVGID_34_);fill:none;stroke:#FFD018;stroke-miterlimit:10;stroke-dasharray:17.6543;}
	.st47{clip-path:url(#SVGID_38_);fill:none;stroke:#FFD018;stroke-miterlimit:10;stroke-dasharray:17.6543;}
	.st48{fill:none;stroke:#FFD018;stroke-width:1.086;stroke-miterlimit:10;}
</style>
<circle class="st10" cx="179.5" cy="179.5" r="179.5"/>
<g id="surface1_3_">
	<path d="M189.07,159.19c0,1.62,1.31,2.93,2.93,2.93h4.88v34.77h-34.77v-34.77h17.38c1.62,0,2.93-1.31,2.93-2.93
		s-1.31-2.93-2.93-2.93h-18.75c-2.48,0-4.49,2.02-4.49,4.49v37.5c0,2.48,2.02,4.49,4.49,4.49h37.5c2.48,0,4.49-2.02,4.49-4.49v-37.5
		c0-2.48-2.02-4.49-4.49-4.49H192C190.38,156.26,189.07,157.57,189.07,159.19z"/>
	<path d="M95.71,91.22c-2.48,0-4.49,2.02-4.49,4.49v20.31c0,2.48,2.02,4.49,4.49,4.49h20.31c2.48,0,4.49-2.02,4.49-4.49V95.71
		c0-2.48-2.02-4.49-4.49-4.49H95.71z M114.66,114.66H97.08V97.08h17.58V114.66z"/>
	<path d="M116.02,238.48H95.71c-2.48,0-4.49,2.02-4.49,4.49v20.31c0,2.48,2.02,4.49,4.49,4.49h20.31c2.48,0,4.49-2.02,4.49-4.49
		v-20.31C120.52,240.5,118.5,238.48,116.02,238.48z M114.66,261.92H97.08v-17.58h17.58V261.92z"/>
	<path d="M234.38,132.23h37.5c4.2,0,7.62-3.42,7.62-7.62v-37.5c0-4.2-3.42-7.62-7.62-7.62h-37.5c-4.2,0-7.62,3.42-7.62,7.62v15.82
		h-35.16c-1.62,0-2.93,1.31-2.93,2.93v38.67h-16.02V133.1c3.41-1.21,5.86-4.47,5.86-8.29c0-4.85-3.94-8.79-8.79-8.79
		s-8.79,3.94-8.79,8.79c0,3.82,2.45,7.08,5.86,8.29v11.44h-13.09c-5.06,0-9.18,4.12-9.18,9.18v17H108.8v-38.48h15.82
		c4.2,0,7.62-3.42,7.62-7.62V117c0-1.62-1.31-2.93-2.93-2.93s-2.93,1.31-2.93,2.93v7.62c0,0.97-0.79,1.76-1.76,1.76h-37.5
		c-0.97,0-1.76-0.79-1.76-1.76v-37.5c0-0.97,0.79-1.76,1.76-1.76h37.5c0.97,0,1.76,0.79,1.76,1.76v17.38c0,1.62,1.31,2.93,2.93,2.93
		s2.93-1.31,2.93-2.93V87.12c0-4.2-3.42-7.62-7.62-7.62h-37.5c-4.2,0-7.62,3.42-7.62,7.62v37.5c0,4.2,3.42,7.62,7.62,7.62h15.82
		v41.41c0,1.62,1.31,2.93,2.93,2.93h38.67v12.5h-4.02c-1.21-3.41-4.47-5.86-8.29-5.86c-4.85,0-8.79,3.94-8.79,8.79
		s3.94,8.79,8.79,8.79c3.82,0,7.08-2.45,8.29-5.86h4.02v10.35c0,5.06,4.12,9.18,9.18,9.18h13.09v34.8h-34.57v-14.88
		c0-4.2-3.42-7.62-7.62-7.62h-37.5c-4.2,0-7.62,3.42-7.62,7.62v37.5c0,4.2,3.42,7.62,7.62,7.62h37.5c4.2,0,7.62-3.42,7.62-7.62
		v-16.76h37.5c1.62,0,2.93-1.31,2.93-2.93v-37.73h16.02v13c-3.41,1.21-5.86,4.47-5.86,8.29c0,4.85,3.94,8.79,8.79,8.79
		s8.79-3.94,8.79-8.79c0-3.82-2.45-7.08-5.86-8.29v-13h10.75c5.06,0,9.18-4.12,9.18-9.18v-19.94h35.75v41.43h-15.82
		c-4.2,0-7.62,3.42-7.62,7.62V242c0,1.62,1.31,2.93,2.93,2.93s2.93-1.31,2.93-2.93v-7.62c0-0.97,0.79-1.76,1.76-1.76h37.5
		c0.97,0,1.76,0.79,1.76,1.76v37.5c0,0.97-0.79,1.76-1.76,1.76h-37.5c-0.97,0-1.76-0.79-1.76-1.76v-17.43
		c0-1.62-1.31-2.93-2.93-2.93s-2.93,1.31-2.93,2.93v17.43c0,4.2,3.42,7.62,7.62,7.62h37.5c4.2,0,7.62-3.42,7.62-7.62v-37.5
		c0-4.2-3.42-7.62-7.62-7.62h-15.82v-44.36c0-1.62-1.31-2.93-2.93-2.93h-38.68v-9.94h13.96c1.21,3.41,4.47,5.86,8.29,5.86
		c4.85,0,8.79-3.94,8.79-8.79s-3.94-8.79-8.79-8.79c-3.82,0-7.08,2.45-8.29,5.86h-13.96v-9.96c0-5.06-4.12-9.18-9.18-9.18h-10.75
		V108.8h32.23v15.82C226.77,128.82,230.18,132.23,234.38,132.23z M169.73,121.88c1.62,0,2.93,1.31,2.93,2.93s-1.31,2.93-2.93,2.93
		s-2.93-1.31-2.93-2.93S168.12,121.88,169.73,121.88z M132.23,194.93c-1.62,0-2.93-1.31-2.93-2.93s1.31-2.93,2.93-2.93
		s2.93,1.31,2.93,2.93S133.85,194.93,132.23,194.93z M126.38,271.88c0,0.97-0.79,1.76-1.76,1.76h-37.5c-0.97,0-1.76-0.79-1.76-1.76
		v-37.5c0-0.97,0.79-1.76,1.76-1.76h37.5c0.97,0,1.76,0.79,1.76,1.76V271.88z M191.61,238.68c-1.62,0-2.93-1.31-2.93-2.93
		s1.31-2.93,2.93-2.93s2.93,1.31,2.93,2.93S193.23,238.68,191.61,238.68z M236.71,163.68c1.62,0,2.93,1.31,2.93,2.93
		s-1.31,2.93-2.93,2.93s-2.93-1.31-2.93-2.93S235.09,163.68,236.71,163.68z M208.6,153.72v51.57c0,1.83-1.49,3.32-3.32,3.32h-51.57
		c-1.83,0-3.32-1.49-3.32-3.32v-51.57c0-1.83,1.49-3.32,3.32-3.32h51.57C207.11,150.4,208.6,151.89,208.6,153.72z M234.38,85.36
		h37.5c0.97,0,1.76,0.79,1.76,1.76v37.5c0,0.97-0.79,1.76-1.76,1.76h-37.5c-0.97,0-1.76-0.79-1.76-1.76v-18.67c0-0.03,0-0.05,0-0.08
		s0-0.05,0-0.08V87.12C232.63,86.15,233.41,85.36,234.38,85.36z"/>
	<path d="M242.98,120.52h20.31c2.48,0,4.49-2.02,4.49-4.49V95.71c0-2.48-2.02-4.49-4.49-4.49h-20.31c-2.48,0-4.49,2.02-4.49,4.49
		v20.31C238.48,118.5,240.5,120.52,242.98,120.52z M244.34,97.08h17.58v17.58h-17.58V97.08z"/>
	<path d="M263.29,267.78c2.48,0,4.49-2.02,4.49-4.49v-20.31c0-2.48-2.02-4.49-4.49-4.49h-20.31c-2.48,0-4.49,2.02-4.49,4.49v20.31
		c0,2.48,2.02,4.49,4.49,4.49H263.29z M244.34,244.34h17.58v17.58h-17.58V244.34z"/>
</g>
</svg>
