<?xml version="1.0" encoding="utf-8"?>
<!-- Generator: Adobe Illustrator 23.0.6, SVG Export Plug-In . SVG Version: 6.00 Build 0)  -->
<svg version="1.1" id="Layer_1" xmlns="http://www.w3.org/2000/svg" xmlns:xlink="http://www.w3.org/1999/xlink" x="0px" y="0px"
	 viewBox="0 0 1646 802" style="enable-background:new 0 0 1646 802;" xml:space="preserve">
<style type="text/css">
	.st0{fill:#E6E6E6;}
	.st1{opacity:0.92;fill:#FFD018;}
	.st2{opacity:0.95;fill:#FFD018;}
	.st3{clip-path:url(#SVGID_4_);fill:none;stroke:#FFD018;stroke-miterlimit:10;stroke-dasharray:17.6543;}
	.st4{fill:none;stroke:#FFFFFF;stroke-width:2;stroke-miterlimit:10;}
	.st5{fill:#FFFFFF;}
	.st6{fill:none;stroke:#000000;stroke-width:2;stroke-miterlimit:10;}
	.st7{clip-path:url(#SVGID_8_);fill:none;stroke:#FFD018;stroke-miterlimit:10;stroke-dasharray:17.6543;}
	.st8{fill:#666666;}
	.st9{clip-path:url(#SVGID_14_);fill:none;stroke:#FFD018;stroke-miterlimit:10;stroke-dasharray:17.6543;}
	.st10{fill:#FFD018;}
	.st11{fill:none;stroke:#666666;stroke-width:3;stroke-miterlimit:10;}
	.st12{fill:none;stroke:#FFD018;stroke-width:3;stroke-miterlimit:10;}
	.st13{fill:#4C90F5;}
	.st14{clip-path:url(#SVGID_18_);fill:none;stroke:#FFD018;stroke-miterlimit:10;stroke-dasharray:17.6543;}
	.st15{fill:#D6A509;}
	.st16{fill:#DDBA9E;}
	.st17{fill:#EFD4B7;}
	.st18{fill:#F8F1E6;}
	.st19{fill:#494241;}
	.st20{fill:#55382F;}
	.st21{fill:#E2415D;}
	.st22{fill:#F4959C;}
	.st23{fill:#D2AE94;}
	.st24{fill:#7E3F20;}
	.st25{fill:#383838;}
	.st26{fill:#E4BA97;}
	.st27{fill:#444444;}
	.st28{fill-rule:evenodd;clip-rule:evenodd;fill:#3C444F;}
	.st29{fill-rule:evenodd;clip-rule:evenodd;fill:#FFFFFF;}
	.st30{fill:#CF4F44;}
	.st31{fill:#18333A;}
	.st32{fill:#FEEE99;}
	.st33{fill:#043843;}
	.st34{fill:#F2B74F;}
	.st35{fill:#FECE68;}
	.st36{fill:none;stroke:#666666;stroke-width:1.1512;stroke-miterlimit:10;}
	.st37{fill:none;stroke:#000000;stroke-width:1.0679;stroke-miterlimit:10;}
	.st38{fill:none;stroke:#000000;stroke-width:1.0679;stroke-miterlimit:10;stroke-dasharray:18.6438,18.6438;}
	.st39{fill:none;stroke:#000000;stroke-width:1.0679;stroke-miterlimit:10;stroke-dasharray:19.1692,19.1692;}
	.st40{fill:#FFFFFF;stroke:#9E9E9E;stroke-width:1.0622;stroke-miterlimit:10;}
	.st41{fill:none;stroke:#FFD018;stroke-width:1.9735;stroke-miterlimit:10;}
	.st42{fill-rule:evenodd;clip-rule:evenodd;fill:#FFFFFF;stroke:#FFD018;stroke-width:1.9735;stroke-miterlimit:10;}
	.st43{fill-rule:evenodd;clip-rule:evenodd;fill:#FFD018;}
	.st44{clip-path:url(#SVGID_24_);fill:none;stroke:#FFD018;stroke-miterlimit:10;stroke-dasharray:17.6543;}
	.st45{clip-path:url(#SVGID_28_);fill:none;stroke:#FFD018;stroke-miterlimit:10;stroke-dasharray:17.6543;}
	.st46{clip-path:url(#SVGID_34_);fill:none;stroke:#FFD018;stroke-miterlimit:10;stroke-dasharray:17.6543;}
	.st47{clip-path:url(#SVGID_38_);fill:none;stroke:#FFD018;stroke-miterlimit:10;stroke-dasharray:17.6543;}
	.st48{fill:none;stroke:#FFD018;stroke-width:1.086;stroke-miterlimit:10;}
</style>
<g>
	<rect class="st10" width="1646" height="798"/>
	<g>
		<path class="st5" d="M636.96,134.17c0.75,0,1.51-0.23,2.17-0.71c0.09-0.07,0.18-0.13,0.27-0.2c1.63-1.2,1.98-3.49,0.78-5.12
			c-0.72-0.97-1.83-1.49-2.95-1.49c-0.75,0-1.51,0.23-2.17,0.71l-0.28,0.21c-1.63,1.2-1.97,3.49-0.78,5.12
			C634.73,133.65,635.84,134.17,636.96,134.17z"/>
		<path class="st5" d="M649.94,125.08c0.7,0,1.4-0.2,2.02-0.61c0,0,0.01-0.01,0.01-0.01c0.07-0.04,0.14-0.09,0.21-0.14
			c0.02-0.01,0.04-0.03,0.06-0.04c1.68-1.12,2.14-3.39,1.03-5.07c-0.7-1.06-1.87-1.64-3.05-1.64c-0.69,0-1.4,0.2-2.02,0.61
			l-0.29,0.19c-1.68,1.12-2.14,3.39-1.02,5.07C647.59,124.51,648.75,125.08,649.94,125.08z"/>
		<path class="st5" d="M663.33,116.64c0.64,0,1.28-0.17,1.87-0.52c0.05-0.03,0.1-0.06,0.15-0.09c0.05-0.03,0.1-0.06,0.15-0.09
			c1.73-1.04,2.29-3.28,1.26-5.01c-0.68-1.15-1.9-1.79-3.15-1.79c-0.64,0-1.28,0.17-1.87,0.52l-0.3,0.18
			c-1.74,1.03-2.3,3.28-1.27,5.02C660.87,116,662.09,116.64,663.33,116.64z"/>
		<path class="st5" d="M577.17,187.54c0.68,0.57,1.51,0.85,2.34,0.85c1.05,0,2.09-0.45,2.82-1.32c0.07-0.09,0.15-0.17,0.22-0.26
			c1.29-1.55,1.08-3.86-0.47-5.16c-0.68-0.57-1.51-0.85-2.34-0.85c-1.05,0-2.09,0.45-2.81,1.32l-0.22,0.27
			C575.4,183.94,575.61,186.24,577.17,187.54z"/>
		<path class="st5" d="M589.92,176.45c0.99,0,1.98-0.4,2.7-1.19c0.03-0.03,0.05-0.06,0.08-0.09c0.01-0.01,0.02-0.02,0.03-0.03
			c0,0,0,0,0.01-0.01c0.04-0.04,0.08-0.08,0.12-0.13c1.36-1.49,1.26-3.8-0.23-5.16c-0.7-0.65-1.59-0.96-2.47-0.96
			c-0.99,0-1.97,0.4-2.7,1.19l-0.24,0.26c-1.37,1.49-1.27,3.8,0.22,5.17C588.15,176.13,589.03,176.45,589.92,176.45z"/>
		<path class="st5" d="M624.45,143.87c0.81,0,1.63-0.27,2.31-0.82c0.01-0.01,0.03-0.03,0.04-0.03c0.04-0.03,0.07-0.06,0.11-0.09
			c0.04-0.03,0.09-0.07,0.13-0.1c1.56-1.28,1.79-3.58,0.52-5.14c-0.72-0.89-1.78-1.35-2.84-1.35c-0.81,0-1.63,0.27-2.31,0.82
			l-0.27,0.22c-1.57,1.28-1.8,3.58-0.53,5.15C622.33,143.41,623.38,143.87,624.45,143.87z"/>
		<path class="st5" d="M600.9,165.04c0.93,0,1.85-0.35,2.57-1.05c0.09-0.08,0.17-0.17,0.25-0.25c1.43-1.42,1.45-3.74,0.03-5.17
			c-0.72-0.72-1.66-1.09-2.6-1.09c-0.93,0-1.86,0.35-2.57,1.06l-0.25,0.24c-1.44,1.42-1.45,3.74-0.03,5.17
			C599.01,164.67,599.95,165.04,600.9,165.04z"/>
		<path class="st5" d="M691.29,101.76c0.52,0,1.05-0.11,1.56-0.35c0.1-0.05,0.21-0.1,0.31-0.14c1.83-0.86,2.61-3.04,1.76-4.87
			c-0.62-1.33-1.94-2.1-3.31-2.1c-0.52,0-1.05,0.11-1.55,0.35l-0.32,0.15c-1.83,0.86-2.61,3.04-1.75,4.87
			C688.6,100.99,689.91,101.76,691.29,101.76z"/>
		<path class="st5" d="M750.87,80.54c0.29,0,0.59-0.04,0.88-0.11c0.06-0.01,0.12-0.03,0.18-0.04c0.02-0.01,0.03-0.01,0.05-0.01
			c0.03-0.01,0.05-0.01,0.08-0.02c0.01,0,0.01,0,0.02-0.01c0,0,0,0,0,0c1.96-0.49,3.16-2.47,2.67-4.43
			c-0.41-1.67-1.91-2.78-3.55-2.78c-0.29,0-0.59,0.04-0.88,0.11l-0.34,0.08c-1.96,0.49-3.16,2.47-2.67,4.43
			C747.74,79.43,749.23,80.54,750.87,80.54z"/>
		<path class="st5" d="M735.6,84.74c0.35,0,0.7-0.05,1.05-0.15c0.05-0.01,0.12-0.03,0.16-0.05c0.06-0.02,0.12-0.03,0.17-0.05
			c1.94-0.58,3.03-2.62,2.45-4.56c-0.48-1.58-1.93-2.61-3.5-2.61c-0.35,0-0.7,0.05-1.06,0.16l-0.33,0.1
			c-1.94,0.58-3.03,2.62-2.45,4.56C732.58,83.72,734.03,84.74,735.6,84.74z"/>
		<path class="st5" d="M766.33,77.09c0.23,0,0.46-0.02,0.7-0.07c0.07-0.01,0.14-0.03,0.21-0.04c0.05-0.01,0.09-0.02,0.14-0.03
			c1.98-0.39,3.28-2.31,2.89-4.3c-0.34-1.74-1.87-2.95-3.58-2.95c-0.23,0-0.47,0.02-0.71,0.07l-0.34,0.07
			c-1.98,0.39-3.27,2.31-2.88,4.3C763.09,75.88,764.62,77.09,766.33,77.09z"/>
		<path class="st5" d="M781.94,74.41c0.18,0,0.36-0.01,0.54-0.04c0.02,0,0.04-0.01,0.06-0.01c0.06-0.01,0.14-0.02,0.2-0.03
			c0.03,0,0.05-0.01,0.08-0.01c2-0.29,3.38-2.15,3.09-4.15c-0.27-1.82-1.83-3.13-3.61-3.13c-0.18,0-0.36,0.01-0.53,0.04l-0.34,0.05
			c-2,0.29-3.38,2.15-3.09,4.15C778.59,73.1,780.15,74.41,781.94,74.41z"/>
		<path class="st5" d="M567.48,200.07c0.66,0.5,1.43,0.74,2.2,0.74c1.11,0,2.21-0.5,2.93-1.46c0.02-0.02,0.04-0.05,0.06-0.07
			c0.04-0.06,0.07-0.1,0.12-0.15c0.01-0.01,0.02-0.03,0.03-0.04c1.22-1.61,0.89-3.91-0.72-5.13c-0.66-0.5-1.43-0.74-2.2-0.74
			c-1.11,0-2.21,0.5-2.92,1.46l-0.21,0.28C565.54,196.56,565.87,198.85,567.48,200.07z"/>
		<path class="st5" d="M677.13,108.86c0.58,0,1.17-0.14,1.72-0.43c0.08-0.04,0.15-0.08,0.23-0.12c0.04-0.02,0.05-0.03,0.08-0.04
			c1.77-0.95,2.45-3.16,1.5-4.94c-0.66-1.24-1.92-1.94-3.23-1.94c-0.58,0-1.17,0.14-1.71,0.43l-0.31,0.16
			c-1.78,0.95-2.46,3.16-1.51,4.95C674.55,108.15,675.82,108.86,677.13,108.86z"/>
		<path class="st5" d="M720.56,89.69c0.41,0,0.82-0.07,1.22-0.21c0.01,0,0.03-0.01,0.04-0.01c0.08-0.03,0.16-0.06,0.24-0.08
			c0.02-0.01,0.05-0.02,0.07-0.02c1.9-0.68,2.89-2.77,2.21-4.67c-0.53-1.5-1.94-2.44-3.45-2.44c-0.41,0-0.82,0.07-1.23,0.21
			l-0.33,0.12c-1.9,0.68-2.9,2.77-2.22,4.67C717.64,88.75,719.05,89.69,720.56,89.69z"/>
		<path class="st5" d="M797.66,72.49c0.11,0,0.23-0.01,0.35-0.02c0.12-0.01,0.24-0.02,0.35-0.03c2.01-0.2,3.48-1.99,3.29-4
			c-0.18-1.89-1.77-3.31-3.64-3.31c-0.12,0-0.24,0.01-0.36,0.02l-0.35,0.03c-2.01,0.2-3.48,1.98-3.29,4
			C794.2,71.07,795.8,72.49,797.66,72.49z"/>
		<path class="st5" d="M705.77,95.37c0.46,0,0.94-0.09,1.39-0.28c0,0,0.01,0,0.01-0.01c0.07-0.03,0.15-0.06,0.22-0.09
			c0.03-0.01,0.06-0.02,0.09-0.04c1.87-0.77,2.76-2.91,1.99-4.78c-0.58-1.41-1.95-2.27-3.38-2.27c-0.46,0-0.94,0.09-1.39,0.28
			l-0.32,0.13c-1.87,0.77-2.76,2.91-1.99,4.78C702.97,94.51,704.34,95.37,705.77,95.37z"/>
		<path class="st5" d="M504.94,376.68c0.07,0,0.15,0.01,0.22,0.01c1.92,0,3.53-1.49,3.65-3.43c0.01-0.1,0.01-0.2,0.02-0.3
			c0-0.02,0-0.04,0-0.05c0.12-2.02-1.42-3.75-3.44-3.87c-0.07,0-0.15-0.01-0.22-0.01c-1.92,0-3.53,1.5-3.65,3.44l-0.02,0.35
			C501.38,374.83,502.92,376.56,504.94,376.68z"/>
		<path class="st5" d="M510.62,329.54c0.25,0.05,0.5,0.08,0.75,0.08c1.7,0,3.22-1.19,3.58-2.92c0.02-0.09,0.04-0.17,0.05-0.26
			c0.01-0.03,0.01-0.06,0.02-0.09c0.4-1.98-0.86-3.91-2.84-4.32c-0.25-0.05-0.5-0.08-0.75-0.08c-1.7,0-3.22,1.19-3.58,2.91
			l-0.07,0.34C507.37,327.2,508.64,329.13,510.62,329.54z"/>
		<path class="st5" d="M504.57,392.51c0.01,0,0.03,0,0.04,0c2,0,3.64-1.61,3.66-3.62c0-0.04,0-0.1,0-0.14c0-0.07,0-0.14,0-0.2
			c0.02-2.02-1.6-3.68-3.62-3.7c-0.01,0-0.03,0-0.04,0c-2,0-3.63,1.61-3.66,3.62l0,0.35C500.92,390.83,502.55,392.49,504.57,392.51z
			"/>
		<path class="st5" d="M507.96,345.16c0.19,0.03,0.38,0.04,0.57,0.04c1.77,0,3.33-1.29,3.61-3.09c0-0.01,0-0.02,0-0.03
			c0.02-0.1,0.03-0.21,0.05-0.31c0.31-2-1.05-3.87-3.05-4.18c-0.19-0.03-0.39-0.05-0.58-0.05c-1.77,0-3.32,1.29-3.61,3.09
			l-0.05,0.34C504.6,342.97,505.97,344.84,507.96,345.16z"/>
		<path class="st5" d="M510.7,455.47c1.99-0.37,3.3-2.28,2.93-4.27c-0.02-0.11-0.04-0.22-0.06-0.33c-0.33-1.76-1.87-3-3.6-3
			c-0.22,0-0.44,0.02-0.67,0.06c-1.99,0.37-3.3,2.27-2.93,4.26l0.06,0.34c0.33,1.76,1.86,2.99,3.59,2.99
			C510.25,455.54,510.47,455.52,510.7,455.47z"/>
		<path class="st5" d="M558.42,213.06c0.63,0.43,1.34,0.63,2.05,0.63c1.17,0,2.32-0.56,3.03-1.6c0.01-0.01,0.02-0.03,0.03-0.04
			c0.06-0.08,0.11-0.17,0.17-0.25c1.13-1.67,0.69-3.94-0.98-5.08c-0.63-0.43-1.35-0.63-2.05-0.63c-1.17,0-2.32,0.56-3.03,1.6
			l-0.2,0.29C556.31,209.65,556.75,211.92,558.42,213.06z"/>
		<path class="st5" d="M506.1,424.14c2.01-0.17,3.5-1.94,3.34-3.95c0-0.05-0.01-0.1-0.01-0.15c0-0.01,0.03-0.03,0.03-0.04
			c0-0.02,0.03-0.04,0.03-0.07c0,0,0,0,0,0c0-0.03-0.04-0.07-0.04-0.1c-0.17-1.9-1.78-3.34-3.66-3.34c-0.1,0-0.22,0-0.32,0.01
			c-2.01,0.17-3.51,1.94-3.34,3.96l0.03,0.35c0.16,1.91,1.76,3.35,3.64,3.35C505.89,424.16,506,424.15,506.1,424.14z"/>
		<path class="st5" d="M504.82,408.35c0.05,0,0.09,0,0.14,0c2.02-0.08,3.59-1.77,3.52-3.79c0-0.03,0-0.06,0-0.09
			c0-0.03,0-0.07,0-0.1c0-0.02,0-0.02,0-0.04c0-0.04,0-0.08,0-0.11c-0.07-1.97-1.7-3.53-3.66-3.53c-0.04,0-0.09,0-0.14,0
			c-2.02,0.07-3.6,1.77-3.52,3.79l0.01,0.35C501.24,406.8,502.86,408.35,504.82,408.35z"/>
		<path class="st5" d="M542.24,240.28c0.56,0.3,1.16,0.45,1.75,0.45c1.29,0,2.55-0.69,3.21-1.9c0.06-0.11,0.11-0.21,0.17-0.31
			c0.97-1.77,0.31-4-1.46-4.96c-0.56-0.3-1.16-0.45-1.75-0.45c-1.3,0-2.55,0.69-3.21,1.91l-0.17,0.31
			C539.81,237.09,540.47,239.31,542.24,240.28z"/>
		<path class="st5" d="M550,226.47c0.59,0.36,1.25,0.54,1.9,0.54c1.23,0,2.44-0.62,3.13-1.75c0.06-0.1,0.12-0.19,0.18-0.29
			c1.05-1.73,0.51-3.98-1.22-5.03c-0.6-0.36-1.25-0.54-1.9-0.54c-1.23,0-2.44,0.62-3.13,1.75l-0.18,0.3
			C547.73,223.17,548.27,225.42,550,226.47z"/>
		<path class="st5" d="M535.17,254.45c0.51,0.25,1.06,0.37,1.59,0.37c1.36,0,2.67-0.76,3.3-2.07c0.01-0.02,0.02-0.04,0.03-0.06
			c0.04-0.08,0.08-0.17,0.12-0.26c0.87-1.82,0.11-4-1.71-4.88c-0.51-0.25-1.06-0.37-1.59-0.37c-1.36,0-2.66,0.76-3.3,2.07
			l-0.15,0.31C532.58,251.38,533.35,253.57,535.17,254.45z"/>
		<path class="st5" d="M518.22,298.8c0.36,0.11,0.73,0.17,1.09,0.17c1.56,0,3-1,3.49-2.57c0.01-0.04,0.02-0.08,0.04-0.12
			c0.02-0.07,0.05-0.15,0.07-0.21c0.6-1.93-0.47-3.98-2.4-4.58c-0.36-0.11-0.73-0.17-1.1-0.17c-1.56,0-3,1-3.49,2.57l-0.1,0.33
			C515.22,296.14,516.29,298.2,518.22,298.8z"/>
		<path class="st5" d="M528.79,268.95c0.47,0.2,0.95,0.29,1.43,0.29c1.42,0,2.77-0.83,3.37-2.22c0.04-0.1,0.08-0.19,0.13-0.3
			c0-0.01,0.01-0.02,0.01-0.03c0.79-1.86-0.08-4.01-1.94-4.8c-0.47-0.2-0.95-0.29-1.43-0.29c-1.42,0-2.78,0.84-3.37,2.23l-0.14,0.32
			C526.06,266.01,526.93,268.16,528.79,268.95z"/>
		<path class="st5" d="M514.04,314.08c0.31,0.08,0.62,0.12,0.92,0.12c1.62,0,3.11-1.09,3.54-2.73c0.01-0.04,0.03-0.1,0.04-0.14
			c0-0.01,0.01-0.03,0.01-0.04c0.01-0.05,0.03-0.12,0.04-0.17c0.5-1.95-0.67-3.94-2.62-4.45c-0.31-0.08-0.62-0.12-0.92-0.12
			c-1.63,0-3.11,1.09-3.54,2.74l-0.09,0.34C510.91,311.57,512.09,313.57,514.04,314.08z"/>
		<path class="st5" d="M523.14,283.74c0.42,0.15,0.84,0.23,1.26,0.23c1.49,0,2.89-0.92,3.44-2.4c0.03-0.09,0.07-0.19,0.1-0.28
			c0.01-0.02,0.01-0.02,0.02-0.04c0.69-1.9-0.28-4-2.17-4.69c-0.42-0.15-0.84-0.23-1.26-0.23c-1.49,0-2.89,0.92-3.43,2.4l-0.12,0.33
			C520.27,280.95,521.24,283.05,523.14,283.74z"/>
		<path class="st5" d="M1076.33,186.33c0.72,0.87,1.76,1.31,2.81,1.31c0.83,0,1.66-0.28,2.35-0.85c1.55-1.3,1.76-3.6,0.46-5.15
			l-0.22-0.27c-0.72-0.86-1.76-1.31-2.81-1.31c-0.83,0-1.66,0.28-2.35,0.85c-1.55,1.3-1.75,3.61-0.46,5.16
			C1076.19,186.16,1076.26,186.25,1076.33,186.33z"/>
		<path class="st5" d="M1111.47,237.76c0.04,0.08,0.08,0.15,0.13,0.23c0.67,1.21,1.92,1.9,3.21,1.9c0.6,0,1.2-0.15,1.76-0.45
			c1.77-0.97,2.42-3.2,1.45-4.97l-0.17-0.31c-0.67-1.21-1.92-1.9-3.21-1.9c-0.6,0-1.2,0.15-1.76,0.45
			c-1.77,0.97-2.42,3.19-1.45,4.96C1111.45,237.71,1111.46,237.73,1111.47,237.76z"/>
		<path class="st5" d="M1103.59,224.2c0.04,0.06,0.07,0.11,0.1,0.17c0.01,0.02,0.03,0.05,0.04,0.07c0.69,1.13,1.89,1.75,3.12,1.75
			c0.65,0,1.31-0.17,1.91-0.54c1.72-1.06,2.26-3.31,1.2-5.03l-0.18-0.3c-0.69-1.12-1.89-1.74-3.12-1.74c-0.65,0-1.32,0.18-1.91,0.54
			c-1.72,1.06-2.26,3.31-1.2,5.04C1103.57,224.17,1103.58,224.19,1103.59,224.2z"/>
		<path class="st5" d="M1095.07,211.07c0.01,0.01,0.01,0.02,0.02,0.02c0.05,0.07,0.1,0.14,0.14,0.21c0.71,1.03,1.86,1.59,3.02,1.59
			c0.71,0,1.43-0.21,2.06-0.64c1.67-1.14,2.1-3.42,0.96-5.08l-0.2-0.29c-0.71-1.04-1.86-1.59-3.02-1.59c-0.71,0-1.43,0.21-2.06,0.64
			c-1.67,1.14-2.1,3.42-0.96,5.09C1095.04,211.04,1095.06,211.06,1095.07,211.07z"/>
		<path class="st5" d="M1118.64,251.58c0.01,0.03,0.04,0.07,0.05,0.1c0.03,0.07,0.07,0.14,0.1,0.21c0.63,1.3,1.94,2.06,3.29,2.06
			c0.54,0,1.08-0.12,1.6-0.37c1.82-0.88,2.57-3.07,1.69-4.89l-0.15-0.31c-0.63-1.3-1.94-2.06-3.29-2.06c-0.54,0-1.08,0.12-1.6,0.37
			C1118.52,247.58,1117.76,249.76,1118.64,251.58z"/>
		<path class="st5" d="M1125.16,265.82c0.04,0.1,0.09,0.21,0.13,0.31c0.59,1.39,1.95,2.22,3.37,2.22c0.48,0,0.97-0.09,1.44-0.3
			c1.86-0.79,2.72-2.94,1.93-4.8l-0.14-0.32c-0.59-1.39-1.94-2.22-3.36-2.22c-0.48,0-0.97,0.1-1.44,0.3
			C1125.23,261.81,1124.37,263.97,1125.16,265.82z"/>
		<path class="st5" d="M1065.93,174.49c0.02,0.02,0.04,0.05,0.06,0.07c0,0,0,0,0.01,0.01c0.72,0.78,1.71,1.18,2.69,1.18
			c0.89,0,1.78-0.32,2.48-0.97c1.49-1.37,1.58-3.68,0.21-5.17l-0.24-0.26c-0.72-0.78-1.7-1.18-2.69-1.18
			c-0.89,0-1.78,0.32-2.48,0.97c-1.48,1.37-1.58,3.69-0.21,5.17C1065.83,174.37,1065.88,174.43,1065.93,174.49z"/>
		<path class="st5" d="M516.86,466.53c-0.02-0.1-0.05-0.2-0.07-0.3l0-0.01c0-0.01,0-0.01-0.01-0.02c-0.4-1.69-1.9-2.82-3.56-2.82
			c-0.28,0-0.56,0.03-0.84,0.1c-1.97,0.46-3.19,2.43-2.72,4.4l0.08,0.34c0.4,1.68,1.9,2.82,3.56,2.82c0.28,0,0.56-0.03,0.84-0.1
			C516.11,470.47,517.32,468.5,516.86,466.53z"/>
		<path class="st5" d="M1085.94,198.4c0.05,0.06,0.1,0.13,0.14,0.19c0.72,0.95,1.81,1.45,2.92,1.45c0.77,0,1.55-0.24,2.21-0.74
			c1.61-1.22,1.93-3.51,0.71-5.13l-0.21-0.28c-0.72-0.95-1.81-1.45-2.92-1.45c-0.77,0-1.55,0.24-2.21,0.74
			c-1.61,1.22-1.93,3.51-0.71,5.12C1085.89,198.33,1085.92,198.37,1085.94,198.4z"/>
		<path class="st5" d="M1149.94,336.64c-1.99,0.32-3.35,2.19-3.04,4.18c0.02,0.09,0.03,0.17,0.04,0.26c0,0.01,0,0.01,0,0.02
			c0,0.01,0,0.02,0.01,0.03c0,0.01,0,0.02,0.01,0.04c0.29,1.8,1.84,3.08,3.61,3.08c0.19,0,0.39-0.02,0.58-0.05
			c2-0.32,3.35-2.2,3.03-4.19l-0.06-0.34c-0.29-1.8-1.84-3.08-3.61-3.08C1150.34,336.6,1150.14,336.61,1149.94,336.64z"/>
		<path class="st5" d="M1153.8,368.07c-2.01,0.13-3.55,1.86-3.43,3.87c0,0.03,0,0.05,0.01,0.08c0,0.01,0,0.01,0,0.02l0,0.02
			c0,0.08,0.01,0.15,0.01,0.23c0.12,1.94,1.73,3.44,3.65,3.44c0.08,0,0.15,0,0.23-0.01c2.02-0.12,3.55-1.86,3.43-3.88l-0.02-0.35
			c-0.12-1.94-1.73-3.43-3.65-3.43C1153.96,368.07,1153.88,368.07,1153.8,368.07z"/>
		<path class="st5" d="M1154.64,383.89c-0.02,0-0.04,0-0.05,0c-2.02,0.03-3.64,1.69-3.61,3.71c0,0.11,0,0.23,0,0.34
			c0.03,2,1.66,3.61,3.66,3.61c0.02,0,0.03,0,0.05,0c2.02-0.03,3.64-1.69,3.61-3.71l0-0.35
			C1158.27,385.49,1156.64,383.89,1154.64,383.89z"/>
		<path class="st5" d="M813.46,71.33c0.06,0,0.11,0,0.17,0c0.02,0,0.06,0.06,0.08,0.06c0.01,0,0.02,0.06,0.03,0.06h0
			c0.02,0,0.05-0.07,0.07-0.07c0.06,0,0.12-0.04,0.18-0.04c2.01-0.11,3.56-1.83,3.46-3.85c-0.09-1.96-1.71-3.49-3.65-3.49
			c-0.06,0-0.12,0-0.18,0l-0.35,0.01c-2.02,0.1-3.58,1.81-3.48,3.83C809.9,69.81,811.52,71.33,813.46,71.33z"/>
		<path class="st5" d="M1140.42,310.19c0.03,0.1,0.06,0.22,0.08,0.32c0,0.01,0.01,0.02,0.01,0.03c0.43,1.64,1.92,2.73,3.54,2.73
			c0.31,0,0.62-0.04,0.93-0.12c1.96-0.51,3.12-2.51,2.61-4.47l-0.09-0.34c-0.43-1.64-1.91-2.73-3.53-2.73
			c-0.31,0-0.62,0.04-0.93,0.12C1141.09,306.25,1139.92,308.24,1140.42,310.19z"/>
		<path class="st5" d="M1136.07,295.17c0,0.01,0.01,0.02,0.01,0.03c0.01,0.04,0.03,0.08,0.04,0.12c0.02,0.06,0.04,0.11,0.05,0.17
			c0.49,1.56,1.94,2.56,3.49,2.56c0.36,0,0.74-0.05,1.1-0.17c1.93-0.61,3-2.66,2.39-4.59l-0.11-0.33c-0.49-1.56-1.93-2.56-3.49-2.56
			c-0.37,0-0.74,0.06-1.11,0.17C1136.53,291.19,1135.46,293.24,1136.07,295.17z"/>
		<path class="st5" d="M1054.92,163.12c0.07,0.06,0.13,0.13,0.2,0.19c0.71,0.7,1.64,1.05,2.57,1.05c0.95,0,1.89-0.36,2.61-1.09
			c1.42-1.44,1.4-3.76-0.04-5.17l-0.25-0.24c-0.71-0.7-1.64-1.05-2.56-1.05c-0.95,0-1.89,0.37-2.61,1.09
			c-1.41,1.44-1.4,3.75,0.04,5.17C1054.88,163.08,1054.9,163.1,1054.92,163.12z"/>
		<path class="st5" d="M1130.98,280.36c0.02,0.05,0.03,0.09,0.05,0.14c0.02,0.07,0.04,0.11,0.06,0.17c0,0,0,0,0,0.01
			c0.55,1.48,1.95,2.39,3.43,2.39c0.42,0,0.85-0.07,1.27-0.23c1.9-0.7,2.86-2.81,2.16-4.7l-0.12-0.33
			c-0.55-1.47-1.94-2.39-3.43-2.39c-0.42,0-0.85,0.07-1.27,0.23C1131.24,276.36,1130.27,278.47,1130.98,280.36z"/>
		<path class="st5" d="M1152.26,352.31c-2.01,0.22-3.46,2.03-3.23,4.04c0,0.01,0,0.02,0,0.02c0.01,0.11,0.03,0.23,0.04,0.33
			c0.21,1.86,1.8,3.24,3.63,3.24c0.13,0,0.27-0.01,0.41-0.02c2.01-0.22,3.46-2.03,3.23-4.04l-0.04-0.35
			c-0.21-1.87-1.79-3.26-3.63-3.26C1152.53,352.29,1152.39,352.3,1152.26,352.31z"/>
		<path class="st5" d="M875.51,74.18c0.1,0.01,0.22,0.03,0.32,0.05c0.01,0,0.02,0,0.02,0c0.18,0.03,0.35,0.04,0.52,0.04
			c1.79,0,3.36-1.32,3.62-3.14c0.29-2-1.1-3.86-3.1-4.14l-0.34-0.05c-0.18-0.03-0.35-0.04-0.52-0.04c-1.79,0-3.36,1.32-3.62,3.14
			C872.12,72.04,873.51,73.89,875.51,74.18z"/>
		<path class="st5" d="M936.25,89.04c0.03,0.01,0.06,0.02,0.09,0.03c0.08,0.03,0.16,0.06,0.24,0.08c0.4,0.14,0.81,0.21,1.22,0.21
			c1.51,0,2.92-0.94,3.45-2.44c0.67-1.91-0.33-4-2.23-4.67l-0.33-0.12c-0.4-0.14-0.81-0.21-1.22-0.21c-1.51,0-2.92,0.94-3.45,2.45
			C933.36,86.28,934.35,88.37,936.25,89.04z"/>
		<path class="st5" d="M906.25,80.12c0.04,0.01,0.06,0.01,0.1,0.02c0.05,0.01,0.11,0.03,0.16,0.04c0.03,0.01,0.05,0.01,0.08,0.02
			c0.29,0.07,0.58,0.1,0.86,0.1c1.65,0,3.14-1.12,3.55-2.79c0.48-1.96-0.72-3.94-2.68-4.43l-0.34-0.08
			c-0.29-0.07-0.59-0.11-0.87-0.11c-1.65,0-3.14,1.12-3.55,2.79C903.09,77.66,904.29,79.64,906.25,80.12z"/>
		<path class="st5" d="M921.37,84.22c0.09,0.03,0.19,0.06,0.28,0.08c0.01,0,0.03,0.01,0.04,0.01c0.35,0.1,0.7,0.15,1.05,0.15
			c1.58,0,3.03-1.03,3.51-2.62c0.58-1.94-0.52-3.97-2.46-4.55l-0.33-0.1c-0.35-0.1-0.7-0.15-1.05-0.15c-1.58,0-3.03,1.03-3.5,2.62
			C918.33,81.6,919.43,83.64,921.37,84.22z"/>
		<path class="st5" d="M890.95,76.78c0.11,0.02,0.23,0.04,0.34,0.07c0.23,0.05,0.47,0.07,0.7,0.07c1.72,0,3.25-1.21,3.59-2.96
			c0.39-1.98-0.91-3.9-2.89-4.29l-0.34-0.07c-0.24-0.05-0.47-0.07-0.7-0.07c-1.72,0-3.25,1.22-3.59,2.96
			C887.68,74.47,888.97,76.39,890.95,76.78z"/>
		<path class="st5" d="M859.96,72.35c0.02,0,0.04,0,0.07,0.01c0.06,0.01,0.12,0.01,0.18,0.02c0.03,0,0.06,0.01,0.09,0.01
			c0.12,0.01,0.23,0.02,0.35,0.02c1.87,0,3.46-1.42,3.64-3.32c0.19-2.01-1.29-3.8-3.3-3.99l-0.35-0.03
			c-0.12-0.01-0.23-0.02-0.35-0.02c-1.87,0-3.46,1.42-3.64,3.32C856.47,70.37,857.95,72.16,859.96,72.35z"/>
		<path class="st5" d="M829.28,70.93c0.12,0,0.23,0,0.35,0c2.02,0,3.66-1.65,3.66-3.67c0-2.02-1.64-3.66-3.66-3.66c0,0,0,0,0,0
			l-0.35,0.01c-2.02,0-3.66,1.64-3.66,3.66C825.63,69.29,827.26,70.93,829.28,70.93z"/>
		<path class="st5" d="M844.33,71.26c0.02,0,0.06,0,0.08,0c0.09,0,0.18,0.01,0.27,0.01c0.06,0,0.11,0,0.17,0
			c1.94,0,3.56-1.53,3.65-3.49c0.09-2.02-1.47-3.73-3.49-3.82l-0.35-0.02c-0.06,0-0.11,0-0.17,0c-1.94,0-3.56,1.53-3.65,3.49
			C840.76,69.46,842.32,71.16,844.33,71.26z"/>
		<path class="st5" d="M1031.51,142.24c0.04,0.03,0.07,0.06,0.11,0.09c0.04,0.03,0.06,0.05,0.1,0.08c0.02,0.01,0.04,0.03,0.06,0.04
			c0.68,0.55,1.49,0.82,2.3,0.82c1.07,0,2.12-0.46,2.85-1.36c1.27-1.57,1.03-3.87-0.54-5.15l-0.27-0.22
			c-0.68-0.55-1.49-0.81-2.3-0.81c-1.07,0-2.12,0.46-2.85,1.36C1029.69,138.66,1029.93,140.97,1031.51,142.24z"/>
		<path class="st5" d="M1006.22,123.76c0.03,0.02,0.04,0.03,0.07,0.05c0.07,0.04,0.14,0.09,0.2,0.13c0.01,0.01,0.01,0.01,0.02,0.01
			c0.62,0.41,1.32,0.6,2.01,0.6c1.19,0,2.35-0.58,3.06-1.64c1.11-1.69,0.65-3.96-1.04-5.07l-0.29-0.19
			c-0.62-0.41-1.32-0.61-2.01-0.61c-1.19,0-2.35,0.58-3.06,1.65C1004.08,120.37,1004.54,122.64,1006.22,123.76z"/>
		<path class="st5" d="M1019.08,132.68c0.1,0.07,0.19,0.14,0.29,0.21c0.65,0.47,1.41,0.7,2.15,0.7c1.13,0,2.24-0.52,2.96-1.5
			c1.19-1.63,0.84-3.92-0.79-5.11l-0.28-0.21c-0.65-0.48-1.41-0.71-2.16-0.71c-1.13,0-2.24,0.52-2.96,1.5
			C1017.11,129.2,1017.46,131.49,1019.08,132.68z"/>
		<path class="st5" d="M1043.44,152.37c0.08,0.08,0.17,0.15,0.25,0.23c0.7,0.62,1.57,0.93,2.44,0.93c1.01,0,2.01-0.41,2.73-1.22
			c1.35-1.51,1.22-3.82-0.29-5.17l-0.26-0.23c-0.7-0.62-1.57-0.93-2.43-0.93c-1.01,0-2.01,0.41-2.73,1.22
			C1041.8,148.71,1041.93,151.03,1043.44,152.37z"/>
		<path class="st5" d="M965.25,100.87c0.04,0.02,0.07,0.03,0.11,0.05c0.07,0.03,0.14,0.06,0.2,0.09c0.5,0.23,1.03,0.34,1.55,0.34
			c1.38,0,2.7-0.78,3.32-2.11c0.86-1.83,0.07-4.01-1.77-4.86l-0.32-0.15c-0.5-0.23-1.03-0.34-1.54-0.34c-1.38,0-2.7,0.78-3.32,2.11
			C962.63,97.83,963.42,100.01,965.25,100.87z"/>
		<path class="st5" d="M950.9,94.6c0.02,0.01,0.02,0.01,0.04,0.01c0.1,0.04,0.19,0.08,0.29,0.12c0.45,0.18,0.92,0.27,1.38,0.27
			c1.44,0,2.81-0.86,3.39-2.28c0.77-1.87-0.13-4.01-2-4.77l-0.32-0.13c-0.45-0.18-0.92-0.27-1.38-0.27c-1.44,0-2.81,0.86-3.39,2.28
			C948.13,91.7,949.03,93.83,950.9,94.6z"/>
		<path class="st5" d="M992.95,115.46c0.1,0.06,0.2,0.12,0.31,0.18c0.58,0.34,1.22,0.5,1.85,0.5c1.25,0,2.47-0.64,3.15-1.8
			c1.03-1.74,0.46-3.98-1.28-5.01l-0.3-0.18c-0.58-0.35-1.23-0.51-1.86-0.51c-1.25,0-2.47,0.64-3.15,1.8
			C990.63,112.19,991.21,114.43,992.95,115.46z"/>
		<path class="st5" d="M979.28,107.83c0.1,0.05,0.2,0.11,0.3,0.16c0.54,0.29,1.13,0.42,1.71,0.42c1.31,0,2.58-0.71,3.24-1.95
			c0.94-1.79,0.26-4-1.53-4.94l-0.31-0.16c-0.54-0.29-1.13-0.42-1.7-0.42c-1.31,0-2.58,0.71-3.24,1.95
			C976.81,104.67,977.49,106.88,979.28,107.83z"/>
		<path class="st5" d="M508.02,439.86c2-0.27,3.4-2.11,3.14-4.1c-0.01-0.08-0.02-0.18-0.04-0.26c0-0.03-0.01-0.06-0.01-0.09
			c-0.25-1.84-1.82-3.17-3.62-3.17c-0.16,0-0.33,0.01-0.49,0.03c-2,0.27-3.41,2.11-3.14,4.11l0.05,0.35
			c0.25,1.84,1.82,3.17,3.62,3.17C507.69,439.9,507.85,439.89,508.02,439.86z"/>
		<path class="st5" d="M1064.14,613.73c-0.96,0-1.92,0.37-2.64,1.12c-0.02,0.02-0.05,0.05-0.07,0.07c-0.06,0.06-0.11,0.12-0.17,0.18
			c-1.4,1.46-1.36,3.77,0.1,5.18c0.71,0.68,1.62,1.02,2.54,1.02c0.96,0,1.92-0.38,2.64-1.12l0.24-0.25c1.4-1.46,1.35-3.77-0.1-5.17
			C1065.96,614.07,1065.05,613.73,1064.14,613.73z"/>
		<path class="st5" d="M1052.89,624.89c-0.9,0-1.8,0.33-2.51,1c-0.02,0.02-0.05,0.05-0.07,0.07c-0.06,0.06-0.12,0.11-0.18,0.17
			c-1.47,1.39-1.54,3.7-0.15,5.17c0.72,0.76,1.69,1.15,2.66,1.15c0.9,0,1.8-0.33,2.51-1l0.25-0.24c1.47-1.39,1.53-3.7,0.15-5.17
			C1054.83,625.27,1053.86,624.89,1052.89,624.89z"/>
		<path class="st5" d="M1016.12,654.91c-0.72,0-1.45,0.21-2.09,0.66c-0.06,0.04-0.12,0.08-0.18,0.12c-0.04,0.03-0.07,0.05-0.11,0.08
			c-1.66,1.16-2.06,3.44-0.9,5.1c0.71,1.02,1.85,1.56,3,1.56c0.73,0,1.46-0.22,2.1-0.66l0.29-0.2c1.66-1.16,2.06-3.44,0.89-5.1
			C1018.41,655.45,1017.27,654.91,1016.12,654.91z"/>
		<path class="st5" d="M1041.12,635.49c-0.84,0-1.69,0.29-2.38,0.88c-0.07,0.06-0.15,0.12-0.22,0.19c-0.02,0.01-0.03,0.03-0.05,0.04
			c-1.53,1.32-1.71,3.62-0.39,5.16c0.72,0.85,1.75,1.28,2.78,1.28c0.84,0,1.69-0.29,2.38-0.88l0.26-0.23
			c1.53-1.32,1.71-3.62,0.4-5.16C1043.18,635.92,1042.16,635.49,1041.12,635.49z"/>
		<path class="st5" d="M1096.56,577.87c-0.64-0.46-1.39-0.68-2.12-0.68c-1.14,0-2.26,0.53-2.98,1.53c-0.02,0.02-0.04,0.05-0.05,0.08
			c-0.05,0.07-0.1,0.14-0.15,0.21c-1.17,1.64-0.79,3.93,0.85,5.11c0.64,0.46,1.39,0.68,2.12,0.68c1.14,0,2.27-0.53,2.98-1.53
			l0.2-0.28C1098.59,581.33,1098.21,579.05,1096.56,577.87z"/>
		<path class="st5" d="M1077.23,602.95c-0.69-0.6-1.55-0.9-2.4-0.9c-1.02,0-2.04,0.42-2.76,1.26c-0.07,0.09-0.15,0.17-0.22,0.26
			c-1.33,1.52-1.17,3.84,0.35,5.16c0.69,0.61,1.55,0.9,2.4,0.9c1.02,0,2.04-0.42,2.76-1.25l0.23-0.26
			C1078.91,606.59,1078.75,604.28,1077.23,602.95z"/>
		<path class="st5" d="M1087.2,590.65c-0.67-0.53-1.47-0.79-2.27-0.79c-1.08,0-2.15,0.48-2.87,1.39c-0.02,0.02-0.03,0.04-0.05,0.07
			c-0.02,0.02-0.04,0.05-0.06,0.07l-0.01,0.02c-0.03,0.04-0.06,0.08-0.09,0.12c-1.25,1.59-0.98,3.89,0.6,5.14
			c0.67,0.53,1.47,0.79,2.27,0.79c1.08,0,2.15-0.48,2.87-1.39l0.22-0.27C1089.06,594.2,1088.79,591.9,1087.2,590.65z"/>
		<path class="st5" d="M916.34,702c-0.32,0-0.65,0.04-0.97,0.13c-0.12,0.03-0.22,0.06-0.34,0.09c-1.94,0.54-3.09,2.55-2.55,4.5
			c0.45,1.62,1.92,2.69,3.52,2.69c0.32,0,0.65-0.04,0.97-0.13l0.34-0.09c1.95-0.54,3.09-2.55,2.55-4.5
			C919.42,703.07,917.95,702,916.34,702z"/>
		<path class="st5" d="M900.98,705.84c-0.26,0-0.53,0.03-0.8,0.09c-0.01,0-0.02,0-0.03,0.01c-0.08,0.02-0.17,0.04-0.25,0.06
			c-0.02,0-0.04,0.01-0.05,0.01c-1.97,0.44-3.22,2.4-2.78,4.37c0.38,1.7,1.89,2.86,3.57,2.86c0.26,0,0.53-0.03,0.8-0.09l0.34-0.08
			c1.97-0.44,3.21-2.4,2.77-4.37C904.17,707,902.65,705.84,900.98,705.84z"/>
		<path class="st5" d="M946.41,692.09c-0.44,0-0.88,0.08-1.31,0.24c-0.1,0.04-0.21,0.08-0.32,0.12l0,0
			c-1.89,0.73-2.83,2.84-2.1,4.73c0.56,1.45,1.94,2.35,3.42,2.35c0.44,0,0.88-0.08,1.31-0.24l0.33-0.13
			c1.89-0.73,2.83-2.84,2.1-4.73C949.27,692.98,947.88,692.09,946.41,692.09z"/>
		<path class="st5" d="M520.83,481.68c-0.02-0.06-0.03-0.11-0.05-0.17c-0.01-0.04-0.02-0.05-0.03-0.09
			c-0.01-0.02-0.01-0.04-0.02-0.06c-0.46-1.6-1.93-2.65-3.52-2.65c-0.34,0-0.68,0.05-1.01,0.14c-1.94,0.56-3.06,2.59-2.5,4.53
			l0.1,0.33c0.46,1.6,1.92,2.65,3.51,2.65c0.34,0,0.68-0.05,1.02-0.14C520.27,485.65,521.39,483.62,520.83,481.68z"/>
		<path class="st5" d="M961.05,686.03c-0.49,0-1,0.1-1.48,0.31c-0.03,0.01-0.06,0.03-0.09,0.04c-0.08,0.04-0.15,0.06-0.23,0.1
			c-1.84,0.82-2.68,2.98-1.86,4.82c0.6,1.37,1.94,2.18,3.35,2.18c0.49,0,1-0.1,1.48-0.31l0.32-0.14c1.85-0.82,2.68-2.98,1.87-4.83
			C963.79,686.85,962.45,686.03,961.05,686.03z"/>
		<path class="st5" d="M989.34,671.82c-0.61,0-1.23,0.15-1.8,0.47c0,0-0.01,0-0.01,0.01c-0.03,0.01-0.04,0.02-0.06,0.04
			c0,0,0,0-0.01,0c-0.07,0.04-0.15,0.09-0.22,0.13c-1.75,1-2.37,3.22-1.38,4.98c0.67,1.19,1.91,1.86,3.19,1.86
			c0.61,0,1.23-0.15,1.8-0.47l0.3-0.17c1.76-0.99,2.38-3.23,1.39-4.99C991.86,672.48,990.62,671.82,989.34,671.82z"/>
		<path class="st5" d="M1002.94,663.69c-0.67,0-1.34,0.18-1.95,0.56c-0.1,0.06-0.19,0.12-0.29,0.18c-1.71,1.08-2.22,3.34-1.14,5.05
			c0.7,1.1,1.88,1.71,3.1,1.71c0.67,0,1.34-0.18,1.95-0.56l0.29-0.19c1.71-1.08,2.22-3.34,1.14-5.05
			C1005.34,664.29,1004.15,663.69,1002.94,663.69z"/>
		<path class="st5" d="M975.37,679.27c-0.55,0-1.11,0.13-1.64,0.39c-0.04,0.02-0.08,0.04-0.12,0.06c-0.06,0.03-0.13,0.07-0.2,0.1
			c-1.8,0.91-2.52,3.1-1.62,4.91c0.64,1.28,1.93,2.02,3.27,2.02c0.55,0,1.11-0.13,1.64-0.39l0.31-0.16
			c1.81-0.91,2.54-3.11,1.63-4.91C978,680.01,976.71,679.27,975.37,679.27z"/>
		<path class="st5" d="M931.5,697.41c-0.38,0-0.77,0.06-1.15,0.18c-0.11,0.04-0.22,0.07-0.32,0.11c-1.92,0.63-2.96,2.7-2.33,4.62
			c0.51,1.54,1.94,2.52,3.47,2.52c0.38,0,0.76-0.06,1.14-0.18l0.33-0.11c1.92-0.63,2.96-2.7,2.33-4.62
			C934.47,698.39,933.04,697.41,931.5,697.41z"/>
		<path class="st5" d="M1147.09,462.54c-0.28-0.06-0.56-0.1-0.83-0.1c-1.66,0-3.16,1.14-3.56,2.82c-0.01,0.06-0.02,0.11-0.04,0.17
			c0,0.01,0,0.01-0.01,0.02c-0.01,0.06-0.03,0.11-0.04,0.17c-0.45,1.96,0.77,3.92,2.74,4.38c0.28,0.07,0.56,0.1,0.83,0.1
			c1.66,0,3.17-1.14,3.56-2.83l0.08-0.34C1150.28,464.97,1149.06,463,1147.09,462.54z"/>
		<path class="st5" d="M1143.3,477.92c-0.33-0.1-0.67-0.14-1-0.14c-1.59,0-3.06,1.05-3.52,2.66c-0.03,0.09-0.05,0.19-0.08,0.28
			c-0.01,0.02-0.01,0.03-0.02,0.05c-0.55,1.94,0.58,3.96,2.52,4.52c0.34,0.1,0.67,0.14,1.01,0.14c1.59,0,3.06-1.05,3.52-2.66
			l0.1-0.34C1146.37,480.5,1145.25,478.48,1143.3,477.92z"/>
		<path class="st5" d="M1150.11,446.99c-0.22-0.04-0.44-0.06-0.66-0.06c-1.73,0-3.27,1.23-3.6,3c-0.01,0.05-0.02,0.11-0.03,0.16
			c0,0.02-0.01,0.04-0.01,0.07c-0.01,0.04-0.02,0.09-0.02,0.13c-0.35,1.98,0.97,3.88,2.95,4.24c0.22,0.04,0.44,0.06,0.66,0.06
			c1.73,0,3.27-1.24,3.59-3l0.06-0.34C1153.42,449.26,1152.1,447.35,1150.11,446.99z"/>
		<path class="st5" d="M1154.61,399.73c-0.04,0-0.08,0-0.12,0c-1.96,0-3.59,1.56-3.66,3.54c0,0.09-0.01,0.19-0.01,0.28
			c0,0.02,0,0.03,0,0.05c0,0,0,0.01,0,0.01c-0.07,2.02,1.51,3.71,3.53,3.78c0.04,0,0.09,0,0.13,0c1.96,0,3.59-1.56,3.65-3.53
			l0.01-0.35C1158.21,401.49,1156.63,399.8,1154.61,399.73z"/>
		<path class="st5" d="M1152.38,431.32c-0.16-0.02-0.32-0.03-0.48-0.03c-1.81,0-3.38,1.34-3.62,3.18c-0.01,0.04-0.01,0.09-0.02,0.13
			c-0.01,0.07-0.02,0.14-0.03,0.22c-0.26,2,1.15,3.84,3.15,4.11c0.16,0.02,0.32,0.03,0.48,0.03c1.81,0,3.38-1.34,3.62-3.18
			l0.05-0.35C1155.79,433.42,1154.38,431.58,1152.38,431.32z"/>
		<path class="st5" d="M1138.77,493.1c-0.39-0.13-0.78-0.19-1.17-0.19c-1.52,0-2.94,0.96-3.46,2.48c-0.02,0.05-0.04,0.11-0.05,0.16
			c-0.02,0.06-0.04,0.12-0.06,0.17c-0.65,1.91,0.38,3.99,2.29,4.64c0.39,0.13,0.79,0.2,1.18,0.2c1.52,0,2.95-0.96,3.46-2.48
			l0.11-0.33C1141.71,495.82,1140.68,493.75,1138.77,493.1z"/>
		<path class="st5" d="M1153.88,415.55c-0.1-0.01-0.2-0.01-0.3-0.01c-1.89,0-3.49,1.45-3.65,3.36c-0.01,0.1-0.02,0.2-0.03,0.3
			l0,0.01c0,0.01,0,0.02,0,0.02c-0.17,2.01,1.33,3.78,3.35,3.95c0.1,0.01,0.21,0.01,0.31,0.01c1.88,0,3.48-1.45,3.64-3.36l0.03-0.35
			C1157.39,417.48,1155.89,415.72,1153.88,415.55z"/>
		<path class="st5" d="M1120.78,537.04c-0.53-0.27-1.1-0.4-1.67-0.4c-1.33,0-2.61,0.73-3.26,1.99c-0.02,0.03-0.04,0.07-0.05,0.1
			c-0.04,0.07-0.07,0.14-0.11,0.21c-0.91,1.8-0.2,3.99,1.59,4.91c0.53,0.27,1.11,0.4,1.67,0.4c1.33,0,2.61-0.73,3.26-1.99l0.16-0.31
			C1123.29,540.16,1122.58,537.96,1120.78,537.04z"/>
		<path class="st5" d="M1127.49,522.69c-0.49-0.22-1-0.33-1.51-0.33c-1.39,0-2.73,0.8-3.34,2.15c-0.04,0.09-0.08,0.18-0.12,0.27
			c0,0.01-0.01,0.03-0.02,0.04c-0.83,1.84-0.02,4.01,1.82,4.84c0.49,0.22,1,0.33,1.51,0.33c1.39,0,2.72-0.8,3.33-2.15l0.14-0.32
			C1130.15,525.69,1129.33,523.52,1127.49,522.69z"/>
		<path class="st5" d="M1133.49,508.03c-0.44-0.17-0.89-0.26-1.34-0.26c-1.46,0-2.83,0.87-3.4,2.31c-0.01,0.02-0.02,0.05-0.03,0.07
			c0,0.01,0,0.01-0.01,0.02c0,0.01-0.01,0.02-0.01,0.03c-0.02,0.06-0.05,0.12-0.07,0.18c0,0.01-0.01,0.03-0.02,0.04
			c-0.74,1.88,0.18,4.01,2.06,4.75c0.44,0.17,0.9,0.26,1.34,0.26c1.46,0,2.84-0.88,3.4-2.32l0.13-0.32
			C1136.3,510.9,1135.37,508.77,1133.49,508.03z"/>
		<path class="st5" d="M1026.49,646.37c-0.05,0.04-0.1,0.07-0.14,0.11c-1.6,1.24-1.89,3.54-0.65,5.14c0.72,0.93,1.8,1.42,2.89,1.42
			c0.78,0,1.57-0.25,2.24-0.77l0.28-0.21c1.6-1.24,1.89-3.54,0.65-5.13c-0.72-0.93-1.8-1.42-2.89-1.42c-0.78,0-1.57,0.25-2.23,0.76
			c-0.03,0.02-0.07,0.05-0.1,0.08c0,0,0,0,0,0C1026.51,646.35,1026.5,646.36,1026.49,646.37z"/>
		<path class="st5" d="M1113.38,551.04c-0.58-0.33-1.2-0.49-1.82-0.49c-1.27,0-2.5,0.66-3.18,1.83c-0.01,0.02-0.02,0.04-0.04,0.06
			c-0.05,0.08-0.09,0.16-0.14,0.24c-1,1.75-0.4,3.98,1.35,4.99c0.58,0.33,1.2,0.49,1.82,0.49c1.27,0,2.5-0.66,3.17-1.83l0.17-0.3
			C1115.73,554.28,1115.13,552.05,1113.38,551.04z"/>
		<path class="st5" d="M510.13,357.29c0.22-2.01-1.24-3.82-3.25-4.03c-0.13-0.01-0.27-0.02-0.4-0.02c-1.84,0-3.43,1.39-3.63,3.27
			l-0.04,0.35c-0.22,2.01,1.24,3.81,3.25,4.03c0.13,0.01,0.26,0.02,0.39,0.02c1.84,0,3.43-1.39,3.63-3.26
			c0.01-0.06,0.01-0.11,0.02-0.17c0-0.01,0-0.02,0-0.03c0-0.01,0-0.01,0-0.02C510.13,357.38,510.13,357.34,510.13,357.29z"/>
		<path class="st5" d="M1144.1,325.68c0.01,0.04,0.01,0.07,0.02,0.11c0.37,1.72,1.89,2.89,3.58,2.89c0.25,0,0.5-0.03,0.76-0.08
			c1.98-0.42,3.24-2.36,2.83-4.33l-0.07-0.34c-0.36-1.72-1.88-2.9-3.57-2.9c-0.25,0-0.51,0.03-0.76,0.08
			c-1.98,0.42-3.24,2.36-2.83,4.34c0,0.02,0,0.02,0.01,0.04c0.01,0.03,0.01,0.06,0.02,0.09c0,0.01,0,0.02,0.01,0.03
			C1144.08,325.63,1144.09,325.65,1144.1,325.68z"/>
		<path class="st5" d="M615.11,153c1.5-1.35,1.63-3.66,0.28-5.17c-0.72-0.81-1.72-1.22-2.72-1.22c-0.87,0-1.74,0.31-2.44,0.94
			l-0.26,0.23c-1.5,1.35-1.63,3.66-0.28,5.17c0.72,0.8,1.72,1.21,2.72,1.21c0.87,0,1.75-0.31,2.45-0.94
			c0.04-0.03,0.07-0.07,0.11-0.1c0,0,0,0,0,0C615.02,153.09,615.07,153.04,615.11,153z"/>
		<path class="st5" d="M1105.3,564.66c-0.61-0.39-1.3-0.58-1.98-0.58c-1.2,0-2.38,0.59-3.08,1.68c-0.01,0.02-0.03,0.04-0.04,0.06
			c-0.01,0.01-0.01,0.02-0.02,0.03c-0.04,0.07-0.08,0.13-0.13,0.2c-1.09,1.7-0.6,3.97,1.1,5.06c0.61,0.39,1.3,0.58,1.98,0.58
			c1.2,0,2.38-0.59,3.08-1.68l0.19-0.29C1107.49,568.02,1107,565.75,1105.3,564.66z"/>
		<path class="st5" d="M609.8,626.75c-0.08-0.07-0.15-0.14-0.23-0.21c-0.71-0.66-1.61-0.99-2.51-0.99c-0.98,0-1.95,0.39-2.67,1.15
			c-1.38,1.47-1.31,3.79,0.16,5.17l0.25,0.24c0.71,0.66,1.61,0.99,2.5,0.99c0.98,0,1.95-0.39,2.67-1.16
			c1.38-1.47,1.31-3.79-0.16-5.17C609.81,626.77,609.8,626.76,609.8,626.75z"/>
		<path class="st5" d="M598.64,615.76c-0.08-0.08-0.15-0.15-0.22-0.23c-0.72-0.74-1.67-1.11-2.62-1.11c-0.92,0-1.83,0.34-2.54,1.03
			c-1.45,1.4-1.49,3.72-0.09,5.17l0.24,0.25c0.72,0.74,1.67,1.12,2.63,1.12c0.92,0,1.83-0.34,2.54-1.03
			c1.45-1.41,1.49-3.72,0.09-5.18C598.65,615.78,598.64,615.77,598.64,615.76z"/>
		<path class="st5" d="M587.82,604.02c-0.72-0.83-1.74-1.25-2.75-1.25c-0.86,0-1.72,0.3-2.41,0.91c-1.52,1.33-1.67,3.64-0.34,5.16
			l0.23,0.26c0.72,0.82,1.73,1.25,2.75,1.25c0.86,0,1.72-0.3,2.41-0.91c1.52-1.33,1.67-3.65,0.34-5.17
			C587.97,604.19,587.89,604.1,587.82,604.02z"/>
		<path class="st5" d="M885.44,708.92c-0.21,0-0.42,0.02-0.63,0.05c-0.05,0.01-0.1,0.02-0.14,0.02l-0.02,0c0,0-0.01,0-0.01,0
			c-0.05,0.01-0.12,0.02-0.17,0.03c-1.98,0.35-3.31,2.24-2.97,4.23c0.31,1.78,1.85,3.04,3.6,3.04c0.21,0,0.42-0.02,0.63-0.05
			l0.34-0.06c1.99-0.34,3.33-2.24,2.98-4.23C888.74,710.18,887.19,708.92,885.44,708.92z"/>
		<path class="st5" d="M646.3,656.31c-0.02-0.01-0.03-0.02-0.05-0.03c-0.05-0.04-0.1-0.07-0.15-0.11c-0.03-0.02-0.07-0.05-0.1-0.07
			c-0.63-0.44-1.36-0.65-2.07-0.65c-1.16,0-2.3,0.55-3.01,1.57c-1.16,1.66-0.75,3.94,0.91,5.09l0.29,0.2
			c0.64,0.44,1.37,0.66,2.09,0.66c1.16,0,2.29-0.55,3.01-1.57C648.36,659.75,647.95,657.47,646.3,656.31z"/>
		<path class="st5" d="M577.96,592.21c-0.06-0.07-0.12-0.16-0.18-0.23c-0.72-0.9-1.79-1.37-2.86-1.37c-0.8,0-1.6,0.26-2.27,0.79
			c-1.58,1.26-1.85,3.56-0.59,5.14l0.22,0.27c0.72,0.91,1.79,1.38,2.87,1.38c0.8,0,1.6-0.26,2.28-0.8c1.58-1.26,1.84-3.56,0.59-5.14
			C577.99,592.24,577.97,592.22,577.96,592.21z"/>
		<path class="st5" d="M633.66,647.06c-0.03-0.03-0.07-0.05-0.1-0.08c-0.06-0.05-0.12-0.09-0.18-0.14
			c-0.66-0.51-1.45-0.75-2.22-0.75c-1.1,0-2.18,0.49-2.9,1.42c-1.24,1.6-0.94,3.9,0.66,5.13l0.28,0.21
			c0.67,0.51,1.45,0.76,2.23,0.76c1.1,0,2.18-0.49,2.9-1.43C635.56,650.59,635.26,648.29,633.66,647.06z"/>
		<path class="st5" d="M551.49,553.43c-0.01-0.01-0.01-0.02-0.02-0.04c-0.04-0.07-0.08-0.14-0.12-0.21
			c-0.68-1.16-1.9-1.81-3.16-1.81c-0.62,0-1.25,0.16-1.83,0.49c-1.75,1.01-2.34,3.25-1.33,5l0.17,0.3c0.68,1.17,1.91,1.82,3.17,1.82
			c0.62,0,1.26-0.16,1.83-0.5c1.75-1.01,2.34-3.25,1.33-5C551.52,553.48,551.5,553.45,551.49,553.43z"/>
		<path class="st5" d="M530.99,511.29c-0.03-0.06-0.05-0.13-0.08-0.19c-0.02-0.05-0.04-0.09-0.06-0.14
			c-0.57-1.43-1.95-2.29-3.4-2.29c-0.45,0-0.91,0.08-1.35,0.26c-1.88,0.75-2.79,2.87-2.05,4.75l0.13,0.32
			c0.57,1.43,1.95,2.31,3.4,2.31c0.45,0,0.91-0.08,1.35-0.26C530.82,515.3,531.74,513.17,530.99,511.29z"/>
		<path class="st5" d="M525.55,496.61c-0.03-0.09-0.06-0.19-0.1-0.28c0-0.01-0.01-0.04-0.02-0.05c-0.52-1.52-1.94-2.47-3.46-2.47
			c-0.39,0-0.79,0.06-1.18,0.2c-1.91,0.65-2.93,2.73-2.28,4.65l0.11,0.33c0.52,1.52,1.94,2.47,3.46,2.47c0.39,0,0.79-0.06,1.19-0.2
			C525.18,500.6,526.2,498.52,525.55,496.61z"/>
		<path class="st5" d="M537.15,525.7c-0.04-0.09-0.07-0.16-0.12-0.25c-0.01-0.02-0.02-0.05-0.03-0.07
			c-0.61-1.35-1.94-2.14-3.33-2.14c-0.51,0-1.02,0.11-1.52,0.33c-1.84,0.84-2.65,3.01-1.81,4.85l0.14,0.32
			c0.61,1.35,1.94,2.14,3.33,2.14c0.51,0,1.02-0.11,1.52-0.33C537.17,529.7,537.98,527.54,537.15,525.7z"/>
		<path class="st5" d="M559.59,566.64c-0.02-0.03-0.03-0.05-0.05-0.08c-0.7-1.08-1.88-1.67-3.08-1.67c-0.68,0-1.37,0.19-1.98,0.59
			c-1.7,1.1-2.18,3.36-1.08,5.06l0.19,0.29c0.7,1.08,1.87,1.67,3.07,1.67c0.68,0,1.37-0.19,1.99-0.59c1.69-1.1,2.18-3.36,1.09-5.05
			C559.68,566.78,559.64,566.71,559.59,566.64z"/>
		<path class="st5" d="M543.86,539.5c0-0.01-0.01-0.03-0.02-0.04c-0.65-1.26-1.93-1.98-3.26-1.98c-0.57,0-1.14,0.13-1.68,0.41
			c-1.8,0.93-2.5,3.13-1.57,4.93l0.16,0.31c0.65,1.26,1.93,1.98,3.25,1.98c0.57,0,1.14-0.13,1.68-0.41c1.8-0.93,2.5-3.14,1.57-4.93
			C543.95,539.68,543.9,539.59,543.86,539.5z"/>
		<path class="st5" d="M568.52,579.73c-0.06-0.08-0.11-0.16-0.17-0.24c-0.72-1-1.84-1.53-2.98-1.53c-0.74,0-1.49,0.22-2.13,0.69
			c-1.64,1.18-2.02,3.46-0.84,5.11l0.2,0.28c0.71,0.99,1.84,1.52,2.97,1.52c0.74,0,1.49-0.22,2.13-0.69
			c1.64-1.18,2.01-3.46,0.84-5.1C568.54,579.76,568.53,579.75,568.52,579.73z"/>
		<path class="st5" d="M659.38,664.95c-0.04-0.03-0.1-0.06-0.14-0.09c-0.05-0.03-0.11-0.07-0.16-0.1c-0.6-0.38-1.28-0.56-1.94-0.56
			c-1.22,0-2.41,0.61-3.11,1.72c-1.07,1.71-0.56,3.97,1.16,5.04l0.3,0.18c0.6,0.38,1.28,0.56,1.94,0.56c1.22,0,2.41-0.61,3.1-1.72
			C661.59,668.27,661.08,666.02,659.38,664.95z"/>
		<path class="st5" d="M621.5,637.21c-0.02-0.01-0.04-0.03-0.05-0.04c-0.07-0.06-0.14-0.12-0.22-0.18
			c-0.69-0.59-1.53-0.87-2.37-0.87c-1.04,0-2.06,0.44-2.79,1.29c-1.31,1.54-1.13,3.85,0.41,5.16l0.27,0.23
			c0.69,0.59,1.53,0.87,2.37,0.87c1.04,0,2.06-0.44,2.79-1.29C623.22,640.83,623.03,638.52,621.5,637.21z"/>
		<path class="st5" d="M791.21,711.42c-0.06-0.01-0.12-0.01-0.18-0.02c-0.05-0.01-0.11-0.01-0.17-0.02
			c-0.14-0.02-0.29-0.03-0.43-0.03c-1.83,0-3.41,1.37-3.63,3.22c-0.24,2.01,1.19,3.83,3.2,4.07l0.35,0.04
			c0.15,0.02,0.29,0.03,0.44,0.03c1.83,0,3.41-1.37,3.63-3.23C794.65,713.49,793.22,711.66,791.21,711.42z"/>
		<path class="st5" d="M760.34,706.21c-0.11-0.02-0.22-0.05-0.33-0.07c-0.27-0.06-0.53-0.09-0.79-0.09c-1.68,0-3.19,1.16-3.57,2.87
			c-0.44,1.97,0.81,3.93,2.78,4.36l0.34,0.07c0.27,0.06,0.53,0.09,0.79,0.09c1.68,0,3.19-1.16,3.57-2.87
			C763.56,708.6,762.31,706.64,760.34,706.21z"/>
		<path class="st5" d="M822.44,713.62c-0.11,0-0.23-0.01-0.34-0.01c-0.03,0-0.06,0-0.08,0c-1.98,0-3.61,1.58-3.66,3.58
			c-0.05,2.02,1.55,3.7,3.57,3.74l0.35,0.01c0.03,0,0.06,0,0.08,0c1.98,0,3.61-1.58,3.66-3.58
			C826.06,715.34,824.46,713.66,822.44,713.62z"/>
		<path class="st5" d="M775.71,709.19c-0.02,0-0.04-0.01-0.06-0.01c-0.05-0.01-0.1-0.02-0.15-0.03c-0.04-0.01-0.08-0.01-0.12-0.02
			c-0.21-0.03-0.41-0.05-0.62-0.05c-1.75,0-3.3,1.26-3.61,3.05c-0.34,1.99,1,3.88,2.99,4.22l0.34,0.06
			c0.21,0.04,0.41,0.05,0.62,0.05c1.75,0,3.3-1.26,3.6-3.05C779.05,711.42,777.7,709.53,775.71,709.19z"/>
		<path class="st5" d="M806.8,712.9c-0.09-0.01-0.19-0.01-0.28-0.02c-0.02,0-0.04,0-0.06,0c-0.09-0.01-0.17-0.01-0.26-0.01
			c-1.9,0-3.51,1.47-3.65,3.4c-0.14,2.02,1.37,3.77,3.39,3.91l0.35,0.02c0.09,0.01,0.18,0.01,0.26,0.01c1.9,0,3.51-1.47,3.64-3.4
			C810.33,714.79,808.82,713.04,806.8,712.9z"/>
		<path class="st5" d="M869.78,711.24c-0.15,0-0.3,0.01-0.45,0.03c-0.11,0.01-0.22,0.03-0.34,0.04c-2.01,0.25-3.43,2.07-3.19,4.08
			c0.23,1.86,1.8,3.21,3.63,3.21c0.15,0,0.3-0.01,0.45-0.03l0.34-0.04c2.01-0.25,3.43-2.07,3.19-4.08
			C873.18,712.6,871.6,711.24,869.78,711.24z"/>
		<path class="st5" d="M838.2,713.57c-0.03,0-0.06-0.02-0.09-0.02c0,0,0,0,0,0c-0.11,0-0.24,0.02-0.35,0.03
			c-2.01,0.06-3.6,1.74-3.55,3.76c0.05,1.99,1.68,3.57,3.65,3.57c0.03,0,0.06,0,0.09,0l0.35-0.01c2.02-0.05,3.62-1.74,3.56-3.76
			C841.81,715.16,840.18,713.57,838.2,713.57z"/>
		<path class="st5" d="M854.01,712.8c-0.09,0-0.17,0-0.26,0.01c-0.11,0.01-0.22,0.02-0.33,0.02c-0.01,0-0.01,0-0.02,0
			c-2.02,0.15-3.53,1.9-3.38,3.92c0.14,1.92,1.75,3.39,3.64,3.39c0.09,0,0.18,0,0.27-0.01l0.35-0.03c2.02-0.15,3.53-1.9,3.38-3.92
			C857.52,714.26,855.91,712.8,854.01,712.8z"/>
		<path class="st5" d="M730.14,698c-0.1-0.03-0.22-0.07-0.32-0.1c0,0-0.01,0-0.01,0c-0.38-0.12-0.76-0.18-1.13-0.18
			c-1.54,0-2.98,0.98-3.48,2.53c-0.63,1.92,0.42,3.99,2.34,4.61l0.33,0.11c0.38,0.12,0.76,0.18,1.13,0.18
			c1.54,0,2.97-0.98,3.48-2.53C733.1,700.69,732.05,698.63,730.14,698z"/>
		<path class="st5" d="M700.87,686.86c-0.05-0.02-0.09-0.04-0.14-0.06c-0.06-0.02-0.12-0.05-0.17-0.08
			c-0.48-0.21-0.97-0.31-1.46-0.31c-1.41,0-2.75,0.82-3.35,2.19c-0.81,1.85,0.03,4.01,1.88,4.82l0.32,0.14
			c0.48,0.21,0.98,0.31,1.47,0.31c1.41,0,2.75-0.82,3.35-2.19C703.56,689.83,702.72,687.68,700.87,686.86z"/>
		<path class="st5" d="M672.83,672.92c-0.07-0.04-0.14-0.08-0.2-0.11c-0.04-0.02-0.07-0.04-0.1-0.06c-0.56-0.31-1.17-0.46-1.78-0.46
			c-1.28,0-2.52,0.67-3.2,1.87c-0.99,1.76-0.36,3.99,1.4,4.98l0.3,0.17c0.57,0.32,1.18,0.47,1.79,0.47c1.28,0,2.52-0.67,3.19-1.87
			C675.23,676.14,674.6,673.91,672.83,672.92z"/>
		<path class="st5" d="M715.37,692.8c-0.03-0.01-0.06-0.02-0.09-0.03c0,0-0.01,0-0.01,0c-0.09-0.03-0.16-0.06-0.24-0.09
			c-0.42-0.16-0.86-0.24-1.29-0.24c-1.47,0-2.86,0.9-3.42,2.36c-0.72,1.89,0.23,4,2.11,4.72l0.33,0.12c0.43,0.16,0.87,0.24,1.3,0.24
			c1.47,0,2.86-0.9,3.42-2.36C718.2,695.63,717.25,693.52,715.37,692.8z"/>
		<path class="st5" d="M745.13,702.47c-0.07-0.02-0.14-0.04-0.2-0.06c-0.04-0.01-0.09-0.02-0.13-0.04
			c-0.32-0.09-0.64-0.13-0.96-0.13c-1.61,0-3.09,1.07-3.53,2.7c-0.53,1.95,0.62,3.96,2.57,4.49l0.34,0.09
			c0.32,0.09,0.65,0.13,0.96,0.13c1.61,0,3.08-1.07,3.53-2.7C748.23,705.02,747.08,703.01,745.13,702.47z"/>
		<path class="st5" d="M686.68,680.23c-0.1-0.05-0.2-0.1-0.3-0.15c-0.52-0.26-1.08-0.38-1.63-0.38c-1.34,0-2.64,0.74-3.28,2.03
			c-0.9,1.81-0.17,4.01,1.64,4.91l0.31,0.16c0.52,0.26,1.08,0.38,1.63,0.38c1.34,0,2.64-0.74,3.28-2.03
			C689.23,683.33,688.49,681.14,686.68,680.23z"/>
		<path class="st5" d="M1026.53,646.34C1026.53,646.34,1026.53,646.34,1026.53,646.34C1026.53,646.34,1026.53,646.34,1026.53,646.34
			z"/>
		<path class="st5" d="M1144.07,325.57c0,0.01,0,0.02,0.01,0.03C1144.08,325.59,1144.07,325.58,1144.07,325.57z"/>
		<path class="st5" d="M510.12,357.44c0-0.01,0-0.01,0-0.02C510.12,357.43,510.12,357.44,510.12,357.44z"/>
		<path class="st5" d="M1128.72,510.17c0-0.01,0-0.01,0.01-0.02C1128.72,510.16,1128.72,510.16,1128.72,510.17z"/>
		<path class="st5" d="M614.97,153.13C614.97,153.13,614.97,153.13,614.97,153.13C614.97,153.13,614.97,153.13,614.97,153.13z"/>
	</g>
	<path class="st15" d="M1023.7,798h-76.07l-19.96-55.13l-1.6-4.42l-9.05,58.95c0,0.2,0,0.4,0,0.6H723.41l-8.77-59.84
		c-0.03-0.01-0.07-0.01-0.1-0.02L692.86,798h-76.07l50.52-147.63c0.32-0.88,0.69-1.75,1.09-2.58c9.48-25.52,33.71-44.04,62.19-45.04
		c0.81-0.03,1.62-0.04,2.43-0.04l6.44,3.05l6.78,3.2l6.78,3.21l6.39,3.02l17.16,10.25c12.24,2.19,30.16,24.05,42.55,24.07
		c12.72,0.02,37.74-24.11,50.31-26.38l13.33-8.74l0.24-0.16l3.74-1.76l13.31-6.27l7.42-3.49c0.06,0,0.13,0,0.19,0
		c29.44,0.08,54.69,18.9,64.42,45.08c0.41,0.82,0.78,1.7,1.09,2.58l14.69,42.92L1023.7,798z"/>
	<polygon class="st16" points="801.95,591.77 751.74,591.77 764.84,614.15 823.55,672.25 896.71,595.64 	"/>
	<path class="st16" d="M859.95,519.51l-65.76-0.05c0,0,21.57,63.51-57.81,75.86l93.2,15.69l91.58-15.73
		C851.84,590.89,859.95,519.51,859.95,519.51z"/>
	<ellipse class="st17" cx="826.23" cy="409.99" rx="92.89" ry="118.93"/>
	<path class="st16" d="M825.6,289.07l0.4,239.85c-51.32,0.02-93.32-52.86-93.32-119.4S774.28,289.05,825.6,289.07z"/>
	<path class="st18" d="M805.63,412c0,0-9.69,12.03-21.67,12.03c-11.95,0-21.65-12.03-21.65-12.03s9.7-12.04,21.65-12.04
		C795.95,399.97,805.63,412,805.63,412z"/>
	<path class="st19" d="M792.19,412c0,4.54-3.68,8.21-8.22,8.21c-4.54,0-8.21-3.67-8.21-8.21c0-4.54,3.68-8.22,8.21-8.22
		C788.52,403.78,792.19,407.46,792.19,412z"/>
	<path class="st20" d="M786.13,424.43c7.93-0.96,13.38-6.16,17.47-9.2c-3.94,3.42-9.24,8.85-17.14,9.81
		c-7.66,0.93-14.48-2.69-20.88-4.71C771.78,421.98,778.48,425.36,786.13,424.43z"/>
	<path class="st20" d="M755.33,399.85c2.84,0.36,5.97,0.66,9.52,0.03c3.55-0.62,6.26-1.98,6.26-1.98l-0.02,0.02
		c2.4-1.37,5.28-2.4,8.54-2.91c11.44-1.79,23.06,11.01,25.32,15.38c-0.02-0.05-3.85-5.71-8.57-8.22c-4.85-2.58-9.6-4.08-15.36-3.18
		c-11.28,1.76-18.85,10.34-21.33,14.57c0.4-1.48,3.75-7.04,5.27-9.77c-0.64,0.2-3.9,1.09-7.44-0.3c-3.95-1.56-6.31-4.31-6.31-4.31
		S752.49,399.49,755.33,399.85z"/>
	<path class="st18" d="M850.61,412c0,0,9.69,12.03,21.67,12.03c11.95,0,21.65-12.03,21.65-12.03s-9.7-12.04-21.65-12.04
		C860.3,399.97,850.61,412,850.61,412z"/>
	<path class="st19" d="M864.05,412c0,4.54,3.68,8.21,8.22,8.21c4.54,0,8.21-3.67,8.21-8.21c0-4.54-3.68-8.22-8.21-8.22
		C867.73,403.78,864.05,407.46,864.05,412z"/>
	<path class="st20" d="M870.11,424.43c-7.93-0.96-13.38-6.16-17.47-9.2c3.94,3.42,9.24,8.85,17.14,9.81
		c7.66,0.93,14.48-2.69,20.88-4.71C884.47,421.98,877.77,425.36,870.11,424.43z"/>
	<path class="st20" d="M900.91,399.85c-2.84,0.36-5.97,0.66-9.52,0.03c-3.55-0.62-6.26-1.98-6.26-1.98l0.02,0.02
		c-2.4-1.37-5.28-2.4-8.54-2.91c-11.44-1.79-23.06,11.01-25.32,15.38c0.02-0.05,3.85-5.71,8.57-8.22c4.85-2.58,9.6-4.08,15.36-3.18
		c11.28,1.76,18.85,10.34,21.33,14.57c-0.4-1.48-3.75-7.04-5.27-9.77c0.64,0.2,3.9,1.09,7.44-0.3c3.95-1.56,6.31-4.31,6.31-4.31
		S903.75,399.49,900.91,399.85z"/>
	<g>
		<path class="st5" d="M825.44,508.72c10.3-0.12,22.89-8.7,27.52-24.54h-54.77C802.95,499.57,815.63,508.61,825.44,508.72z"/>
		<path class="st21" d="M855.08,482.34c-0.19-0.25-0.48-0.39-0.8-0.39h-57.42c-0.31,0-0.61,0.15-0.8,0.39
			c-0.19,0.25-0.25,0.57-0.17,0.87c4.7,17.57,18.72,27.17,29.55,27.3c11.36-0.13,25.25-9.55,29.81-27.3
			C855.33,482.91,855.27,482.59,855.08,482.34z M825.44,508.5c-9.81-0.11-22.49-8.73-27.25-24.54h54.77
			C848.34,499.93,835.75,508.39,825.44,508.5z"/>
		<g>
			<path class="st22" d="M851,489.33h-50.77c2.34,6.09,7.65,11.15,11.39,14.2h28.03C844.19,500.46,848.44,495.37,851,489.33z"/>
		</g>
	</g>
	<path class="st23" d="M796.57,531.85l79.75,44c0,0-18.95-18.05-16.48-55.06c0,0-31.61,17.31-64.88,1.39
		C794.96,522.19,796.32,527.86,796.57,531.85z"/>
	<g>
		<path class="st24" d="M612.01,144.62c-8.88,96.35,65.38,131.62,65.38,131.62c13.13,6.82,27.73,10.21,42.4,11.39L635.42,84.11
			C611.37,116.75,612.01,144.62,612.01,144.62z"/>
		<path class="st24" d="M941.25,289.03H720.93C698.7,332.46,698.54,386,698.54,386c3.24,54.28,34.83,103.96,34.83,103.96
			c19.17,17.82,10.26,78.58,10.26,78.58c18.63-22.14,6.5-87.72,3.46-95.97c-1.85-5-10.4-44.52-12.83-76.65s25.49-36.45,25.49-36.45
			c38.35-3.78,107.42-37.21,107.42-37.21c46.99,7.29,52.56,83.04,52.56,83.04c0.8,7.36-1.96,48.56-22.75,81.23
			c-20.79,32.67,31.36,86.6,31.36,86.6c-22.14-24.57-17.01-65.35-17.01-65.35c2.7-11.61,0.27-17.55,30.24-84.25
			c29.97-66.7,16.74-94.78,16.74-94.78C953.72,312.87,947.72,299.77,941.25,289.03z"/>
	</g>
	<path class="st25" d="M929.79,380.62c-14.6-7.41-43.8-5.7-43.8-5.7c-23.71-1.01-51.03,10.24-51.03,10.24h-5.88l-6.5-0.07
		c0,0-27.32-11.26-51.03-10.25c0,0-29.2-1.73-43.8,5.68c0,0-1.88,5.75,0.58,17.17c0,0,1.34,1.85,3.18,10.99
		c0,0,2.46,20.53,15.61,29.35c0,0,20.53,17.06,51.61,3.18c0,0,13.15-7.23,19.08-23.85c5.93-16.62,5.93-16.62,5.93-16.62
		s1.6-0.51,3.19-0.46c0.53,0.02,2.34,0.06,2.8,0.03c1.85-0.11,4.07,0.54,4.07,0.54s0,0,5.93,16.62
		c5.93,16.62,19.08,23.85,19.08,23.85c31.08,13.88,51.61-3.18,51.61-3.18c13.16-8.82,15.61-29.34,15.61-29.34
		c1.84-9.13,3.18-10.99,3.18-10.99C931.67,386.37,929.79,380.62,929.79,380.62z M811.02,420.95c-8.1,18.94-25.29,20.96-25.29,20.96
		c-8.45,1.21-15.44,0.83-21.18-0.4l-0.02-0.01c-2.38-0.51-4.53-1.17-6.49-1.92c-2.67-1.03-4.96-2.24-6.92-3.49
		c-0.75-0.49-1.46-0.98-2.11-1.47c-5.27-3.95-7.38-7.89-7.38-7.89c-9.54-15.61-5.2-37.74-5.2-37.74c5.94-7.36,34.43-6.29,47.75-5.34
		c1.48,0.1,2.77,0.2,3.82,0.29c1.1,0.1,1.95,0.18,2.47,0.22c0.4,0.04,0.61,0.06,0.61,0.06c2.76,0.18,5.29,0.58,7.58,1.12
		c11.02,2.57,16.56,8.27,16.56,8.27C819.83,403.61,811.02,420.95,811.02,420.95z M915.91,426.84c0,0-9.5,17.72-38.54,15.76
		c-1.78-0.11-3.63-0.3-5.55-0.58c0,0-5.03-0.59-10.92-4.12c-0.92-0.55-1.86-1.17-2.8-1.87c-0.83-0.62-1.67-1.3-2.49-2.04
		c-1.2-1.08-2.39-2.31-3.54-3.7c-2.07-2.51-3.98-5.55-5.55-9.22c0,0-0.63-1.23-1.45-3.21l-0.12-0.3c-2.3-5.59-5.96-16.63-2.62-23.83
		c0,0,8.07-8.34,24.14-9.42c0,0,1.67-0.18,4.42-0.44h0.02c2.98-0.26,7.25-0.48,12.06-0.66l0.22,0.04l3.24-0.09
		c0.74-0.02,1.49-0.03,2.25-0.04c4.76-0.06,9.74,0.04,14.36,0.42c8.28,0.69,15.42,2.3,18.07,5.58
		C921.12,389.11,925.45,411.23,915.91,426.84z"/>
	<path class="st26" d="M1027.82,798h-52.95l-31.2-78.69c-0.29-0.36-0.53-0.75-0.68-1.18c-2.05-5.74,9.22-15,25.17-20.68
		c8.97-3.2,17.5-4.58,23.62-4.16c4.76,0.33,8.06,1.74,8.95,4.26c0.2,0.56,0.24,1.17,0.2,1.79L1027.82,798z"/>
	<path class="st26" d="M716.97,718.13c-0.15,0.43-0.39,0.81-0.68,1.18L685.09,798h-52.95l26.88-98.67c-0.04-0.62,0-1.23,0.2-1.79
		c2.04-5.74,16.63-5.78,32.58-0.09C707.75,703.14,719.02,712.4,716.97,718.13z"/>
	<path class="st8" d="M1036.18,802h-75.82l-26.14-72.22l-2.62,17.08l-6.43,41.87c0.02,2.53,0.05,5.07,0.11,7.61
		c0,0.48,0.02,0.93,0.05,1.41c0.03,1.42,0.07,2.83,0.12,4.24h-193c0.05-1.41,0.09-2.82,0.12-4.24c0.02-0.4,0.04-0.78,0.05-1.17
		l-9.83-67.1c-0.03-0.01-0.07-0.01-0.1-0.02L696.42,802H620.6l54.85-160.3c0.32-0.88,0.69-1.75,1.09-2.58
		c9.48-25.52,33.71-44.04,62.19-45.04c0.81-0.03,1.62-0.04,2.43-0.04l6.44,3.05l6.78,3.2l6.78,3.21l6.39,3.02l17.16,10.25
		c12.24,2.19,30.16,24.05,42.55,24.07c12.72,0.02,37.74-24.11,50.31-26.38l13.33-8.74l0.24-0.16l3.74-1.76l13.31-6.27l7.42-3.49
		c0.06,0,0.13,0,0.19,0c29.44,0.08,54.69,18.9,64.42,45.08c0.41,0.82,0.78,1.69,1.09,2.58L1036.18,802z"/>
	<path class="st27" d="M895.53,589.73l-15.73,9.87l-0.26,0.14l-52.99,33.13l-53.49-33.39l-14.7-9.48l-19.86-0.06l88.11,54.79
		l89.39-54.81L895.53,589.73z"/>
	<g>
		<path class="st28" d="M808.28,43.61l0.59,0.32c0.11,0.06,0.21,0.14,0.3,0.23l0.85,0.93c0.05,0.05,0.09,0.11,0.13,0.17l1.07,1.75
			c0.02,0.04,0.05,0.08,0.06,0.12l1.26,2.75l1.11,2.68c0.02,0.04,0.03,0.08,0.04,0.12l0.53,1.84c0.03,0.12,0.05,0.24,0.04,0.36
			l-0.04,0.93c-0.01,0.19-0.06,0.37-0.15,0.53l0,0c-0.13,0.22-0.33,0.39-0.57,0.49l-1.33,0.53c-0.02,0.01-0.05,0.02-0.07,0.03
			l-1.82,0.59c-0.29,0.09-0.54,0.3-0.67,0.58l-0.49,0.99c-0.07,0.14-0.11,0.3-0.12,0.46l-0.09,2.33c0,0.12,0.01,0.23,0.04,0.34
			l0.96,3.55c0.01,0.03,0.02,0.06,0.03,0.08l1.68,4.76c0.01,0.04,0.03,0.08,0.05,0.12l2.12,4.31c0.02,0.05,0.05,0.1,0.08,0.14
			l1.92,2.82c0.07,0.1,0.16,0.19,0.25,0.27l1.36,1.03c0.2,0.15,0.44,0.23,0.69,0.23l1.08,0c0.2,0,0.39-0.05,0.56-0.15l1.72-0.97
			c0.06-0.03,0.11-0.06,0.17-0.08l0.18-0.06c0.33-0.12,0.7-0.08,0.99,0.11l0.42,0.26c0.08,0.05,0.15,0.11,0.22,0.18l1.16,1.21
			c0.06,0.06,0.11,0.13,0.16,0.21l1.4,2.38c0.01,0.02,0.03,0.05,0.04,0.07l1.28,2.56c0.02,0.04,0.04,0.08,0.05,0.12l0.72,1.98
			c0.02,0.06,0.04,0.12,0.05,0.18l0.19,1.01c0.05,0.24,0.01,0.49-0.09,0.71l-0.14,0.29c-0.13,0.27-0.35,0.48-0.63,0.58l-2.35,0.88
			c-0.08,0.03-0.17,0.05-0.25,0.06l-3.34,0.5c-0.13,0.02-0.93,0.09-1.61,0.02l-0.97-0.18c-0.26-0.04-0.52-0.12-0.76-0.23
			c-0.21-0.09-0.46-0.19-1.03-0.57c-0.02-0.02-0.05-0.03-0.07-0.05l-1.7-1.34c-0.07-0.05-0.49-0.45-0.54-0.52l-3.12-3.7
			c-0.04-0.04-0.07-0.09-0.1-0.14l-3.35-5.53c-0.02-0.03-0.04-0.06-0.05-0.1l-2.97-6.16c-0.02-0.03-0.03-0.07-0.04-0.11l-2.08-5.74
			c-0.01-0.03-0.02-0.06-0.03-0.09l-1.4-5.11c-0.02-0.06-0.03-0.12-0.03-0.18l-0.5-4.68c-0.01-0.06-0.01-0.11-0.01-0.17l0.15-3.97
			c0-0.04,0-0.07,0.01-0.11l0.43-3.16c0.01-0.08,0.03-0.16,0.06-0.23l0.8-2.26c0.04-0.1,0.09-0.2,0.15-0.29l0.93-1.29
			c0.07-0.1,0.16-0.18,0.26-0.26l2.12-1.54c0.09-0.07,0.19-0.12,0.3-0.16L808.28,43.61L808.28,43.61z"/>
		<path class="st29" d="M811.59,41.8l0.68,0.2c0.07,0.02,0.14,0.06,0.2,0.1l0.83,0.66c0.06,0.05,0.11,0.11,0.15,0.18l0.72,1.34
			l1.02,1.86l1,1.81c0.02,0.03,0.03,0.06,0.04,0.09l0.63,1.87L817.5,52l0.46,1.78c0.02,0.06,0.02,0.12,0.02,0.18l-0.08,1.17
			c-0.01,0.17-0.1,0.33-0.24,0.43l-0.73,0.51c-0.08,0.05-0.16,0.09-0.26,0.1l-0.74,0.09c-0.22,0.03-0.43-0.07-0.55-0.26v0
			c-0.05-0.08-0.08-0.17-0.09-0.26l-0.07-0.72c0-0.03-0.01-0.05-0.01-0.08l-0.3-1.25l-0.41-1.49c0-0.02-0.01-0.03-0.02-0.05
			l-0.59-1.54l-0.59-1.55c0-0.01-0.01-0.02-0.01-0.03l-0.61-1.36c-0.01-0.02-0.02-0.03-0.02-0.05l-0.67-1.18
			c-0.01-0.01-0.01-0.03-0.02-0.04l-0.7-1.05c-0.01-0.02-0.02-0.03-0.03-0.05l-0.5-0.92c-0.03-0.06-0.07-0.11-0.12-0.15l-0.69-0.62
			c-0.05-0.04-0.09-0.09-0.12-0.15l-0.12-0.22c-0.1-0.19-0.09-0.42,0.03-0.6l0.02-0.03c0.05-0.07,0.12-0.13,0.19-0.18l0.66-0.37
			c0.04-0.02,0.08-0.04,0.13-0.05L811.59,41.8L811.59,41.8z"/>
		<path class="st29" d="M832.41,88.05l0.11-0.94c0-0.03,0-0.06,0-0.1l-0.05-0.94c0-0.05-0.01-0.1-0.03-0.15l-0.43-1.25
			c-0.01-0.02-0.01-0.04-0.02-0.06l-0.64-1.36l-0.85-1.8c-0.01-0.02-0.02-0.04-0.04-0.07l-1.04-1.63c-0.01-0.01-0.02-0.03-0.03-0.04
			l-1.33-1.74c-0.02-0.03-0.05-0.06-0.08-0.09l-1.41-1.2c-0.05-0.04-0.1-0.07-0.15-0.09l-1.11-0.46c-0.14-0.06-0.3-0.06-0.45,0.01
			l-0.84,0.37c-0.08,0.03-0.14,0.08-0.2,0.14l-0.41,0.46c-0.16,0.18-0.19,0.44-0.07,0.65l0.11,0.19c0.02,0.04,0.05,0.08,0.08,0.11
			l0.6,0.65l0.94,0.94c0.02,0.02,0.03,0.03,0.04,0.05l0.82,1.04c0.02,0.03,0.04,0.05,0.05,0.08l0.66,1.23l0.69,1.23l0.66,1.2
			c0.01,0.01,0.02,0.03,0.02,0.04l0.61,1.38c0.01,0.02,0.02,0.04,0.02,0.06l0.35,1.1l0.35,1.08c0.02,0.05,0.03,0.1,0.03,0.16
			l0.03,0.9c0,0.05,0.01,0.1,0.03,0.15l0,0.01c0.09,0.27,0.36,0.44,0.64,0.39l0.5-0.09c0.08-0.01,0.15-0.04,0.22-0.09l0.9-0.6
			c0.06-0.04,0.11-0.09,0.15-0.15L832.41,88.05L832.41,88.05L832.41,88.05z"/>
	</g>
	<g>
		<path class="st30" d="M530.36,462.45h-2.78c-0.38-1.66-1-3.04-1.81-4.36l0.01-0.03l1.96-1.97c0.44-0.44,0.44-1.15,0-1.59
			l-3.41-3.42c-0.44-0.44-1.14-0.44-1.58,0l-1.94,1.96c-1.36-0.83-2.8-1.42-4.31-1.77v-0.01v-2.78c0-0.62-0.55-1.11-1.17-1.11h-4.83
			c-0.62,0-1.09,0.49-1.09,1.11v2.78c-1.51,0.38-3.02,1-4.34,1.81l-0.02-0.01l-1.97-1.96c-0.44-0.44-1.15-0.44-1.58,0l-3.42,3.41
			c-0.44,0.44-0.44,1.14,0,1.58l1.96,1.99c-0.83,1.36-1.42,2.86-1.77,4.37h-0.01h-2.78c-0.62,0-1.01,0.44-1.01,1.06v4.83
			c0,0.62,0.39,1.05,1.01,1.05h2.78c0.38,1.66,1,3.04,1.81,4.36l-0.01,0.03l-1.96,1.97c-0.44,0.44-0.44,1.15,0,1.59l3.41,3.42
			c0.44,0.44,1.14,0.44,1.58,0l1.96-1.96c1.36,0.83,2.83,1.42,4.34,1.77v0.01v2.78c0,0.62,0.5,1.12,1.11,1.12h4.83
			c0.62,0,1.14-0.5,1.14-1.12v-2.78c1.51-0.38,2.99-1,4.31-1.81l0,0.01l1.96,1.96c0.44,0.44,1.14,0.44,1.58,0l3.41-3.41
			c0.44-0.44,0.44-1.14,0-1.58l-1.96-1.99c0.83-1.36,1.42-2.85,1.77-4.36h0.01h2.78c0.62,0,1.22-0.45,1.22-1.07v-4.83
			C531.58,462.87,530.98,462.45,530.36,462.45z M510.12,472.31c-0.07-0.03-0.13-0.06-0.2-0.09c-0.2-0.1-0.4-0.2-0.59-0.32
			c-0.1-0.06-0.19-0.12-0.28-0.18c-0.09-0.06-0.18-0.13-0.27-0.19c-0.04-0.03-0.09-0.07-0.13-0.1c-0.25-0.2-0.49-0.42-0.72-0.65
			c-0.22-0.23-0.43-0.48-0.62-0.74c-0.08-0.1-0.15-0.21-0.22-0.32c-0.21-0.33-0.39-0.67-0.55-1.03c-0.36-0.84-0.56-1.76-0.56-2.74
			c0-2.04,0.88-3.88,2.28-5.15c0.12-0.11,0.25-0.22,0.38-0.32c0.04-0.03,0.09-0.07,0.13-0.1c0.09-0.07,0.18-0.13,0.27-0.19
			c0.28-0.19,0.57-0.36,0.87-0.5c0.1-0.05,0.2-0.1,0.31-0.14c0.83-0.35,1.75-0.55,2.71-0.55c1.14,0,2.22,0.27,3.17,0.76
			c0.1,0.05,0.2,0.1,0.3,0.16c0.15,0.08,0.29,0.17,0.43,0.27c0.09,0.06,0.18,0.13,0.27,0.19c0.04,0.03,0.09,0.07,0.13,0.1
			c0.09,0.07,0.17,0.14,0.26,0.21c0.13,0.11,0.25,0.22,0.37,0.34c0.08,0.08,0.16,0.16,0.23,0.24c0.19,0.21,0.36,0.42,0.52,0.65
			c0.06,0.09,0.13,0.18,0.19,0.28s0.12,0.19,0.17,0.29c0.08,0.15,0.16,0.29,0.24,0.45c0.44,0.91,0.69,1.93,0.69,3.01
			c0,0.6-0.08,1.18-0.22,1.74c-0.03,0.11-0.06,0.22-0.09,0.33c-0.05,0.16-0.11,0.32-0.17,0.48c-0.04,0.11-0.09,0.21-0.13,0.31
			c-0.03,0.07-0.06,0.14-0.1,0.2c-0.07,0.13-0.14,0.27-0.21,0.4c-0.06,0.1-0.11,0.19-0.17,0.29c-0.05,0.07-0.1,0.15-0.15,0.22
			c-0.04,0.06-0.09,0.13-0.14,0.19c-0.03,0.04-0.07,0.09-0.1,0.13c-0.07,0.09-0.14,0.17-0.21,0.26c-0.04,0.04-0.07,0.08-0.11,0.12
			c-0.07,0.08-0.15,0.16-0.23,0.24c-0.04,0.04-0.08,0.08-0.12,0.12c-0.16,0.15-0.33,0.3-0.5,0.44c-0.04,0.03-0.09,0.07-0.13,0.1
			c-0.09,0.07-0.18,0.13-0.27,0.19c-0.09,0.06-0.19,0.12-0.28,0.18c-0.05,0.03-0.1,0.06-0.14,0.09c-0.1,0.06-0.2,0.11-0.3,0.16
			c-0.95,0.49-2.03,0.76-3.17,0.76c-0.92,0-1.79-0.18-2.6-0.5C510.27,472.37,510.2,472.34,510.12,472.31z"/>
		<path class="st31" d="M528.36,460.72h-0.87c-0.16-0.53-0.35-0.92-0.55-1.35l0.62-0.63c0.59-0.59,0.91-1.38,0.91-2.22
			c0-0.83-0.32-1.62-0.92-2.21l-3.02-3.02c-0.59-0.59-1.37-0.92-2.21-0.92c-0.83,0-1.62,0.32-2.21,0.91l0,0l0,0l-0.6,0.6
			c-0.42-0.19-0.88-0.37-1.28-0.53v-0.88c0-1.73-1.42-3.12-3.17-3.12h-4.27c-0.86,0-1.69,0.35-2.27,0.99
			c-0.53,0.58-0.83,1.33-0.83,2.13v0.87c-0.4,0.17-0.89,0.35-1.33,0.56l-0.62-0.63c-0.59-0.59-1.37-0.91-2.2-0.91
			c-0.84,0-1.62,0.33-2.21,0.92l-3.02,3.02c-0.59,0.59-0.91,1.37-0.92,2.21c0,0.84,0.32,1.62,0.91,2.21l0.62,0.65
			c-0.2,0.43-0.38,0.8-0.53,1.33h-0.88c-1.71,0-3.03,1.35-3.03,3.07v4.27c0,1.74,1.29,3.06,3.03,3.06h0.87
			c0.16,0.53,0.35,0.91,0.55,1.34l-0.62,0.63c-1.22,1.22-1.22,3.21,0,4.42l3.02,3.02c0.59,0.59,1.37,0.92,2.21,0.92
			c0.83,0,1.62-0.32,2.21-0.91l0.62-0.63c0.43,0.2,0.92,0.38,1.32,0.54v0.88c0,1.73,1.42,3.12,3.12,3.12h4.27
			c1.73,0,3.15-1.4,3.15-3.12v-0.87c0.4-0.16,0.87-0.34,1.29-0.55l0.61,0.61c0.59,0.59,1.38,0.92,2.21,0.92
			c0.83,0,1.62-0.33,2.21-0.92l3.02-3.02c0.59-0.59,0.91-1.37,0.91-2.21c0-0.83-0.33-1.62-0.92-2.21l-0.62-0.64
			c0.2-0.43,0.38-0.8,0.53-1.33h0.88c1.75,0,3.21-1.36,3.21-3.08v-4.27C531.58,462.05,530.11,460.72,528.36,460.72z M529.44,468.04
			c0,0.55-0.53,0.95-1.08,0.95h-2.46h-0.01c-0.31,1.33-0.84,2.65-1.57,3.86l1.74,1.75c0.39,0.39,0.39,1.02,0,1.4l-3.02,3.02
			c-0.19,0.19-0.45,0.29-0.7,0.29c-0.25,0-0.51-0.1-0.7-0.29l-1.73-1.74l0-0.01c-1.17,0.72-2.48,1.27-3.81,1.61v2.46
			c0,0.55-0.47,0.99-1.01,0.99h-4.27c-0.55,0-0.99-0.44-0.99-0.99v-2.46v-0.01c-1.33-0.31-2.64-0.84-3.84-1.57l-1.75,1.74
			c-0.19,0.19-0.44,0.29-0.7,0.29c-0.25,0-0.5-0.1-0.7-0.29l-3.02-3.02c-0.39-0.39-0.39-1.01,0-1.4l1.74-1.74l0.01-0.03
			c-0.72-1.17-1.27-2.39-1.6-3.86h-2.46c-0.55,0-0.89-0.38-0.89-0.93v-4.27c0-0.55,0.35-0.94,0.89-0.94h2.46h0.01
			c0.31-1.33,0.84-2.66,1.57-3.86l-1.74-1.75c-0.39-0.39-0.39-1.02,0-1.41l3.02-3.03c0.19-0.19,0.45-0.29,0.7-0.29
			c0.25,0,0.51,0.1,0.7,0.29l1.74,1.74l0.01,0.01c1.17-0.72,2.5-1.27,3.84-1.61v-2.46c0-0.55,0.42-0.98,0.96-0.98h4.27
			c0.55,0,1.04,0.44,1.04,0.98v2.46v0.01c1.33,0.31,2.61,0.84,3.82,1.57l1.71-1.74c0.19-0.19,0.45-0.29,0.7-0.29
			c0.25,0,0.51,0.1,0.7,0.29l3.02,3.02c0.39,0.39,0.39,1.01,0,1.4l-1.74,1.74l-0.01,0.04c0.72,1.17,1.27,2.39,1.61,3.86h2.46
			c0.55,0,1.08,0.37,1.08,0.92V468.04z"/>
	</g>
	<g>
		<path class="st32" d="M771.78,178.75l-19.01,0.18c-0.51,0-0.92-0.41-0.93-0.91l0-0.05c0-0.51,0.41-0.92,0.91-0.93l19.01-0.18
			c0.51,0,0.92,0.41,0.93,0.91l0,0.05C772.7,178.33,772.29,178.75,771.78,178.75z"/>
		<path class="st32" d="M779.18,152.41l-16.5-9.33c-0.45-0.26-0.61-0.84-0.36-1.29l0,0c0.26-0.45,0.84-0.61,1.29-0.36l16.5,9.33
			c0.45,0.26,0.61,0.84,0.36,1.29l0,0C780.21,152.5,779.63,152.67,779.18,152.41z"/>
		<path class="st32" d="M869.93,148.73l16.34-9.62c0.45-0.26,1.03-0.11,1.29,0.34v0c0.26,0.45,0.11,1.03-0.34,1.29l-16.34,9.62
			c-0.45,0.26-1.03,0.11-1.29-0.34l0,0C869.33,149.58,869.48,149,869.93,148.73z"/>
		<path class="st32" d="M879.52,174.93l18.96-0.16c0.52,0,0.95,0.42,0.95,0.94l0,0c0,0.52-0.42,0.95-0.94,0.95l-18.96,0.16
			c-0.52,0-0.95-0.42-0.95-0.94l0,0C878.57,175.37,879,174.94,879.52,174.93z"/>
		<path class="st5" d="M867.47,177.6c0,0-0.06-17.71-16.01-29.21c0,0-8.91-7.63-25.07-7.73c-16.16,0.1-25.03,7.73-25.03,7.73
			c-15.95,11.5-15.98,29.21-15.98,29.21c-1.86,14.5,14.51,39.89,14.51,39.89c8.81,12.95,11.1,29.64,11.1,29.64h15.4h15.47
			c0,0,2.29-16.69,11.1-29.64C852.96,217.49,869.34,192.1,867.47,177.6z"/>
		<path class="st33" d="M833.14,221.77c1.5-14.08,7.03-27.82,7.82-29.73c0.13-0.17,0.21-0.4,0.21-0.63
			c-0.01-0.53-0.44-0.99-0.97-0.99h-0.01c-1.49,0-2.17,1.28-2.66,2.19c-0.39,0.71-0.65,1.16-0.99,1.17c-0.33,0-0.6-0.41-1-1.11
			c-0.51-0.89-1.21-2.09-2.68-2.09h-0.02c-1.49,0-2.17,1.24-2.66,2.14c-0.39,0.72-0.65,1.14-0.99,1.15c-0.33,0-0.6-0.45-1-1.16
			c-0.51-0.89-1.21-2.13-2.68-2.13h-0.02c-1.49,0-2.16,1.27-2.66,2.18c-0.39,0.72-0.65,1.16-0.99,1.16c-0.33,0-0.59-0.42-0.99-1.13
			c-0.51-0.89-1.16-2.1-2.67-2.1v0.49c0,0-0.02,0-0.02,0h-0.01l-0.01-0.46c-1.49,0.01-2.16,1.24-2.66,2.14
			c-0.39,0.72-0.65,1.14-0.99,1.15c-0.33,0-0.6-0.45-1-1.15c-0.51-0.89-1.21-2.13-2.68-2.13h-0.02c-0.53,0-0.96,0.46-0.96,0.99
			c0,0.22,0.08,0.43,0.21,0.59c0.79,1.89,6.35,15.54,8,29.59c1.33,11.27,0.28,24.18,0.27,24.31c-0.02,0.25,0.06,0.49,0.22,0.68
			c0.16,0.19,0.39,0.31,0.64,0.33c0.03,0,0.05,0,0.08,0c0.48,0,0.89-0.37,0.93-0.85c0.01-0.13,1.08-13.16-0.28-24.68
			c-1.22-10.39-4.53-20.5-6.56-26.02c0.33,0.19,0.71,0.34,1.16,0.34c0.01,0,0.02,0,0.02,0c1.49-0.15,2.17-1.29,2.66-2.19
			c0.39-0.72,0.65-1.17,0.99-1.17c0.33,0,0.6,0.41,1,1.12c0.51,0.89,1.21,2.09,2.68,2.09h0.02c1.49,0,2.17-1.25,2.66-2.15
			c0.39-0.72,0.65-1.15,0.99-1.15c0.33,0,0.6,0.46,1,1.17c0.51,0.89,1.21,2.14,2.68,2.14h0.02c1.49,0,2.17-1.28,2.66-2.19
			c0.39-0.72,0.65-1.16,0.99-1.17c0.33,0,0.6,0.41,1,1.12c0.51,0.89,1.21,2.09,2.68,2.09h0.02c0.43,0,0.79-0.1,1.09-0.27
			c-2.02,5.57-5.26,15.74-6.37,26.13c-1.15,10.72,0.55,24.57,0.57,24.7c0.06,0.47,0.46,0.82,0.93,0.82c0.04,0,0.08,0,0.11-0.01
			c0.25-0.03,0.47-0.16,0.62-0.35c0.15-0.2,0.22-0.44,0.19-0.69C833.69,245.91,832.02,232.24,833.14,221.77z"/>
		<path class="st5" d="M841.45,271.03l-14.82-0.06l-0.01,0l-15.01,0c0,0-1.02,0.93,1.53,2.81c2.55,1.88,11.06,5.24,11.06,5.24
			s0.97,0.58,2.5,0.62v0c0,0,0,0,0,0c0,0,0,0,0,0v0c1.53-0.07,2.49-0.67,2.49-0.67s8.44-3.53,10.95-5.45
			C842.67,271.6,841.45,271.03,841.45,271.03z"/>
		<path class="st32" d="M797.06,132.31l-9.63-16.33c-0.26-0.45-0.11-1.03,0.33-1.29l0,0c0.45-0.26,1.03-0.11,1.29,0.33l9.63,16.33
			c0.26,0.45,0.11,1.03-0.33,1.29l0,0C797.9,132.91,797.32,132.76,797.06,132.31z"/>
		<path class="st32" d="M822.59,123.88l-0.17-19.01c0-0.51,0.41-0.92,0.91-0.93l0.05,0c0.51,0,0.92,0.41,0.93,0.91l0.17,19.01
			c0,0.51-0.41,0.92-0.91,0.93l-0.05,0C823.01,124.79,822.59,124.38,822.59,123.88z"/>
		<path class="st32" d="M848.93,129.3l9.34-16.5c0.26-0.45,0.84-0.61,1.29-0.36l0,0c0.45,0.26,0.61,0.84,0.36,1.29l-9.34,16.5
			c-0.26,0.45-0.84,0.61-1.29,0.36l0,0C848.84,130.33,848.67,129.75,848.93,129.3z"/>
		
			<rect x="813.45" y="252.03" transform="matrix(-1 -1.224647e-16 1.224647e-16 -1 1653.2491 521.0947)" class="st5" width="26.36" height="17.04"/>
		<path class="st33" d="M813.12,246.64h26.6c1.55,0,2.83,1.27,2.83,2.83v0c0,1.55-1.27,2.83-2.83,2.83h-26.6
			c-1.55,0-2.83-1.27-2.83-2.83v0C810.3,247.91,811.57,246.64,813.12,246.64z"/>
		<path class="st33" d="M813.56,267.74h25.83c0.9,0,1.63,0.74,1.63,1.63l0,0c0,0.9-0.73,1.63-1.63,1.63h-25.83
			c-0.9,0-1.63-0.74-1.63-1.63l0,0C811.93,268.47,812.66,267.74,813.56,267.74z"/>
		<path class="st33" d="M813.56,261.51h25.83c0.9,0,1.63,0.74,1.63,1.63l0,0c0,0.9-0.73,1.63-1.63,1.63h-25.83
			c-0.9,0-1.63-0.74-1.63-1.63l0,0C811.93,262.25,812.66,261.51,813.56,261.51z"/>
		<path class="st33" d="M813.56,255.29h25.83c0.9,0,1.63,0.74,1.63,1.63l0,0c0,0.9-0.73,1.63-1.63,1.63h-25.83
			c-0.9,0-1.63-0.74-1.63-1.63v0C811.93,256.02,812.66,255.29,813.56,255.29z"/>
	</g>
	<g>
		<path class="st34" d="M567.72,167.51l18.72,57.34c0.12,0.35,0.98,0.39,1.93,0.08l9.16-2.99c0.95-0.31,1.63-0.85,1.51-1.2
			l-18.72-57.34c-0.02-0.05-0.05-0.09-0.09-0.13l-12.51,4.08C567.7,167.41,567.71,167.46,567.72,167.51z"/>
		<path class="st32" d="M593.81,223.15l3.72-1.22c0.95-0.31,1.63-0.85,1.51-1.2l-18.72-57.34c-0.02-0.05-0.05-0.09-0.09-0.13
			l-3.72,1.22c0.03,0.03,0.06,0.06,0.08,0.09c0.01,0.01,0.01,0.02,0.01,0.04l18.72,57.34C595.44,222.31,594.76,222.84,593.81,223.15
			z"/>
		<path class="st35" d="M572.16,166.06l18.72,57.34c0.12,0.35,0.48,0.55,0.81,0.44l3.23-1.05c0.33-0.11,0.51-0.48,0.4-0.83
			l-18.72-57.34c0-0.01-0.01-0.02-0.01-0.04c-0.01-0.04-0.03-0.07-0.05-0.1l-4.41,1.44C572.13,165.97,572.14,166.02,572.16,166.06z"
			/>
		<path class="st5" d="M580.24,163.27c0,0-9.59-10.58-10.31-10.36c-0.72,0.22-2.21,14.45-2.21,14.45L580.24,163.27z"/>
		<path class="st31" d="M573.75,156.35c0,0-3.49-3.69-3.85-3.54c-0.44,0.19-1.05,5.11-1.05,5.11L573.75,156.35z"/>
	</g>
	<g>
		<path class="st34" d="M1163.46,272.63l-60.32-0.02c-0.37,0-0.67,0.81-0.67,1.81l0,9.64c0,1,0.3,1.81,0.67,1.81l60.32,0.02
			c0.05,0,0.1-0.01,0.15-0.05l0-13.16C1163.56,272.65,1163.51,272.63,1163.46,272.63z"/>
		<path class="st32" d="M1102.47,280.14l0,3.92c0,1,0.3,1.81,0.67,1.81l60.32,0.02c0.05,0,0.1-0.01,0.15-0.05l0-3.92
			c-0.04,0.02-0.07,0.04-0.11,0.05c-0.01,0-0.03,0-0.04,0l-60.32-0.02C1102.77,281.95,1102.47,281.14,1102.47,280.14z"/>
		<path class="st35" d="M1163.46,277.3l-60.32-0.02c-0.37,0-0.67,0.29-0.67,0.64l0,3.4c0,0.35,0.3,0.64,0.67,0.64l60.32,0.02
			c0.01,0,0.03,0,0.04,0c0.04,0,0.08-0.01,0.11-0.01l0-4.64C1163.56,277.31,1163.51,277.3,1163.46,277.3z"/>
		<path class="st5" d="M1163.6,285.84c0,0,13.03-5.83,13.05-6.58c0.02-0.75-13.04-6.59-13.04-6.59L1163.6,285.84z"/>
		<path class="st31" d="M1172.2,281.83c0,0,4.59-2.17,4.56-2.56c-0.05-0.48-4.54-2.58-4.54-2.58L1172.2,281.83z"/>
	</g>
</g>
</svg>
