<?xml version="1.0" encoding="utf-8"?>
<!-- Generator: Adobe Illustrator 23.0.6, SVG Export Plug-In . SVG Version: 6.00 Build 0)  -->
<svg version="1.1" id="Layer_1" xmlns="http://www.w3.org/2000/svg" xmlns:xlink="http://www.w3.org/1999/xlink" x="0px" y="0px"
	 viewBox="0 0 359 359" style="enable-background:new 0 0 359 359;" xml:space="preserve">
<style type="text/css">
	.st0{fill:#E6E6E6;}
	.st1{opacity:0.92;fill:#FFD018;}
	.st2{opacity:0.95;fill:#FFD018;}
	.st3{clip-path:url(#SVGID_4_);fill:none;stroke:#FFD018;stroke-miterlimit:10;stroke-dasharray:17.6543;}
	.st4{fill:none;stroke:#FFFFFF;stroke-width:2;stroke-miterlimit:10;}
	.st5{fill:#FFFFFF;}
	.st6{fill:none;stroke:#000000;stroke-width:2;stroke-miterlimit:10;}
	.st7{clip-path:url(#SVGID_8_);fill:none;stroke:#FFD018;stroke-miterlimit:10;stroke-dasharray:17.6543;}
	.st8{fill:#666666;}
	.st9{clip-path:url(#SVGID_14_);fill:none;stroke:#FFD018;stroke-miterlimit:10;stroke-dasharray:17.6543;}
	.st10{fill:#FFD018;}
	.st11{fill:none;stroke:#666666;stroke-width:3;stroke-miterlimit:10;}
	.st12{fill:none;stroke:#FFD018;stroke-width:3;stroke-miterlimit:10;}
	.st13{fill:#4C90F5;}
	.st14{clip-path:url(#SVGID_18_);fill:none;stroke:#FFD018;stroke-miterlimit:10;stroke-dasharray:17.6543;}
	.st15{fill:#D6A509;}
	.st16{fill:#DDBA9E;}
	.st17{fill:#EFD4B7;}
	.st18{fill:#F8F1E6;}
	.st19{fill:#494241;}
	.st20{fill:#55382F;}
	.st21{fill:#E2415D;}
	.st22{fill:#F4959C;}
	.st23{fill:#D2AE94;}
	.st24{fill:#7E3F20;}
	.st25{fill:#383838;}
	.st26{fill:#E4BA97;}
	.st27{fill:#444444;}
	.st28{fill-rule:evenodd;clip-rule:evenodd;fill:#3C444F;}
	.st29{fill-rule:evenodd;clip-rule:evenodd;fill:#FFFFFF;}
	.st30{fill:#CF4F44;}
	.st31{fill:#18333A;}
	.st32{fill:#FEEE99;}
	.st33{fill:#043843;}
	.st34{fill:#F2B74F;}
	.st35{fill:#FECE68;}
	.st36{fill:none;stroke:#666666;stroke-width:1.1512;stroke-miterlimit:10;}
	.st37{fill:none;stroke:#000000;stroke-width:1.0679;stroke-miterlimit:10;}
	.st38{fill:none;stroke:#000000;stroke-width:1.0679;stroke-miterlimit:10;stroke-dasharray:18.6438,18.6438;}
	.st39{fill:none;stroke:#000000;stroke-width:1.0679;stroke-miterlimit:10;stroke-dasharray:19.1692,19.1692;}
	.st40{fill:#FFFFFF;stroke:#9E9E9E;stroke-width:1.0622;stroke-miterlimit:10;}
	.st41{fill:none;stroke:#FFD018;stroke-width:1.9735;stroke-miterlimit:10;}
	.st42{fill-rule:evenodd;clip-rule:evenodd;fill:#FFFFFF;stroke:#FFD018;stroke-width:1.9735;stroke-miterlimit:10;}
	.st43{fill-rule:evenodd;clip-rule:evenodd;fill:#FFD018;}
	.st44{clip-path:url(#SVGID_24_);fill:none;stroke:#FFD018;stroke-miterlimit:10;stroke-dasharray:17.6543;}
	.st45{clip-path:url(#SVGID_28_);fill:none;stroke:#FFD018;stroke-miterlimit:10;stroke-dasharray:17.6543;}
	.st46{clip-path:url(#SVGID_34_);fill:none;stroke:#FFD018;stroke-miterlimit:10;stroke-dasharray:17.6543;}
	.st47{clip-path:url(#SVGID_38_);fill:none;stroke:#FFD018;stroke-miterlimit:10;stroke-dasharray:17.6543;}
	.st48{fill:none;stroke:#FFD018;stroke-width:1.086;stroke-miterlimit:10;}
</style>
<g>
	<circle class="st10" cx="179.5" cy="179.5" r="179.5"/>
	<g>
		<g>
			<g>
				<path d="M200.13,108.12c-2.28,0-4.13,1.85-4.13,4.13c0,2.28,1.85,4.13,4.13,4.13s4.13-1.85,4.13-4.13
					C204.26,109.97,202.41,108.12,200.13,108.12z"/>
			</g>
		</g>
		<g>
			<g>
				<path d="M158.87,108.12c-2.28,0-4.13,1.85-4.13,4.13c0,2.28,1.85,4.13,4.13,4.13c2.28,0,4.13-1.85,4.13-4.13
					C163,109.97,161.15,108.12,158.87,108.12z"/>
			</g>
		</g>
		<g>
			<g>
				<path d="M269.08,197.19c3.54-5.32,5.31-11.95,5.31-17.69c0-8.66-3.85-16.71-10.45-22.17c1.46-3.49,2.2-7.12,2.2-10.84
					c0-11.49-6.71-22.2-16.68-27.2c1.51-12.55-6.66-24.05-18.78-26.98c-4.74-10.96-15.3-18.43-26.43-18.43
					c-10.36,0-19.65,6.04-24.76,14.86c-5.1-8.82-14.4-14.86-24.76-14.86c-11.13,0-21.69,7.47-26.43,18.43
					c-12.19,2.95-20.29,14.51-18.78,26.98c-9.97,5-16.68,15.71-16.68,27.2c0,3.71,0.74,7.35,2.2,10.84
					c-6.6,5.46-10.45,13.51-10.45,22.17c0,5.78,1.79,12.4,5.31,17.69c-3.45,4.86-5.31,10.63-5.31,16.55c0,7.68,3.11,15,8.62,20.43
					c-2.83,17.12,10.82,34.44,28.51,34.44c0.13,0,0.25,0,0.38-0.01c5.86,10.12,16.75,16.51,28.5,16.51
					c12.25,0,23.19-7.35,28.88-17.95c5.69,10.59,16.63,17.95,28.88,17.95c11.75,0,22.64-6.39,28.5-16.51c0.12,0,0.25,0.01,0.38,0.01
					c15.66,0,28.88-13.79,28.88-30.12c0-1.39-0.12-2.82-0.37-4.32c5.51-5.43,8.62-12.75,8.62-20.43
					C274.4,207.82,272.53,202.06,269.08,197.19z M175.37,136.34c-2.43-1.41-5.25-2.22-8.25-2.22c-2.28,0-4.13,1.85-4.13,4.13
					c0,2.28,1.85,4.13,4.13,4.13c4.55,0,8.25,3.7,8.25,8.25v78.46c-6.05-6.87-14.9-11.21-24.76-11.21c-2.28,0-4.13,1.85-4.13,4.13
					c0,2.28,1.85,4.13,4.13,4.13c13.65,0,24.76,11.11,24.76,24.76c0,14.09-11.34,25.99-24.76,25.99c-9.55,0-18.35-5.65-22.4-14.39
					c-0.75-1.61-2.44-2.56-4.21-2.36c-0.29,0.03-0.58,0.07-0.87,0.11c-11.74,1.61-24.97-11.69-21.39-26.57
					c0.37-1.53-0.16-3.13-1.37-4.14c-4.78-3.98-7.52-9.73-7.52-15.78c0-3.74,1.06-7.41,3.03-10.62c4.95,4.06,11.1,6.49,17.6,6.49
					c2.28,0,4.13-1.85,4.13-4.13c0-2.28-1.85-4.13-4.13-4.13c-11.2,0-20.63-10.22-20.63-21.87c0-7.07,3.6-13.57,9.63-17.39
					c1.86-1.18,2.47-3.61,1.38-5.52c-1.83-3.23-2.76-6.63-2.76-10.1c0-11.14,9.08-21.87,20.63-21.87
					c10.99,0,20.63,10.22,20.63,21.87c0,2.28,1.85,4.13,4.13,4.13c2.28,0,4.13-1.85,4.13-4.13c0-16.33-13.23-30.12-28.88-30.12
					c-1.38,0-2.76,0.11-4.12,0.32c0-0.11-0.01-0.21-0.01-0.32c0-9.21,7.47-16.5,16.5-16.5c4.41,0,8.55,1.72,11.67,4.83
					c1.61,1.61,4.22,1.61,5.83,0c1.61-1.61,1.61-4.22,0-5.83c-3.76-3.76-8.52-6.16-13.68-6.95c3.64-5.4,9.69-9.78,16.81-9.78
					c10.99,0,20.63,10.22,20.63,21.87V136.34z M245.51,209.62c6.5,0,12.65-2.44,17.6-6.49c1.97,3.21,3.03,6.87,3.03,10.62
					c0,6.05-2.74,11.81-7.52,15.78c-1.21,1.01-1.74,2.61-1.37,4.14c0.44,1.82,0.64,3.35,0.64,4.84c0,12.81-11.58,23.16-22.03,21.73
					c-0.29-0.04-0.58-0.08-0.87-0.11c-1.77-0.2-3.46,0.75-4.21,2.36c-4.06,8.74-12.85,14.39-22.4,14.39
					c-13.42,0-24.76-11.9-24.76-25.99c0-13.65,11.11-24.76,24.76-24.76c2.28,0,4.13-1.85,4.13-4.13c0-2.28-1.85-4.13-4.13-4.13
					c-9.85,0-18.7,4.34-24.76,11.21v-78.46c0-4.55,3.7-8.25,8.25-8.25c2.28,0,4.13-1.85,4.13-4.13c0-2.28-1.85-4.13-4.13-4.13
					c-3,0-5.82,0.81-8.25,2.22V104c0-11.65,9.64-21.87,20.63-21.87c7.12,0,13.17,4.38,16.81,9.78c-5.16,0.79-9.92,3.19-13.68,6.95
					c-1.61,1.61-1.61,4.22,0,5.83c1.61,1.61,4.22,1.61,5.83,0c3.12-3.12,7.27-4.83,11.67-4.83c9.07,0,16.5,7.34,16.5,16.5
					c0,0.11-0.01,0.21-0.01,0.32c-1.36-0.21-2.73-0.32-4.12-0.32c-15.66,0-28.88,13.79-28.88,30.12c0,2.28,1.85,4.13,4.13,4.13
					c2.28,0,4.13-1.85,4.13-4.13c0-11.65,9.64-21.87,20.63-21.87c11.55,0,20.63,10.73,20.63,21.87c0,3.47-0.93,6.87-2.76,10.1
					c-1.09,1.91-0.48,4.34,1.38,5.52c6.03,3.82,9.63,10.32,9.63,17.39c0,11.69-9.47,21.87-20.63,21.87c-2.28,0-4.13,1.85-4.13,4.13
					C241.39,207.77,243.24,209.62,245.51,209.62z"/>
			</g>
		</g>
		<g>
			<g>
				<path d="M166.07,162.19c-1.52-1.7-4.13-1.84-5.83-0.32c-13.23,11.84-34.38,2.38-34.38-15.38c0-2.28-1.85-4.13-4.13-4.13
					s-4.13,1.85-4.13,4.13c0,14.32,10.48,26.24,24.18,28.49c-1.59,5-6.28,8.64-11.8,8.64c-2.28,0-4.13,1.85-4.13,4.13
					s1.85,4.13,4.13,4.13c10.05,0,18.44-7.22,20.26-16.75c5.74-0.75,11.14-3.21,15.5-7.11C167.45,166.5,167.59,163.89,166.07,162.19
					z"/>
			</g>
		</g>
		<g>
			<g>
				<path d="M121.74,234.37c-2.28,0-4.13,1.85-4.13,4.13c0,2.28,1.85,4.13,4.13,4.13c10.99,0,20.63,10.22,20.63,21.87
					c0,2.28,1.85,4.13,4.13,4.13c2.28,0,4.13-1.85,4.13-4.13C150.62,248.17,137.39,234.37,121.74,234.37z"/>
			</g>
		</g>
		<g>
			<g>
				<path d="M154.74,201.37c-13.98,0-25.98,7.67-32.31,18.82c-1.12,1.98-0.43,4.5,1.55,5.62c1.98,1.12,4.5,0.43,5.62-1.55
					c4.92-8.69,14.27-14.64,25.13-14.64c2.28,0,4.13-1.85,4.13-4.13C158.87,203.21,157.02,201.37,154.74,201.37z"/>
			</g>
		</g>
		<g>
			<g>
				<path d="M229.01,183.63c-5.52,0-10.21-3.64-11.8-8.64c13.7-2.25,24.18-14.17,24.18-28.49c0-2.28-1.85-4.13-4.13-4.13
					c-2.28,0-4.13,1.85-4.13,4.13c0,11.38-9.25,20.63-20.63,20.63c-5.08,0-9.97-1.87-13.75-5.25c-1.7-1.52-4.31-1.37-5.83,0.32
					c-1.52,1.7-1.37,4.31,0.32,5.83c4.36,3.9,9.76,6.36,15.5,7.11c1.82,9.53,10.21,16.75,20.26,16.75c2.28,0,4.13-1.85,4.13-4.13
					S231.29,183.63,229.01,183.63z"/>
			</g>
		</g>
		<g>
			<g>
				<path d="M237.26,234.37c-15.66,0-28.88,13.79-28.88,30.12c0,2.28,1.85,4.13,4.13,4.13c2.28,0,4.13-1.85,4.13-4.13
					c0-11.65,9.64-21.87,20.63-21.87c2.28,0,4.13-1.85,4.13-4.13C241.39,236.22,239.54,234.37,237.26,234.37z"/>
			</g>
		</g>
		<g>
			<g>
				<path d="M236.56,220.19c-6.31-11.12-18.29-18.82-32.31-18.82c-2.28,0-4.13,1.85-4.13,4.13c0,2.28,1.85,4.13,4.13,4.13
					c10.85,0,20.2,5.95,25.13,14.64c1.13,1.98,3.64,2.68,5.62,1.56C236.99,224.69,237.68,222.17,236.56,220.19z"/>
			</g>
		</g>
	</g>
</g>
</svg>
