<?xml version="1.0" encoding="utf-8"?>
<!-- Generator: Adobe Illustrator 23.0.6, SVG Export Plug-In . SVG Version: 6.00 Build 0)  -->
<svg version="1.1" id="Layer_1" xmlns="http://www.w3.org/2000/svg" xmlns:xlink="http://www.w3.org/1999/xlink" x="0px" y="0px"
	 viewBox="0 0 679.07 590.64" style="enable-background:new 0 0 679.07 590.64;" xml:space="preserve">
<style type="text/css">
	.st0{fill:#E6E6E6;}
	.st1{opacity:0.92;fill:#FFD018;}
	.st2{opacity:0.95;fill:#FFD018;}
	.st3{clip-path:url(#SVGID_4_);fill:none;stroke:#FFD018;stroke-miterlimit:10;stroke-dasharray:17.6543;}
	.st4{fill:none;stroke:#FFFFFF;stroke-width:2;stroke-miterlimit:10;}
	.st5{fill:#FFFFFF;}
	.st6{fill:none;stroke:#000000;stroke-width:2;stroke-miterlimit:10;}
	.st7{clip-path:url(#SVGID_8_);fill:none;stroke:#FFD018;stroke-miterlimit:10;stroke-dasharray:17.6543;}
	.st8{fill:#666666;}
	.st9{clip-path:url(#SVGID_14_);fill:none;stroke:#FFD018;stroke-miterlimit:10;stroke-dasharray:17.6543;}
	.st10{fill:#FFD018;}
	.st11{fill:none;stroke:#666666;stroke-width:3;stroke-miterlimit:10;}
	.st12{fill:none;stroke:#FFD018;stroke-width:3;stroke-miterlimit:10;}
	.st13{fill:#4C90F5;}
	.st14{clip-path:url(#SVGID_18_);fill:none;stroke:#FFD018;stroke-miterlimit:10;stroke-dasharray:17.6543;}
	.st15{fill:#D6A509;}
	.st16{fill:#DDBA9E;}
	.st17{fill:#EFD4B7;}
	.st18{fill:#F8F1E6;}
	.st19{fill:#494241;}
	.st20{fill:#55382F;}
	.st21{fill:#E2415D;}
	.st22{fill:#F4959C;}
	.st23{fill:#D2AE94;}
	.st24{fill:#7E3F20;}
	.st25{fill:#383838;}
	.st26{fill:#E4BA97;}
	.st27{fill:#444444;}
	.st28{fill-rule:evenodd;clip-rule:evenodd;fill:#3C444F;}
	.st29{fill-rule:evenodd;clip-rule:evenodd;fill:#FFFFFF;}
	.st30{fill:#CF4F44;}
	.st31{fill:#18333A;}
	.st32{fill:#FEEE99;}
	.st33{fill:#043843;}
	.st34{fill:#F2B74F;}
	.st35{fill:#FECE68;}
	.st36{fill:none;stroke:#666666;stroke-width:1.1512;stroke-miterlimit:10;}
	.st37{fill:none;stroke:#000000;stroke-width:1.0679;stroke-miterlimit:10;}
	.st38{fill:none;stroke:#000000;stroke-width:1.0679;stroke-miterlimit:10;stroke-dasharray:18.6438,18.6438;}
	.st39{fill:none;stroke:#000000;stroke-width:1.0679;stroke-miterlimit:10;stroke-dasharray:19.1692,19.1692;}
	.st40{fill:#FFFFFF;stroke:#9E9E9E;stroke-width:1.0622;stroke-miterlimit:10;}
	.st41{fill:none;stroke:#FFD018;stroke-width:1.9735;stroke-miterlimit:10;}
	.st42{fill-rule:evenodd;clip-rule:evenodd;fill:#FFFFFF;stroke:#FFD018;stroke-width:1.9735;stroke-miterlimit:10;}
	.st43{fill-rule:evenodd;clip-rule:evenodd;fill:#FFD018;}
	.st44{clip-path:url(#SVGID_24_);fill:none;stroke:#FFD018;stroke-miterlimit:10;stroke-dasharray:17.6543;}
	.st45{clip-path:url(#SVGID_28_);fill:none;stroke:#FFD018;stroke-miterlimit:10;stroke-dasharray:17.6543;}
	.st46{clip-path:url(#SVGID_34_);fill:none;stroke:#FFD018;stroke-miterlimit:10;stroke-dasharray:17.6543;}
	.st47{clip-path:url(#SVGID_38_);fill:none;stroke:#FFD018;stroke-miterlimit:10;stroke-dasharray:17.6543;}
	.st48{fill:none;stroke:#FFD018;stroke-width:1.086;stroke-miterlimit:10;}
</style>
<g>
	<g>
		<line class="st5" x1="679.07" y1="295.32" x2="0" y2="295.32"/>
		<g>
			<line class="st41" x1="670.05" y1="295.32" x2="9.02" y2="295.32"/>
			<g>
				<path class="st10" d="M669.57,285.82c5.24,0,9.5,4.25,9.5,9.5s-4.25,9.5-9.5,9.5c-5.24,0-9.5-4.25-9.5-9.5
					S664.33,285.82,669.57,285.82z"/>
			</g>
			<g>
				<path class="st10" d="M9.5,285.82c-5.24,0-9.5,4.25-9.5,9.5s4.25,9.5,9.5,9.5c5.24,0,9.5-4.25,9.5-9.5S14.74,285.82,9.5,285.82z
					"/>
			</g>
		</g>
	</g>
	<g>
		<line class="st5" x1="509.3" y1="589.36" x2="169.77" y2="1.27"/>
		<g>
			<line class="st41" x1="504.79" y1="581.55" x2="174.28" y2="9.09"/>
			<g>
				<path class="st10" d="M512.78,576.39c2.62,4.54,1.07,10.35-3.48,12.97c-4.54,2.62-10.35,1.07-12.97-3.48
					c-2.62-4.54-1.07-10.35,3.48-12.97C504.35,570.29,510.15,571.85,512.78,576.39z"/>
			</g>
			<g>
				<path class="st10" d="M182.74,4.75c-2.62-4.54-8.43-6.1-12.97-3.48c-4.54,2.62-6.1,8.43-3.48,12.97
					c2.62,4.54,8.43,6.1,12.97,3.48C183.81,15.1,185.36,9.29,182.74,4.75z"/>
			</g>
		</g>
	</g>
	<g>
		<line class="st5" x1="169.77" y1="589.36" x2="509.3" y2="1.27"/>
		<g>
			<line class="st41" x1="174.28" y1="581.55" x2="504.79" y2="9.09"/>
			<g>
				<path class="st10" d="M182.74,585.89c-2.62,4.54-8.43,6.1-12.97,3.48c-4.54-2.62-6.1-8.43-3.48-12.97
					c2.62-4.54,8.43-6.1,12.97-3.48C183.81,575.54,185.36,581.35,182.74,585.89z"/>
			</g>
			<g>
				<path class="st10" d="M512.78,14.25c2.62-4.54,1.07-10.35-3.48-12.97c-4.54-2.62-10.35-1.07-12.97,3.48
					c-2.62,4.54-1.07,10.35,3.48,12.97C504.35,20.35,510.15,18.79,512.78,14.25z"/>
			</g>
		</g>
	</g>
	<circle class="st42" cx="339.53" cy="295.32" r="197.35"/>
	<circle class="st43" cx="339.53" cy="295.32" r="171.36"/>
	<path class="st10" d="M166.99,199.67c4.58-3.84,11.1-8.14,16.5-10.03l-9.84-1.69l-6.48-7.59
		C168.3,185.97,167.95,193.77,166.99,199.67z"/>
	<path class="st10" d="M167.23,392.57c-0.67-5.94-0.63-13.75,0.79-19.29l-6.85,7.26l-9.91,1.19
		C156.55,383.89,162.85,388.5,167.23,392.57z"/>
	<path class="st10" d="M349.12,492.9c-5.53-2.28-12.35-6.08-16.52-9.99l3.05,9.5l-3.73,9.25
		C336.37,498.07,343.44,494.78,349.12,492.9z"/>
	<path class="st10" d="M521.98,373.26c-4.58,3.85-11.1,8.14-16.49,10.03l9.84,1.68l6.48,7.59
		C520.67,386.96,521.02,379.16,521.98,373.26z"/>
	<path class="st10" d="M501.06,180.88c1.4,5.81,2.34,13.56,1.63,19.23l5.89-8.06l9.68-2.42
		C512.74,188.15,505.91,184.37,501.06,180.88z"/>
	<path class="st10" d="M331.92,97.97c5.53,2.28,12.35,6.08,16.52,9.99l-3.05-9.5l3.73-9.25C344.68,92.81,337.6,96.1,331.92,97.97z"
		/>
</g>
</svg>
