<?xml version="1.0" encoding="utf-8"?>
<!-- Generator: Adobe Illustrator 23.0.6, SVG Export Plug-In . SVG Version: 6.00 Build 0)  -->
<svg version="1.1" id="Layer_1" xmlns="http://www.w3.org/2000/svg" xmlns:xlink="http://www.w3.org/1999/xlink" x="0px" y="0px"
	 viewBox="0 0 359 359" style="enable-background:new 0 0 359 359;" xml:space="preserve">
<style type="text/css">
	.st0{fill:#E6E6E6;}
	.st1{opacity:0.92;fill:#FFD018;}
	.st2{opacity:0.95;fill:#FFD018;}
	.st3{clip-path:url(#SVGID_4_);fill:none;stroke:#FFD018;stroke-miterlimit:10;stroke-dasharray:17.6543;}
	.st4{fill:none;stroke:#FFFFFF;stroke-width:2;stroke-miterlimit:10;}
	.st5{fill:#FFFFFF;}
	.st6{fill:none;stroke:#000000;stroke-width:2;stroke-miterlimit:10;}
	.st7{clip-path:url(#SVGID_8_);fill:none;stroke:#FFD018;stroke-miterlimit:10;stroke-dasharray:17.6543;}
	.st8{fill:#666666;}
	.st9{clip-path:url(#SVGID_14_);fill:none;stroke:#FFD018;stroke-miterlimit:10;stroke-dasharray:17.6543;}
	.st10{fill:#FFD018;}
	.st11{fill:none;stroke:#666666;stroke-width:3;stroke-miterlimit:10;}
	.st12{fill:none;stroke:#FFD018;stroke-width:3;stroke-miterlimit:10;}
	.st13{fill:#4C90F5;}
	.st14{clip-path:url(#SVGID_18_);fill:none;stroke:#FFD018;stroke-miterlimit:10;stroke-dasharray:17.6543;}
	.st15{fill:#D6A509;}
	.st16{fill:#DDBA9E;}
	.st17{fill:#EFD4B7;}
	.st18{fill:#F8F1E6;}
	.st19{fill:#494241;}
	.st20{fill:#55382F;}
	.st21{fill:#E2415D;}
	.st22{fill:#F4959C;}
	.st23{fill:#D2AE94;}
	.st24{fill:#7E3F20;}
	.st25{fill:#383838;}
	.st26{fill:#E4BA97;}
	.st27{fill:#444444;}
	.st28{fill-rule:evenodd;clip-rule:evenodd;fill:#3C444F;}
	.st29{fill-rule:evenodd;clip-rule:evenodd;fill:#FFFFFF;}
	.st30{fill:#CF4F44;}
	.st31{fill:#18333A;}
	.st32{fill:#FEEE99;}
	.st33{fill:#043843;}
	.st34{fill:#F2B74F;}
	.st35{fill:#FECE68;}
	.st36{fill:none;stroke:#666666;stroke-width:1.1512;stroke-miterlimit:10;}
	.st37{fill:none;stroke:#000000;stroke-width:1.0679;stroke-miterlimit:10;}
	.st38{fill:none;stroke:#000000;stroke-width:1.0679;stroke-miterlimit:10;stroke-dasharray:18.6438,18.6438;}
	.st39{fill:none;stroke:#000000;stroke-width:1.0679;stroke-miterlimit:10;stroke-dasharray:19.1692,19.1692;}
	.st40{fill:#FFFFFF;stroke:#9E9E9E;stroke-width:1.0622;stroke-miterlimit:10;}
	.st41{fill:none;stroke:#FFD018;stroke-width:1.9735;stroke-miterlimit:10;}
	.st42{fill-rule:evenodd;clip-rule:evenodd;fill:#FFFFFF;stroke:#FFD018;stroke-width:1.9735;stroke-miterlimit:10;}
	.st43{fill-rule:evenodd;clip-rule:evenodd;fill:#FFD018;}
	.st44{clip-path:url(#SVGID_24_);fill:none;stroke:#FFD018;stroke-miterlimit:10;stroke-dasharray:17.6543;}
	.st45{clip-path:url(#SVGID_28_);fill:none;stroke:#FFD018;stroke-miterlimit:10;stroke-dasharray:17.6543;}
	.st46{clip-path:url(#SVGID_34_);fill:none;stroke:#FFD018;stroke-miterlimit:10;stroke-dasharray:17.6543;}
	.st47{clip-path:url(#SVGID_38_);fill:none;stroke:#FFD018;stroke-miterlimit:10;stroke-dasharray:17.6543;}
	.st48{fill:none;stroke:#FFD018;stroke-width:1.086;stroke-miterlimit:10;}
</style>
<circle class="st10" cx="179.5" cy="179.5" r="179.5"/>
<g>
	<g>
		<g>
			<path d="M279.49,234.48l-0.05-60.81c-0.02-7.82-6.36-14.16-14.18-14.17c-6.88-0.01-12.78,4.94-13.97,11.72l-7.86,44.56
				c-3.18-0.42-6.4,0.37-9.02,2.23l-26.83,18.87c-0.89,0.62-1.42,1.64-1.42,2.73v36.55c0,1.84,1.49,3.33,3.33,3.33h33.33
				c1.84,0,3.33-1.49,3.33-3.33v-4.22l21.94-13.97C275.51,252.47,279.76,243.7,279.49,234.48z M264.45,252.39L264.45,252.39
				l-23.42,14.91c-0.96,0.61-1.54,1.67-1.54,2.81v2.71h-26.66v-31.49l25.41-17.87c2.77-1.94,6.59-1.28,8.53,1.49
				c1.9,2.71,1.31,6.43-1.33,8.42l-17.94,13.46l4,5.33l17.94-13.46c5.65-4.24,6.79-12.25,2.56-17.9c-0.36-0.48-0.76-0.94-1.19-1.37
				c-0.34-0.34-0.7-0.66-1.08-0.97l8.13-46.08c0.72-4.09,4.62-6.82,8.71-6.1c3.59,0.63,6.21,3.75,6.21,7.4l0.05,60.81
				C273.1,241.46,269.98,248.13,264.45,252.39z"/>
		</g>
	</g>
	<g>
		<g>
			<path d="M151.42,236.88l-26.83-18.87c-2.62-1.85-5.84-2.65-9.02-2.23l-7.86-44.56c-1.36-7.71-8.72-12.86-16.43-11.5
				c-6.77,1.19-11.71,7.08-11.72,13.95l-0.05,60.81c-0.27,9.25,4.01,18.04,11.46,23.53l21.87,13.93v4.22c0,1.84,1.49,3.33,3.33,3.33
				h33.33c1.84,0,3.33-1.49,3.33-3.33v-36.55C152.84,238.52,152.31,237.5,151.42,236.88z M146.17,272.82h-26.66v-2.71
				c0-1.14-0.58-2.2-1.54-2.81l-23.35-14.86c-5.57-4.25-8.72-10.94-8.44-17.94l0.05-60.81c0-4.15,3.37-7.51,7.52-7.51
				c3.65,0,6.76,2.62,7.4,6.21l8.13,46.08c-0.38,0.3-0.74,0.62-1.08,0.97c-4.99,4.99-4.99,13.09,0,18.09
				c0.43,0.43,0.88,0.82,1.37,1.19l17.94,13.46l4-5.33l-17.94-13.46c-2.7-2.03-3.25-5.87-1.22-8.57c1.99-2.64,5.71-3.24,8.42-1.33
				l25.41,17.87L146.17,272.82L146.17,272.82z"/>
		</g>
	</g>
	<g>
		<g>
			<path d="M179.5,79.51h-0.21l0.21,6.67c4.08,0,8.15,0.39,12.15,1.16l1.27-6.54C188.5,79.94,184.01,79.51,179.5,79.51z"/>
		</g>
	</g>
	<g>
		<g>
			<path d="M165.64,80.89c-4.49,0.9-8.89,2.25-13.12,4.02l2.57,6.15c3.82-1.6,7.79-2.81,11.86-3.63L165.64,80.89z"/>
		</g>
	</g>
	<g>
		<g>
			<path d="M224.3,194.26c-2.93,2.93-6.14,5.57-9.59,7.88l3.71,5.54c3.8-2.55,7.35-5.47,10.59-8.71L224.3,194.26z"/>
		</g>
	</g>
	<g>
		<g>
			<path d="M206.07,84.73l-2.53,6.16c3.83,1.58,7.5,3.53,10.96,5.82l3.69-5.55C214.36,88.63,210.31,86.47,206.07,84.73z"/>
		</g>
	</g>
	<g>
		<g>
			<path d="M242.83,149.5c0,4.15-0.4,8.28-1.2,12.35l6.54,1.29c0.88-4.49,1.33-9.06,1.33-13.64v-0.28L242.83,149.5z"/>
		</g>
	</g>
	<g>
		<g>
			<path d="M228.81,99.83l-4.7,4.73c2.94,2.92,5.59,6.13,7.92,9.56l5.52-3.73C234.99,106.6,232.06,103.06,228.81,99.83z"/>
		</g>
	</g>
	<g>
		<g>
			<path d="M203.78,208.01c-3.83,1.59-7.8,2.8-11.87,3.6l1.3,6.54c4.5-0.89,8.89-2.23,13.13-3.99L203.78,208.01z"/>
		</g>
	</g>
	<g>
		<g>
			<path d="M244.08,122.46l-6.15,2.58c1.6,3.82,2.82,7.79,3.65,11.86l6.53-1.32C247.2,131.08,245.85,126.69,244.08,122.46z"/>
		</g>
	</g>
	<g>
		<g>
			<path d="M238.03,173.73c-1.59,3.83-3.55,7.49-5.85,10.94l5.54,3.7c2.55-3.81,4.71-7.86,6.47-12.09L238.03,173.73z"/>
		</g>
	</g>
	<g>
		<g>
			<path d="M179.5,212.83c-4.12,0-8.24-0.4-12.29-1.19l-1.29,6.54c4.47,0.87,9.02,1.32,13.57,1.31h0.07L179.5,212.83z"/>
		</g>
	</g>
	<g>
		<g>
			<path d="M126.9,184.77l-5.53,3.72c2.56,3.8,5.48,7.34,8.72,10.58l4.71-4.72C131.86,191.42,129.21,188.22,126.9,184.77z"/>
		</g>
	</g>
	<g>
		<g>
			<path d="M140.45,91.41c-3.8,2.56-7.34,5.49-10.57,8.73l4.73,4.7c2.92-2.94,6.13-5.59,9.57-7.9L140.45,91.41z"/>
		</g>
	</g>
	<g>
		<g>
			<path d="M110.81,136.01c-0.87,4.45-1.3,8.97-1.3,13.5v0.14l6.67-0.14c0-4.1,0.39-8.2,1.18-12.22L110.81,136.01z"/>
		</g>
	</g>
	<g>
		<g>
			<path d="M121.2,110.76c-2.54,3.81-4.7,7.87-6.44,12.11l6.16,2.54c1.58-3.83,3.53-7.5,5.83-10.95L121.2,110.76z"/>
		</g>
	</g>
	<g>
		<g>
			<path d="M117.4,161.98l-6.54,1.31c0.9,4.49,2.24,8.89,4,13.12l6.15-2.56C119.43,170.02,118.22,166.05,117.4,161.98z"/>
		</g>
	</g>
	<g>
		<g>
			<path d="M144.4,202.22l-3.7,5.54c3.81,2.54,7.86,4.71,12.1,6.46l2.55-6.16C151.51,206.48,147.84,204.52,144.4,202.22z"/>
		</g>
	</g>
	<g>
		<g>
			<path d="M229.49,136.17c0-10.23-6.36-21.2-16.85-23.06c-1.01-11.37-10.47-20.13-21.89-20.27c-3.97,0-7.86,1.07-11.26,3.11
				c-3.4-2.04-7.3-3.11-11.26-3.11c-11.78,0.17-21.52,9.24-22.53,20.98c-9.74,3.06-16.32,12.14-16.2,22.35
				c0,4.75,1.42,9.4,4.08,13.33c-2.66,3.94-4.09,8.58-4.08,13.33c0,10.23,6.36,21.2,16.85,23.06c1.01,11.37,10.47,20.13,21.89,20.27
				c3.97,0,7.86-1.07,11.26-3.11c3.4,2.04,7.3,3.11,11.26,3.11c11.78-0.17,21.52-9.24,22.53-20.98c9.74-3.06,16.32-12.14,16.2-22.35
				c0-4.75-1.42-9.4-4.08-13.33C228.07,145.57,229.5,140.92,229.49,136.17z M176.17,122.84c0,3.68-2.98,6.67-6.67,6.67
				c-3.68,0-6.67-2.98-6.67-6.67h-6.67c0.01,7.36,5.97,13.32,13.33,13.33c2.35-0.01,4.65-0.65,6.67-1.85v62.91
				c-2.39,1.47-5.13,2.25-7.93,2.27c-7.82-0.17-14.3-6.11-15.15-13.88c7.08-1.96,11.23-9.29,9.26-16.36
				c-1.6-5.77-6.86-9.76-12.85-9.75v6.67c3.68,0,6.67,2.98,6.67,6.67c0,3.68-2.98,6.67-6.67,6.67c-7.97,0-13.33-8.62-13.33-16.66
				c-0.01-4.09,1.46-8.05,4.13-11.15c1.09-1.25,1.09-3.11,0-4.36c-2.67-3.1-4.14-7.06-4.13-11.15c-0.15-7.99,5.49-14.93,13.34-16.42
				c1.63-0.42,2.77-1.9,2.75-3.58c-0.18-9.01,6.97-16.46,15.97-16.66c2.8,0.01,5.54,0.8,7.93,2.27L176.17,122.84L176.17,122.84z
				 M218.7,151.68c2.67,3.1,4.14,7.06,4.13,11.15c0.15,7.99-5.49,14.93-13.34,16.42c-1.63,0.42-2.77,1.9-2.75,3.58
				c0.18,9.01-6.97,16.46-15.97,16.66c-2.8-0.01-5.54-0.8-7.93-2.27V159.5c0-3.68,2.98-6.67,6.67-6.67s6.67,2.98,6.67,6.67h6.67
				c-0.01-7.36-5.97-13.32-13.33-13.33c-2.35,0.01-4.65,0.65-6.67,1.85v-46.25c2.39-1.47,5.13-2.25,7.93-2.27
				c7.82,0.17,14.3,6.11,15.15,13.88c-7.08,1.96-11.23,9.29-9.26,16.36c1.6,5.77,6.86,9.76,12.85,9.75v-6.67
				c-3.68,0-6.67-2.98-6.67-6.67c0-3.68,2.98-6.67,6.67-6.67c7.97,0,13.33,8.62,13.33,16.66c0.01,4.09-1.46,8.05-4.13,11.15
				C217.61,148.57,217.61,150.43,218.7,151.68z"/>
		</g>
	</g>
</g>
</svg>
