<?xml version="1.0" encoding="utf-8"?>
<!-- Generator: Adobe Illustrator 23.0.6, SVG Export Plug-In . SVG Version: 6.00 Build 0)  -->
<svg version="1.1" id="Layer_1" xmlns="http://www.w3.org/2000/svg" xmlns:xlink="http://www.w3.org/1999/xlink" x="0px" y="0px"
	 viewBox="0 0 359 359" style="enable-background:new 0 0 359 359;" xml:space="preserve">
<style type="text/css">
	.st0{fill:#E6E6E6;}
	.st1{opacity:0.92;fill:#FFD018;}
	.st2{opacity:0.95;fill:#FFD018;}
	.st3{clip-path:url(#SVGID_4_);fill:none;stroke:#FFD018;stroke-miterlimit:10;stroke-dasharray:17.6543;}
	.st4{fill:none;stroke:#FFFFFF;stroke-width:2;stroke-miterlimit:10;}
	.st5{fill:#FFFFFF;}
	.st6{fill:none;stroke:#000000;stroke-width:2;stroke-miterlimit:10;}
	.st7{clip-path:url(#SVGID_8_);fill:none;stroke:#FFD018;stroke-miterlimit:10;stroke-dasharray:17.6543;}
	.st8{fill:#666666;}
	.st9{clip-path:url(#SVGID_14_);fill:none;stroke:#FFD018;stroke-miterlimit:10;stroke-dasharray:17.6543;}
	.st10{fill:#FFD018;}
	.st11{fill:none;stroke:#666666;stroke-width:3;stroke-miterlimit:10;}
	.st12{fill:none;stroke:#FFD018;stroke-width:3;stroke-miterlimit:10;}
	.st13{fill:#4C90F5;}
	.st14{clip-path:url(#SVGID_18_);fill:none;stroke:#FFD018;stroke-miterlimit:10;stroke-dasharray:17.6543;}
	.st15{fill:#D6A509;}
	.st16{fill:#DDBA9E;}
	.st17{fill:#EFD4B7;}
	.st18{fill:#F8F1E6;}
	.st19{fill:#494241;}
	.st20{fill:#55382F;}
	.st21{fill:#E2415D;}
	.st22{fill:#F4959C;}
	.st23{fill:#D2AE94;}
	.st24{fill:#7E3F20;}
	.st25{fill:#383838;}
	.st26{fill:#E4BA97;}
	.st27{fill:#444444;}
	.st28{fill-rule:evenodd;clip-rule:evenodd;fill:#3C444F;}
	.st29{fill-rule:evenodd;clip-rule:evenodd;fill:#FFFFFF;}
	.st30{fill:#CF4F44;}
	.st31{fill:#18333A;}
	.st32{fill:#FEEE99;}
	.st33{fill:#043843;}
	.st34{fill:#F2B74F;}
	.st35{fill:#FECE68;}
	.st36{fill:none;stroke:#666666;stroke-width:1.1512;stroke-miterlimit:10;}
	.st37{fill:none;stroke:#000000;stroke-width:1.0679;stroke-miterlimit:10;}
	.st38{fill:none;stroke:#000000;stroke-width:1.0679;stroke-miterlimit:10;stroke-dasharray:18.6438,18.6438;}
	.st39{fill:none;stroke:#000000;stroke-width:1.0679;stroke-miterlimit:10;stroke-dasharray:19.1692,19.1692;}
	.st40{fill:#FFFFFF;stroke:#9E9E9E;stroke-width:1.0622;stroke-miterlimit:10;}
	.st41{fill:none;stroke:#FFD018;stroke-width:1.9735;stroke-miterlimit:10;}
	.st42{fill-rule:evenodd;clip-rule:evenodd;fill:#FFFFFF;stroke:#FFD018;stroke-width:1.9735;stroke-miterlimit:10;}
	.st43{fill-rule:evenodd;clip-rule:evenodd;fill:#FFD018;}
	.st44{clip-path:url(#SVGID_24_);fill:none;stroke:#FFD018;stroke-miterlimit:10;stroke-dasharray:17.6543;}
	.st45{clip-path:url(#SVGID_28_);fill:none;stroke:#FFD018;stroke-miterlimit:10;stroke-dasharray:17.6543;}
	.st46{clip-path:url(#SVGID_34_);fill:none;stroke:#FFD018;stroke-miterlimit:10;stroke-dasharray:17.6543;}
	.st47{clip-path:url(#SVGID_38_);fill:none;stroke:#FFD018;stroke-miterlimit:10;stroke-dasharray:17.6543;}
	.st48{fill:none;stroke:#FFD018;stroke-width:1.086;stroke-miterlimit:10;}
</style>
<g>
	<circle class="st10" cx="179.5" cy="179.5" r="179.5"/>
	<g transform="translate(-1 -1)">
		<g>
			<g>
				<path d="M268.76,176.99c5.5-29.88-3.48-70.95-36.2-90.52c-20.67-11.59-45.04-14.66-67.94-8.55
					c-31.71,8.48-55.03,31.24-62.36,60.88c-1.63,6.01-2.33,12.24-2.05,18.46c0.35,3.86,1.06,7.68,2.13,11.41
					c1.43,4.74,2.14,9.68,2.1,14.64c-0.15,5.9-4.21,12.02-7.8,17.42c-3.91,5.89-7.29,10.99-5.33,15.68c1.86,3.18,5.13,5.28,8.8,5.64
					c0.21,0.04,0.42,0.06,0.64,0.07c0.98-0.12,1.96,0.21,2.68,0.89s1.09,1.65,1.01,2.63c0,7.32,0.18,11.09,3.2,12.82
					c-0.26,0.55-0.45,1.14-0.55,1.74c-0.3,2.07,0.44,4.15,1.98,5.55c1.53,1.49,3.48,2.48,5.58,2.85c0.15,0.03,0.29,0.06,0.43,0.09
					c0.08,0.52,0.12,1.05,0.11,1.58c-0.03,1.31-0.12,2.62-0.28,3.92c-0.58,5.63-1.39,13.35,9.88,17.03
					c2.26,0.63,4.61,0.92,6.95,0.85c10.67-0.47,21.21-2.49,31.3-6c2.91,5.08,4.67,10.74,5.14,16.57c0,0.93,0.37,1.83,1.03,2.49
					c0.66,0.66,1.56,1.03,2.49,1.03h88.02c1.51-0.02,2.83-1,3.29-2.43c0.46-1.45-0.04-3.04-1.26-3.96
					c-3.64-2.77-15.71-31.91-16.08-42.38c1.06-2.41,2.49-5.12,4.17-8.27C259.05,212.92,265.44,195.3,268.76,176.99z M238.62,237.03
					c0.09,8.42,7.68,30.67,14.2,42.09h-77.88c-0.88-5.39-2.62-10.61-5.18-15.44c10.2-4,19.19-9.14,23.5-14.78
					c1.17-1.55,0.88-3.75-0.67-4.93c-1.54-1.18-3.75-0.89-4.93,0.65c-9.96,13.04-51.42,22.94-60.68,19.91
					c-5.86-1.92-5.63-4.17-5.06-9.61c0.19-1.54,0.29-3.09,0.32-4.64c0-5.93-2.39-7.7-5.99-8.54c-0.68-0.1-1.33-0.35-1.89-0.73
					c0.69-0.66,1.48-1.22,2.33-1.65c1.47-0.72,2.25-2.36,1.88-3.96c-0.37-1.6-1.79-2.72-3.43-2.73c-1.27,0-2.69,0-3.43-0.09
					c-0.22-2.31-0.3-4.63-0.23-6.95c0.07-2.78-0.99-5.46-2.93-7.45c-1.94-1.99-4.6-3.11-7.38-3.1c-2.54-0.53-3.31-1.22-3.37-1.38
					c-0.51-1.22,2.88-6.33,4.7-9.07c3.91-5.89,8.77-13.21,8.97-21.14c0.1-4.4-0.39-8.79-1.46-13.06c3.84-3.38,8.37-5.88,13.28-7.32
					c1.75-0.31,3.54-0.18,5.23,0.37c1.87,0.52,3.81-0.58,4.33-2.46c0.52-1.87-0.58-3.81-2.46-4.33c-2.77-0.85-5.71-1.01-8.56-0.47
					c-4.98,1.27-9.63,3.58-13.64,6.78c-0.48-2.05-0.81-4.14-0.97-6.24c-0.24-5.49,0.39-10.98,1.87-16.27
					c6.81-27.51,27.71-47.84,57.34-55.77c21.05-5.65,43.48-2.85,62.5,7.79c29.84,17.85,37.97,55.64,32.89,83.2
					c-3.16,17.6-9.31,34.53-18.17,50.07c-1.94,3.61-3.61,6.73-4.81,9.62C238.64,235.92,238.56,236.48,238.62,237.03z"/>
				<path d="M245.61,185.04c0.5-5.43-3.21-10.35-8.58-11.35l-6.74-9.35c0.41-0.76,0.73-1.57,0.94-2.41l6.53-2.61
					c3.02,3.43,7.9,4.53,12.09,2.72c4.19-1.81,6.74-6.12,6.31-10.67c-0.43-4.55-3.75-8.3-8.21-9.29l-5.29-10.55
					c3.71-3.78,4.03-9.73,0.75-13.89c-3.28-4.16-9.15-5.22-13.68-2.49l-5.9-4.9c0.45-1.17,0.68-2.4,0.69-3.65
					c0.01-4.31-2.61-8.2-6.61-9.8c-4-1.61-8.58-0.61-11.56,2.51l-10.44-2.61c-1.25-4.53-5.36-7.67-10.05-7.7
					c-4.7-0.03-8.84,3.07-10.15,7.58l-13.95,2.79c-3.64-3.92-9.64-4.49-13.95-1.31c-4.31,3.18-5.54,9.08-2.86,13.72l-6.84,9.1
					c-4.9,0.89-8.51,5.08-8.65,10.05c-0.15,4.98,3.21,9.37,8.05,10.54l5.65,13.95c-3.1,3.04-4.02,7.68-2.31,11.67
					c1.71,3.99,5.7,6.53,10.04,6.39c4.34-0.14,8.15-2.94,9.6-7.04h18.9c1.58,4.85,6.5,7.79,11.52,6.88l11.69,17.78
					c-3,3.32-3.57,8.18-1.42,12.11c2.15,3.93,6.54,6.07,10.96,5.34s7.89-4.17,8.66-8.58l8.73-6.97c1.66,1.05,3.58,1.61,5.54,1.61
					C240.55,194.62,245.11,190.47,245.61,185.04z M245.66,148.85c1.76,0,3.25,1.29,3.49,3.04c0.24,1.74-0.84,3.4-2.54,3.87
					c-1.7,0.47-3.48-0.38-4.18-1.99c-0.01-0.03-0.01-0.07-0.02-0.1l-0.02-0.03c-0.16-0.4-0.25-0.83-0.26-1.27
					C242.14,150.42,243.71,148.85,245.66,148.85z M231.65,123.48c0.34-1.63,1.78-2.81,3.45-2.81c1.94,0,3.52,1.58,3.52,3.52
					c0,1.94-1.58,3.52-3.52,3.52c-0.44-0.01-0.87-0.09-1.27-0.26l-0.03-0.02c-0.03-0.01-0.06-0.01-0.1-0.02
					C232.17,126.77,231.31,125.12,231.65,123.48z M228.14,132.09L228.14,132.09l-6.51,16.27l-11.41-9.12
					c1.55-1.32,2.68-3.06,3.26-5.01l13.95-2.79C227.66,131.67,227.9,131.88,228.14,132.09z M224.4,160.36
					c-0.47,1.69-2.13,2.78-3.87,2.54c-1.74-0.24-3.04-1.73-3.04-3.49c0-1.94,1.58-3.52,3.52-3.52c0.44,0.01,0.87,0.09,1.27,0.26
					l0.03,0.02c0.03,0.01,0.07,0.01,0.1,0.02C224.02,156.88,224.87,158.67,224.4,160.36z M213.97,103.08c1.94,0,3.52,1.58,3.52,3.52
					c0,1.94-1.58,3.52-3.52,3.52s-3.52-1.58-3.52-3.52C210.45,104.65,212.03,103.08,213.97,103.08z M195.44,103.83l8.04,2.01
					c-0.02,0.25-0.08,0.5-0.08,0.75c0.01,5.83,4.73,10.56,10.56,10.56c1.89-0.01,3.74-0.53,5.35-1.51l5.9,4.9
					c-0.45,1.17-0.68,2.4-0.69,3.65c0,0.21,0.05,0.41,0.06,0.62l-11.47,2.29c-1.44-3.35-4.5-5.72-8.1-6.27l-12.89-12.89
					C193.57,106.88,194.71,105.46,195.44,103.83z M206.93,131.24c0,1.94-1.58,3.52-3.52,3.52c-1.94,0-3.52-1.58-3.52-3.52
					c0-1.94,1.58-3.52,3.52-3.52S206.93,129.3,206.93,131.24z M185.8,96.03c1.94,0,3.52,1.58,3.52,3.52c0,1.94-1.58,3.52-3.52,3.52
					c-1.94,0-3.52-1.58-3.52-3.52C182.28,97.61,183.86,96.04,185.8,96.03z M186.5,112.27l10.57,10.57
					c-1.64,1.24-2.89,2.94-3.58,4.88h-8.34c-0.83-2.33-2.46-4.3-4.59-5.55L186.5,112.27z M164.62,105.97l11.47-2.29
					c0.9,2.08,2.44,3.81,4.4,4.94l-6.39,10.65l-11.05-7.09c1.06-1.67,1.63-3.61,1.64-5.59
					C164.68,106.38,164.63,106.18,164.62,105.97z M178.76,131.24c0,1.94-1.58,3.52-3.52,3.52c-1.94,0-3.52-1.58-3.52-3.52
					c0-1.94,1.58-3.52,3.52-3.52C177.19,127.72,178.76,129.3,178.76,131.24z M154.12,103.08c1.94,0,3.52,1.58,3.52,3.52
					c0,1.94-1.58,3.52-3.52,3.52s-3.52-1.58-3.52-3.52C150.6,104.65,152.17,103.08,154.12,103.08z M150.28,116.41
					c2.15,0.88,4.53,0.99,6.75,0.29l10.87,6.97c-1.16,1.13-2.04,2.52-2.57,4.05h-15.38c-0.77-2.18-2.23-4.05-4.16-5.32
					L150.28,116.41z M140.03,134.76c-1.94,0-3.52-1.58-3.52-3.52c0-1.94,1.58-3.52,3.52-3.52c1.94,0,3.52,1.58,3.52,3.52
					S141.98,134.76,140.03,134.76z M150.6,166.45c-1.94,0-3.52-1.58-3.52-3.52c0-1.94,1.58-3.52,3.52-3.52
					c1.94,0,3.52,1.58,3.52,3.52C154.11,164.87,152.54,166.45,150.6,166.45z M152.6,152.57c-0.66-0.13-1.33-0.2-2-0.2
					c-0.35,0-0.68,0.07-1.02,0.1l-4.8-11.84c2.41-1.22,4.26-3.32,5.17-5.86h15.38c0.63,1.77,1.73,3.34,3.18,4.55L152.6,152.57z
					 M179.41,159.41h-18.9c-0.38-1.05-0.92-2.04-1.61-2.93l17.29-14.41l5.89,13.21C180.88,156.43,179.96,157.84,179.41,159.41z
					 M185.15,134.76h8.34c0.83,2.33,2.46,4.3,4.59,5.55l-7.32,12.2c-0.48-0.08-0.96-0.13-1.44-0.15c-0.27,0-0.53,0.06-0.8,0.08
					l-6.04-13.56C183.69,137.74,184.6,136.33,185.15,134.76z M189.32,166.45c-1.94,0-3.52-1.58-3.52-3.52
					c0-1.94,1.58-3.52,3.52-3.52c1.94,0,3.52,1.58,3.52,3.52C192.84,164.87,191.27,166.45,189.32,166.45z M204.35,143.55l9.83,7.87
					c-1.55,1.32-2.68,3.06-3.26,5.01l-11.89,2.38c-0.49-1.13-1.17-2.16-2.01-3.05L204.35,143.55z M210.45,201.66
					c-1.94,0-3.52-1.58-3.52-3.52s1.58-3.52,3.52-3.52s3.52,1.58,3.52,3.52C213.97,200.08,212.39,201.66,210.45,201.66z
					 M224.53,184.05c0.01,1.18,0.22,2.34,0.63,3.45l-5.94,4.75c-2.22-3.47-6.32-5.26-10.38-4.51l-11.69-17.78
					c1.04-1.16,1.81-2.55,2.26-4.05l11.89-2.38c2.27,5.35,8.43,7.86,13.79,5.62l4.34,6.02C226.38,177.1,224.54,180.45,224.53,184.05
					z M227.96,151.52l6.72-16.8c0.14,0.01,0.27,0.04,0.42,0.04c0.42-0.02,0.85-0.06,1.27-0.13l4.26,8.5
					c-3.39,1.83-5.52,5.37-5.53,9.23c0,0.14,0.04,0.28,0.04,0.42l-4.73,1.89C229.8,153.48,228.97,152.4,227.96,151.52z
					 M235.09,187.57c-1.94,0-3.52-1.58-3.52-3.52c0-1.94,1.58-3.52,3.52-3.52c1.94,0,3.52,1.58,3.52,3.52
					S237.04,187.57,235.09,187.57z"/>
			</g>
		</g>
	</g>
</g>
</svg>
