<?xml version="1.0" encoding="utf-8"?>
<!-- Generator: Adobe Illustrator 23.0.6, SVG Export Plug-In . SVG Version: 6.00 Build 0)  -->
<svg version="1.1" id="Layer_1" xmlns="http://www.w3.org/2000/svg" xmlns:xlink="http://www.w3.org/1999/xlink" x="0px" y="0px"
	 viewBox="0 0 1640.87 989.36" style="enable-background:new 0 0 1640.87 989.36;" xml:space="preserve">
<style type="text/css">
	.st0{fill:none;}
	.st1{fill:#666666;}
	.st2{fill:#E6E6E6;}
	.st3{fill-rule:evenodd;clip-rule:evenodd;fill:#FFFFFF;stroke:#FFD018;stroke-width:1.9735;stroke-miterlimit:10;}
	.st4{fill-rule:evenodd;clip-rule:evenodd;fill:#FFD018;}
	.st5{fill:#FFD018;}
	.st6{opacity:0.92;fill:#FFD018;}
	.st7{opacity:0.95;fill:#FFD018;}
	.st8{clip-path:url(#SVGID_4_);fill:none;stroke:#FFD018;stroke-miterlimit:10;stroke-dasharray:17.6543;}
	.st9{fill:none;stroke:#FFFFFF;stroke-width:2;stroke-miterlimit:10;}
	.st10{fill:#FFFFFF;}
	.st11{fill:none;stroke:#000000;stroke-width:2;stroke-miterlimit:10;}
	.st12{clip-path:url(#SVGID_8_);fill:none;stroke:#FFD018;stroke-miterlimit:10;stroke-dasharray:17.6543;}
	.st13{clip-path:url(#SVGID_14_);fill:none;stroke:#FFD018;stroke-miterlimit:10;stroke-dasharray:17.6543;}
	.st14{fill:none;stroke:#666666;stroke-width:3;stroke-miterlimit:10;}
	.st15{fill:none;stroke:#FFD018;stroke-width:3;stroke-miterlimit:10;}
	.st16{fill:#4C90F5;}
	.st17{clip-path:url(#SVGID_18_);fill:none;stroke:#FFD018;stroke-miterlimit:10;stroke-dasharray:17.6543;}
	.st18{fill:#D6A509;}
	.st19{fill:#DDBA9E;}
	.st20{fill:#EFD4B7;}
	.st21{fill:#F8F1E6;}
	.st22{fill:#494241;}
	.st23{fill:#55382F;}
	.st24{fill:#E2415D;}
	.st25{fill:#F4959C;}
	.st26{fill:#D2AE94;}
	.st27{fill:#7E3F20;}
	.st28{fill:#383838;}
	.st29{fill:#E4BA97;}
	.st30{fill:#444444;}
	.st31{fill-rule:evenodd;clip-rule:evenodd;fill:#3C444F;}
	.st32{fill-rule:evenodd;clip-rule:evenodd;fill:#FFFFFF;}
	.st33{fill:#CF4F44;}
	.st34{fill:#18333A;}
	.st35{fill:#FEEE99;}
	.st36{fill:#043843;}
	.st37{fill:#F2B74F;}
	.st38{fill:#FECE68;}
	.st39{fill:none;stroke:#666666;stroke-width:1.1512;stroke-miterlimit:10;}
	.st40{fill:none;stroke:#000000;stroke-width:1.0679;stroke-miterlimit:10;}
	.st41{fill:none;stroke:#000000;stroke-width:1.0679;stroke-miterlimit:10;stroke-dasharray:18.6438,18.6438;}
	.st42{fill:none;stroke:#000000;stroke-width:1.0679;stroke-miterlimit:10;stroke-dasharray:19.1692,19.1692;}
	.st43{fill:#FFFFFF;stroke:#9E9E9E;stroke-width:1.0622;stroke-miterlimit:10;}
	.st44{fill:none;stroke:#FFD018;stroke-width:1.9735;stroke-miterlimit:10;}
	.st45{clip-path:url(#SVGID_24_);fill:none;stroke:#FFD018;stroke-miterlimit:10;stroke-dasharray:17.6543;}
	.st46{clip-path:url(#SVGID_28_);fill:none;stroke:#FFD018;stroke-miterlimit:10;stroke-dasharray:17.6543;}
	.st47{clip-path:url(#SVGID_34_);fill:none;stroke:#FFD018;stroke-miterlimit:10;stroke-dasharray:17.6543;}
	.st48{clip-path:url(#SVGID_38_);fill:none;stroke:#FFD018;stroke-miterlimit:10;stroke-dasharray:17.6543;}
	.st49{fill:none;stroke:#FFD018;stroke-width:1.086;stroke-miterlimit:10;}
	.st50{fill:#FEFEFE;}
</style>
<g>
	<g>
		<rect x="897.92" y="36.34" class="st2" width="446" height="146.71"/>
	</g>
	<g>
		<g>
			<line class="st10" x1="1150.63" y1="513.55" x2="471.56" y2="513.55"/>
		</g>
		<g>
			<g>
				<rect x="480.58" y="512.57" class="st5" width="661.02" height="1.97"/>
			</g>
			<g>
				<g>
					<path class="st5" d="M1141.13,504.06c5.24,0,9.5,4.25,9.5,9.5c0,5.24-4.25,9.5-9.5,9.5s-9.5-4.25-9.5-9.5
						C1131.63,508.31,1135.88,504.06,1141.13,504.06z"/>
				</g>
			</g>
			<g>
				<g>
					<path class="st5" d="M481.05,504.06c-5.24,0-9.5,4.25-9.5,9.5c0,5.24,4.25,9.5,9.5,9.5s9.5-4.25,9.5-9.5
						C490.55,508.31,486.3,504.06,481.05,504.06z"/>
				</g>
			</g>
		</g>
	</g>
	<g>
		<g>
			<line class="st10" x1="980.86" y1="807.6" x2="641.32" y2="219.51"/>
		</g>
		<g>
			<g>
				
					<rect x="810.1" y="183.04" transform="matrix(0.866 -0.5 0.5 0.866 -148.1113 474.3481)" class="st5" width="1.97" height="661.02"/>
			</g>
			<g>
				<g>
					<path class="st5" d="M984.33,794.63c2.62,4.54,1.07,10.35-3.48,12.97c-4.54,2.62-10.35,1.07-12.97-3.48
						c-2.62-4.54-1.07-10.35,3.48-12.97C975.9,788.53,981.71,790.08,984.33,794.63z"/>
				</g>
			</g>
			<g>
				<g>
					<path class="st5" d="M654.3,222.99c-2.62-4.54-8.43-6.1-12.97-3.48c-4.54,2.62-6.1,8.43-3.48,12.97
						c2.62,4.54,8.43,6.1,12.97,3.48C655.36,233.34,656.92,227.53,654.3,222.99z"/>
				</g>
			</g>
		</g>
	</g>
	<g>
		<g>
			<line class="st10" x1="641.32" y1="807.6" x2="980.86" y2="219.51"/>
		</g>
		<g>
			<g>
				
					<rect x="480.58" y="512.57" transform="matrix(0.4999 -0.8661 0.8661 0.4999 -39.1357 959.3351)" class="st5" width="661.02" height="1.97"/>
			</g>
			<g>
				<g>
					<path class="st5" d="M654.3,804.12c-2.62,4.54-8.43,6.1-12.97,3.48c-4.54-2.62-6.1-8.43-3.48-12.97
						c2.62-4.54,8.43-6.1,12.97-3.48C655.36,793.77,656.92,799.58,654.3,804.12z"/>
				</g>
			</g>
			<g>
				<g>
					<path class="st5" d="M984.33,232.48c2.62-4.54,1.07-10.35-3.48-12.97c-4.54-2.62-10.35-1.07-12.97,3.48
						c-2.62,4.54-1.07,10.35,3.48,12.97C975.9,238.58,981.71,237.02,984.33,232.48z"/>
				</g>
			</g>
		</g>
	</g>
	<g>
		<g>
			<circle class="st32" cx="811.09" cy="513.55" r="197.35"/>
		</g>
		<g>
			<path class="st5" d="M811.09,711.89c-109.36,0-198.33-88.97-198.33-198.33c0-109.36,88.97-198.33,198.33-198.33
				s198.33,88.97,198.33,198.33C1009.42,622.92,920.45,711.89,811.09,711.89z M811.09,317.19c-108.27,0-196.36,88.09-196.36,196.36
				s88.09,196.36,196.36,196.36s196.36-88.09,196.36-196.36S919.36,317.19,811.09,317.19z"/>
		</g>
	</g>
	<g>
		<rect x="270.36" y="35.8" class="st2" width="446" height="146.71"/>
	</g>
	<g>
		<rect y="436.49" class="st2" width="446" height="146.71"/>
	</g>
	<g>
		<rect x="1178.86" y="436.49" class="st2" width="446" height="146.71"/>
	</g>
	<g>
		<rect x="269.38" y="842.65" class="st2" width="446" height="146.71"/>
	</g>
	<g>
		<rect x="896.94" y="842.65" class="st2" width="446" height="146.71"/>
	</g>
	<g>
		<circle class="st4" cx="811.09" cy="513.55" r="171.36"/>
	</g>
	<g>
		<path class="st5" d="M638.55,417.9c4.58-3.84,11.1-8.14,16.5-10.03l-9.84-1.69l-6.48-7.59C639.86,404.2,639.51,412,638.55,417.9z"
			/>
	</g>
	<g>
		<path class="st5" d="M638.78,610.8c-0.67-5.94-0.63-13.75,0.79-19.29l-6.85,7.26l-9.91,1.19
			C628.1,602.12,634.4,606.73,638.78,610.8z"/>
	</g>
	<g>
		<path class="st5" d="M820.68,711.14c-5.53-2.28-12.35-6.08-16.52-9.99l3.05,9.5l-3.73,9.25
			C807.92,716.31,815,713.01,820.68,711.14z"/>
	</g>
	<g>
		<path class="st5" d="M993.54,591.5c-4.58,3.85-11.1,8.14-16.49,10.03l9.84,1.68l6.48,7.59
			C992.23,605.19,992.58,597.4,993.54,591.5z"/>
	</g>
	<g>
		<path class="st5" d="M972.62,399.11c1.4,5.81,2.34,13.56,1.63,19.23l5.89-8.06l9.68-2.42C984.3,406.39,977.47,402.6,972.62,399.11
			z"/>
	</g>
	<g>
		<path class="st5" d="M803.48,316.21c5.53,2.28,12.35,6.08,16.52,9.99l-3.05-9.5l3.73-9.25
			C816.23,311.04,809.16,314.34,803.48,316.21z"/>
	</g>
	<g>
		<path d="M1320.46,14.84l18.84-15h10.19V58.3h-12.4V24.47l0.12-5.52l0.2-6.12c-2.05,2.05-3.48,3.4-4.28,4.04l-6.72,5.4
			L1320.46,14.84z"/>
	</g>
	<g>
		<path d="M689.2,7.36c2.93-2.48,5.32-4.21,7.16-5.2C700.28,0.05,704.85-1,710.08-1c0.11,0,0.2,0,0.28,0c5.3,0,9.65,1.47,13.05,4.4
			c3.4,2.93,5.11,6.68,5.11,11.25c0,0.05,0,0.12,0,0.2c0,2.7-0.47,5.22-1.4,7.55c-0.93,2.34-2.37,4.73-4.3,7.17
			c-1.93,2.44-5.47,6.03-10.62,10.76l-7.52,7.09v0.56h25.55V58.3h-40.95v-8.53L704,34.91c4.36-4.43,7.21-7.52,8.54-9.25
			c1.34-1.74,2.3-3.33,2.89-4.79c0.59-1.46,0.88-2.98,0.88-4.59c0-2.3-0.63-4.03-1.9-5.21c-1.27-1.18-3.01-1.76-5.22-1.76
			c-4.03,0-8.45,2-13.28,6.01L689.2,7.36z"/>
	</g>
	<g>
		<path d="M415.88,465.38v-10.54c5.12,2.58,10.3,3.87,15.56,3.87c4.1,0,7.12-0.7,9.06-2.09c1.93-1.4,2.9-3.53,2.9-6.4
			c0-2.87-1.1-4.89-3.31-6.04c-2.21-1.16-5.79-1.74-10.73-1.74h-4.43v-9.84h4.51c4.6,0,7.93-0.57,9.97-1.72
			c2.05-1.14,3.07-3.08,3.07-5.8c0-4.53-2.77-6.8-8.32-6.8c-3.95,0-8.1,1.48-12.48,4.44l-5.72-8.61c5.33-3.78,11.69-5.67,19.07-5.67
			c6.06,0,10.84,1.22,14.36,3.66c3.52,2.44,5.28,5.85,5.28,10.25c0,3.66-1.11,6.76-3.32,9.33c-2.21,2.56-5.32,4.32-9.32,5.28v0.24
			c4.72,0.59,8.19,2.02,10.42,4.29c2.23,2.28,3.34,5.34,3.34,9.2c0,5.6-1.95,10.01-5.85,13.21c-3.93,3.1-9.65,4.64-17.18,4.64
			C426.38,468.54,420.76,467.49,415.88,465.38z"/>
	</g>
	<g>
		<path d="M687.6,860.05v-8.81l25.52-37.78h11.51v36.75h6.92v9.84h-6.92v11.88h-12.2v-11.88H687.6z M698.36,850.21h14.08v-9.92
			c0-1.31,0.06-3.58,0.18-6.84c0.12-3.25,0.24-5.2,0.34-5.84h-0.32c-1.09,2.4-2.28,4.53-3.56,6.4L698.36,850.21z"/>
	</g>
	<g>
		<path d="M1319.58,869.53v-10.74c2.19,1.14,4.68,2.05,7.48,2.74s5.42,1.03,7.88,1.03c7.54,0,11.32-3.07,11.32-9.22
			c0-5.85-3.91-8.78-11.72-8.78c-1.31,0-2.85,0.15-4.64,0.44c-1.79,0.29-3.19,0.58-4.2,0.87l-4.92-2.61l2.2-29.81h31.65v10.32
			h-20.83l-1.08,11.78l1.4-0.28c1.71-0.37,3.72-0.55,6.04-0.55c5.65,0,10.15,1.57,13.49,4.7c3.34,3.13,5.01,7.43,5.01,12.88
			c0,6.55-2.01,11.59-6.04,15.11c-4.03,3.53-9.77,5.29-17.23,5.29C1328.87,872.73,1323.6,871.66,1319.58,869.53z"/>
	</g>
	<g>
		<path d="M1599.4,443.24c0-0.11,0-0.21,0-0.32c0-11.55,2.44-20.15,7.31-25.82s12.19-8.5,21.96-8.5c3.43,0,6.09,0.2,8,0.61v9.99
			c-2.48-0.51-4.87-0.76-7.18-0.76c-8.32,0-13.8,2.5-16.44,7.49c-1.34,2.55-2.12,6.06-2.36,10.52h0.52c2.64-4.7,6.88-7.06,12.7-7.06
			c5.3,0,9.44,1.7,12.42,5.1c3.03,3.37,4.55,8.08,4.55,14.13c0,6.05-1.8,10.88-5.39,14.5c-3.51,3.61-8.44,5.42-14.79,5.42
			c-0.08,0-0.16,0-0.24,0c-6.41,0-11.52-2.25-15.33-6.76S1599.4,451.1,1599.4,443.24z M1611.6,447.37c0,3.15,0.83,5.84,2.49,8.05
			c1.68,2.19,3.83,3.29,6.43,3.29c2.61,0,4.62-0.89,6.03-2.66s2.13-4.21,2.13-7.31c0-3.1-0.68-5.46-2.03-7.07s-3.31-2.42-5.87-2.42
			c-2.57,0-4.74,0.82-6.53,2.44C1612.48,443.33,1611.6,445.23,1611.6,447.37z"/>
	</g>
</g>
</svg>
