<?xml version="1.0" encoding="utf-8"?>
<!-- Generator: Adobe Illustrator 23.0.6, SVG Export Plug-In . SVG Version: 6.00 Build 0)  -->
<svg version="1.1" id="Layer_1" xmlns="http://www.w3.org/2000/svg" xmlns:xlink="http://www.w3.org/1999/xlink" x="0px" y="0px"
	 viewBox="0 0 858.2 858.23" style="enable-background:new 0 0 858.2 858.23;" xml:space="preserve">
<style type="text/css">
	.st0{fill:none;}
	.st1{fill:#666666;}
	.st2{fill:#E6E6E6;}
	.st3{fill-rule:evenodd;clip-rule:evenodd;fill:#FFFFFF;stroke:#FFD018;stroke-width:1.9735;stroke-miterlimit:10;}
	.st4{fill-rule:evenodd;clip-rule:evenodd;fill:#FFD018;}
	.st5{fill:#FFD018;}
	.st6{opacity:0.92;fill:#FFD018;}
	.st7{opacity:0.95;fill:#FFD018;}
	.st8{clip-path:url(#SVGID_4_);fill:none;stroke:#FFD018;stroke-miterlimit:10;stroke-dasharray:17.6543;}
	.st9{fill:none;stroke:#FFFFFF;stroke-width:2;stroke-miterlimit:10;}
	.st10{fill:#FFFFFF;}
	.st11{fill:none;stroke:#000000;stroke-width:2;stroke-miterlimit:10;}
	.st12{clip-path:url(#SVGID_8_);fill:none;stroke:#FFD018;stroke-miterlimit:10;stroke-dasharray:17.6543;}
	.st13{clip-path:url(#SVGID_14_);fill:none;stroke:#FFD018;stroke-miterlimit:10;stroke-dasharray:17.6543;}
	.st14{fill:none;stroke:#666666;stroke-width:3;stroke-miterlimit:10;}
	.st15{fill:none;stroke:#FFD018;stroke-width:3;stroke-miterlimit:10;}
	.st16{fill:#4C90F5;}
	.st17{clip-path:url(#SVGID_18_);fill:none;stroke:#FFD018;stroke-miterlimit:10;stroke-dasharray:17.6543;}
	.st18{fill:#D6A509;}
	.st19{fill:#DDBA9E;}
	.st20{fill:#EFD4B7;}
	.st21{fill:#F8F1E6;}
	.st22{fill:#494241;}
	.st23{fill:#55382F;}
	.st24{fill:#E2415D;}
	.st25{fill:#F4959C;}
	.st26{fill:#D2AE94;}
	.st27{fill:#7E3F20;}
	.st28{fill:#383838;}
	.st29{fill:#E4BA97;}
	.st30{fill:#444444;}
	.st31{fill-rule:evenodd;clip-rule:evenodd;fill:#3C444F;}
	.st32{fill-rule:evenodd;clip-rule:evenodd;fill:#FFFFFF;}
	.st33{fill:#CF4F44;}
	.st34{fill:#18333A;}
	.st35{fill:#FEEE99;}
	.st36{fill:#043843;}
	.st37{fill:#F2B74F;}
	.st38{fill:#FECE68;}
	.st39{fill:none;stroke:#666666;stroke-width:1.1512;stroke-miterlimit:10;}
	.st40{fill:none;stroke:#000000;stroke-width:1.0679;stroke-miterlimit:10;}
	.st41{fill:none;stroke:#000000;stroke-width:1.0679;stroke-miterlimit:10;stroke-dasharray:18.6438,18.6438;}
	.st42{fill:none;stroke:#000000;stroke-width:1.0679;stroke-miterlimit:10;stroke-dasharray:19.1692,19.1692;}
	.st43{fill:#FFFFFF;stroke:#9E9E9E;stroke-width:1.0622;stroke-miterlimit:10;}
	.st44{clip-path:url(#SVGID_26_);fill:none;stroke:#FFD018;stroke-miterlimit:10;stroke-dasharray:17.6543;}
	.st45{clip-path:url(#SVGID_30_);fill:none;stroke:#FFD018;stroke-miterlimit:10;stroke-dasharray:17.6543;}
	.st46{clip-path:url(#SVGID_36_);fill:none;stroke:#FFD018;stroke-miterlimit:10;stroke-dasharray:17.6543;}
	.st47{clip-path:url(#SVGID_40_);fill:none;stroke:#FFD018;stroke-miterlimit:10;stroke-dasharray:17.6543;}
	.st48{fill:none;stroke:#FFD018;stroke-width:1.086;stroke-miterlimit:10;}
	.st49{fill:none;stroke:#FFD018;stroke-width:1.9735;stroke-miterlimit:10;}
	.st50{fill:#FEFEFE;}
	.st51{fill:none;stroke:#666666;stroke-width:14.6984;stroke-miterlimit:10;}
</style>
<g>
</g>
<g>
	<path class="st5" d="M322.88,583.64c-19.55-13.43-36.88-30.78-50.67-51.86c-56.11-85.74-32.89-200.39,51.55-257.74l-11.4-137.89
		L191.59,71.81C-4.58,202.18-59.1,466.63,70.08,664.05c37.2,56.84,85.59,101.93,140.37,134.31l-4.55-133.64L322.88,583.64z"/>
	<path class="st2" d="M346.58,260.77c83.77-41.2,187.03-14.45,239.45,65.65c18.88,28.86,28.74,61,30.35,93.12l123.18,58.16
		l117.98-73.57c-4.16-72.47-26.78-144.87-69.38-209.98C662.89,2.74,410.72-55.64,215.01,57.28l120.03,63.96L346.58,260.77z"/>
	<path class="st1" d="M615.86,445.67c-4.93,55.18-34.11,107.66-84.06,140.35c-57.75,37.79-128.62,39.57-186.27,10.93L230.17,676.9
		l4.58,134.81c132.45,67.13,296.14,63.57,429.31-23.57c124.9-81.73,193.14-217.48,194.14-356.33l-117.07,73.01L615.86,445.67z"/>
</g>
</svg>
