<?xml version="1.0" encoding="utf-8"?>
<!-- Generator: Adobe Illustrator 23.0.6, SVG Export Plug-In . SVG Version: 6.00 Build 0)  -->
<svg version="1.1" id="Layer_1" xmlns="http://www.w3.org/2000/svg" xmlns:xlink="http://www.w3.org/1999/xlink" x="0px" y="0px"
	 viewBox="0 0 359 359" style="enable-background:new 0 0 359 359;" xml:space="preserve">
<style type="text/css">
	.st0{fill:#E6E6E6;}
	.st1{opacity:0.92;fill:#FFD018;}
	.st2{opacity:0.95;fill:#FFD018;}
	.st3{clip-path:url(#SVGID_4_);fill:none;stroke:#FFD018;stroke-miterlimit:10;stroke-dasharray:17.6543;}
	.st4{fill:none;stroke:#FFFFFF;stroke-width:2;stroke-miterlimit:10;}
	.st5{fill:#FFFFFF;}
	.st6{fill:none;stroke:#000000;stroke-width:2;stroke-miterlimit:10;}
	.st7{clip-path:url(#SVGID_8_);fill:none;stroke:#FFD018;stroke-miterlimit:10;stroke-dasharray:17.6543;}
	.st8{fill:#666666;}
	.st9{clip-path:url(#SVGID_14_);fill:none;stroke:#FFD018;stroke-miterlimit:10;stroke-dasharray:17.6543;}
	.st10{fill:#FFD018;}
	.st11{fill:none;stroke:#666666;stroke-width:3;stroke-miterlimit:10;}
	.st12{fill:none;stroke:#FFD018;stroke-width:3;stroke-miterlimit:10;}
	.st13{fill:#4C90F5;}
	.st14{clip-path:url(#SVGID_18_);fill:none;stroke:#FFD018;stroke-miterlimit:10;stroke-dasharray:17.6543;}
	.st15{fill:#D6A509;}
	.st16{fill:#DDBA9E;}
	.st17{fill:#EFD4B7;}
	.st18{fill:#F8F1E6;}
	.st19{fill:#494241;}
	.st20{fill:#55382F;}
	.st21{fill:#E2415D;}
	.st22{fill:#F4959C;}
	.st23{fill:#D2AE94;}
	.st24{fill:#7E3F20;}
	.st25{fill:#383838;}
	.st26{fill:#E4BA97;}
	.st27{fill:#444444;}
	.st28{fill-rule:evenodd;clip-rule:evenodd;fill:#3C444F;}
	.st29{fill-rule:evenodd;clip-rule:evenodd;fill:#FFFFFF;}
	.st30{fill:#CF4F44;}
	.st31{fill:#18333A;}
	.st32{fill:#FEEE99;}
	.st33{fill:#043843;}
	.st34{fill:#F2B74F;}
	.st35{fill:#FECE68;}
	.st36{fill:none;stroke:#666666;stroke-width:1.1512;stroke-miterlimit:10;}
	.st37{fill:none;stroke:#000000;stroke-width:1.0679;stroke-miterlimit:10;}
	.st38{fill:none;stroke:#000000;stroke-width:1.0679;stroke-miterlimit:10;stroke-dasharray:18.6438,18.6438;}
	.st39{fill:none;stroke:#000000;stroke-width:1.0679;stroke-miterlimit:10;stroke-dasharray:19.1692,19.1692;}
	.st40{fill:#FFFFFF;stroke:#9E9E9E;stroke-width:1.0622;stroke-miterlimit:10;}
	.st41{fill:none;stroke:#FFD018;stroke-width:1.9735;stroke-miterlimit:10;}
	.st42{fill-rule:evenodd;clip-rule:evenodd;fill:#FFFFFF;stroke:#FFD018;stroke-width:1.9735;stroke-miterlimit:10;}
	.st43{fill-rule:evenodd;clip-rule:evenodd;fill:#FFD018;}
	.st44{clip-path:url(#SVGID_24_);fill:none;stroke:#FFD018;stroke-miterlimit:10;stroke-dasharray:17.6543;}
	.st45{clip-path:url(#SVGID_28_);fill:none;stroke:#FFD018;stroke-miterlimit:10;stroke-dasharray:17.6543;}
	.st46{clip-path:url(#SVGID_34_);fill:none;stroke:#FFD018;stroke-miterlimit:10;stroke-dasharray:17.6543;}
	.st47{clip-path:url(#SVGID_38_);fill:none;stroke:#FFD018;stroke-miterlimit:10;stroke-dasharray:17.6543;}
	.st48{fill:none;stroke:#FFD018;stroke-width:1.086;stroke-miterlimit:10;}
</style>
<g>
	<circle class="st10" cx="179.5" cy="179.5" r="179.5"/>
	<g>
		<path d="M264.67,277.48c-29.47,3.27-52.85-9.78-53.08-9.92c-0.79-0.45-1.73-0.57-2.62-0.33c-0.37,0.1-37.45,10.04-67.31,3.41
			c-18.62-4.14-36.18-17.25-49-26.83c-1.72-1.29-3.35-2.5-4.89-3.63c-2.09-1.53-5.42-2.8-8.35-3.93c-1.32-0.5-3.12-1.19-3.51-1.44
			c-0.34-0.26-0.52-0.65-0.52-1.09v-7.99c0.17-6.32,26.68-103.64,30.8-116.02c0.1-0.15,0.5-0.43,0.79-0.57l52.48-23.97l16.97,22.09
			c0.84,1.15,0.76,2.74-0.18,3.8l-16.76,18.79c-1.1,1.23-2.94,1.37-4.09,0.41l-6.78-6.25c-0.79-0.73-1.92-0.97-2.98-0.78
			c-1.06,0.19-2.01,0.95-2.5,1.91c-0.57,1.11-5.7,2.48-10.94,2.52l-1.71-0.17c-1.36-0.16-2.69,0.55-3.36,1.76
			c-0.67,1.2-0.56,2.69,0.29,3.78c1.46,1.88,2.59,3.39,3.23,4.26l3.36,57.04c-2.08,8.1-3.99,10.4-4.46,10.86
			c-1.4,0.44-2.41,1.75-2.41,3.29c0,1.9,1.54,3.45,3.45,3.45c3.91,0,7.24-5.14,9.9-15.17c27.43-20.52,51.36-1.15,53.24,0.44
			c8.71,8.74,9.25,14.55,9.27,14.81c0.04,1.87,1.57,3.37,3.45,3.37c1.9,0,3.45-1.54,3.45-3.45c0-0.79-0.29-7.6-9.21-17.43
			c8.42-10.35,18-16.31,28.55-17.61c18.19-2.24,33.5,10,33.65,10.12c1.48,1.2,3.65,0.98,4.85-0.49c1.2-1.47,0.98-3.64-0.49-4.85
			c-0.71-0.58-17.64-14.2-38.78-11.63c-12.36,1.5-23.45,8.18-33.01,19.88c-7.76-5.28-30.01-17.22-54.89-1.6l-3.09-52.45
			c-0.03-0.57-0.2-1.12-0.5-1.6c3.09-0.37,6.76-1.17,9.43-2.92l4.44,4.09c4.13,3.47,10.19,3.04,13.79-0.99l16.77-18.79
			c3.09-3.46,3.35-8.7,0.56-12.52l-18.69-24.33c-0.97-1.27-2.7-1.7-4.17-1.04l-54.93,25.09c-0.57,0.25-3.49,1.66-4.45,4.54
			c-1.95,5.86-31.21,110.2-31.21,118.33v8.01c0,2.57,1.15,4.94,3.16,6.52c1.01,0.79,2.51,1.38,5.3,2.45
			c2.28,0.87,5.4,2.07,6.74,3.05c1.52,1.11,3.13,2.31,4.83,3.58c13.32,9.95,31.57,23.57,51.63,28.03
			c28.56,6.35,62.09-1.33,69.27-3.14c4.8,2.48,22.41,10.67,45.46,10.67c3.4,0,6.92-0.18,10.54-0.58c1.89-0.21,3.26-1.91,3.05-3.81
			C268.27,278.63,266.56,277.26,264.67,277.48z"/>
		<path d="M247.79,235.7c-0.19-1.73-1.65-3.07-3.43-3.07c-1.9,0-3.45,1.54-3.45,3.45c0,2.3,1.7,10.1,23.57,13.75
			c0.19,0.03,0.38,0.05,0.57,0.05c1.66,0,3.12-1.2,3.4-2.88c0.31-1.88-0.96-3.65-2.83-3.97
			C250.32,240.48,247.99,236.16,247.79,235.7z"/>
		<path d="M209.72,115.97h10.51v9.77c0,1.9,1.54,3.45,3.45,3.45h27.58c1.9,0,3.45-1.54,3.45-3.45v-9.77h10.35
			c1.32,0,2.53-0.75,3.1-1.94c0.58-1.19,0.42-2.6-0.4-3.64l-27.67-35.05c-1.31-1.66-4.1-1.66-5.41,0l-27.67,35.06
			c-0.82,1.04-0.97,2.45-0.4,3.64C207.19,115.21,208.39,115.97,209.72,115.97z M237.38,83.03l20.55,26.04h-6.68
			c-1.9,0-3.45,1.54-3.45,3.45v9.77h-20.69v-9.77c0-1.9-1.54-3.45-3.45-3.45h-6.84L237.38,83.03z"/>
		<path d="M254.71,136.08c0-1.9-1.54-3.45-3.45-3.45h-27.59c-1.9,0-3.45,1.54-3.45,3.45v10.35c0,1.9,1.54,3.45,3.45,3.45h27.59
			c1.9,0,3.45-1.54,3.45-3.45V136.08z M247.81,142.98h-20.69v-3.45h20.69V142.98z"/>
		<path d="M251.26,153.32h-27.58c-1.9,0-3.45,1.54-3.45,3.45s1.54,3.45,3.45,3.45h27.58c1.9,0,3.45-1.54,3.45-3.45
			S253.16,153.32,251.26,153.32z"/>
		<path d="M181.57,253.4c-45.17,9.67-64.49-21.23-65.29-22.55c-0.98-1.63-3.1-2.15-4.73-1.18c-1.63,0.98-2.16,3.1-1.18,4.73
			c0.23,0.38,5.72,9.39,17.45,17.06c8.08,5.29,20.41,10.67,37.09,10.67c5.55,0,11.59-0.6,18.11-1.99c1.86-0.4,3.05-2.23,2.65-4.1
			C185.27,254.19,183.43,253,181.57,253.4z"/>
	</g>
</g>
</svg>
