<?xml version="1.0" encoding="utf-8"?>
<!-- Generator: Adobe Illustrator 23.0.6, SVG Export Plug-In . SVG Version: 6.00 Build 0)  -->
<svg version="1.1" id="Layer_1" xmlns="http://www.w3.org/2000/svg" xmlns:xlink="http://www.w3.org/1999/xlink" x="0px" y="0px"
	 viewBox="0 0 505.34 210.65" style="enable-background:new 0 0 505.34 210.65;" xml:space="preserve">
<style type="text/css">
	.st0{fill:#231F20;}
	.st1{fill:#FFFFFF;}
</style>
<g>
	<g>
		<path class="st1" d="M0,135.41V2.1h14.41l47.23,117.26h0.55L109.42,2.1h13.95v133.31h-9.3V34.38c0-7.05,0.36-14.35,1.08-21.88
			h-0.72L64.56,135.41h-5.93L8.94,12.31H8.21c0.49,8.09,0.73,15.81,0.73,23.16v99.94H0z"/>
		<path class="st1" d="M150.83,118.88c-10.58-12.23-15.86-29.02-15.86-50.36s5.33-38.09,16-50.27C161.64,6.09,176.26,0,194.83,0
			c18.57,0,33.1,6.15,43.59,18.44c10.49,12.3,15.73,29.05,15.73,50.27s-5.29,37.94-15.87,50.18s-25.15,18.35-43.72,18.35
			C175.99,137.23,161.41,131.12,150.83,118.88z M158.04,24.55c-8.63,10.35-12.95,25.05-12.95,44.11c0,19.06,4.25,33.82,12.77,44.29
			c8.51,10.47,20.74,15.71,36.7,15.71s28.19-5.17,36.7-15.52c8.51-10.35,12.76-25.16,12.76-44.43c0-19.27-4.24-34.03-12.72-44.29
			c-8.48-10.26-20.65-15.39-36.52-15.39C178.92,9.03,166.67,14.2,158.04,24.55z"/>
		<path class="st1" d="M293.54,118.88c-10.58-12.23-15.86-29.02-15.86-50.36s5.33-38.09,16-50.27C304.34,6.09,318.96,0,337.53,0
			c18.57,0,33.1,6.15,43.59,18.44c10.49,12.3,15.73,29.05,15.73,50.27s-5.29,37.94-15.87,50.18s-25.15,18.35-43.72,18.35
			C318.69,137.23,304.11,131.12,293.54,118.88z M300.74,24.55c-8.63,10.35-12.95,25.05-12.95,44.11c0,19.06,4.25,33.82,12.77,44.29
			c8.51,10.47,20.74,15.71,36.7,15.71c15.96,0,28.19-5.17,36.7-15.52c8.51-10.35,12.76-25.16,12.76-44.43
			c0-19.27-4.24-34.03-12.72-44.29c-8.48-10.26-20.65-15.39-36.52-15.39C321.62,9.03,309.37,14.2,300.74,24.55z"/>
		<path class="st1" d="M406.95,68.3c0-0.42,0-0.88,0-1.37c0-12.81,2.57-24.33,7.7-34.56c5.14-10.23,12.49-18.15,22.07-23.77
			c9.57-5.62,20.41-8.42,32.51-8.42c0.43,0,0.82,0,1.19,0c12.89,0,24.53,2.38,34.92,7.14l-3.74,8.38
			c-9.85-4.87-20.06-7.31-30.64-7.31c-16.72,0-29.88,5.36-39.48,16.07c-9.61,10.72-14.41,25.5-14.41,44.34s4.53,33.53,13.59,44.06
			c9.06,10.53,22.01,15.8,38.84,15.8c11.06,0,21.34-1.43,30.82-4.29v8.21c-8.82,3.1-19.82,4.65-33.01,4.65
			c-18.72,0-33.47-6.07-44.23-18.21C412.33,106.88,406.95,89.97,406.95,68.3z"/>
		<circle class="st1" cx="194.56" cy="52.5" r="8.1"/>
		<circle class="st1" cx="337.26" cy="52.5" r="8.1"/>
		<g>
			<rect x="246.05" y="47.74" class="st1" width="38.86" height="9.52"/>
		</g>
	</g>
	<g>
		<path class="st1" d="M0,182.51v-23.34h2.95v20.05l-2.69,3.29H0z"/>
		<path class="st1" d="M14.9,196.24l0.52-2.67c1.06,0.25,2.23,0.38,3.52,0.38c2.64,0,4.83-1.11,6.59-3.34
			c1.75-2.23,2.63-5.19,2.63-8.9v-14.59c0-1.75-0.25-3.14-0.75-4.14c-0.58-1.2-1.77-1.79-3.58-1.79c-1.16,0-2.58,0.14-4.28,0.43
			v-2.6c1.44-0.29,2.95-0.43,4.51-0.43c2.45,0,4.23,0.77,5.36,2.3c1.13,1.53,1.69,3.61,1.69,6.23v29.32h-2.43l-0.38-6.11h-0.2
			c-0.96,1.59-1.77,2.73-2.43,3.41c-1.81,1.87-4.14,2.81-6.99,2.81C17.61,196.55,16.35,196.45,14.9,196.24z"/>
		<path class="st1" d="M47.19,196.44v-37.27h2.95v37.27H47.19z"/>
		<path class="st1" d="M62.44,196.24l0.52-2.67c1.06,0.25,2.23,0.38,3.52,0.38c2.64,0,4.83-1.11,6.59-3.34
			c1.75-2.23,2.63-5.19,2.63-8.9v-14.59c0-1.75-0.25-3.14-0.75-4.14c-0.58-1.2-1.77-1.79-3.58-1.79c-1.16,0-2.58,0.14-4.28,0.43
			v-2.6c1.44-0.29,2.95-0.43,4.51-0.43c2.45,0,4.23,0.77,5.36,2.3c1.13,1.53,1.69,3.61,1.69,6.23v29.32h-2.43l-0.38-6.11h-0.2
			c-0.96,1.59-1.77,2.73-2.43,3.41c-1.81,1.87-4.14,2.81-6.99,2.81C65.15,196.55,63.88,196.45,62.44,196.24z"/>
		<path class="st1" d="M94.73,196.44v-37.27h2.95v37.27H94.73z"/>
		<path class="st1" d="M110.15,161.51v-2.74c3.24-0.2,5.91-0.3,8.03-0.3c2.12,0,3.81,0.08,5.07,0.25c1.26,0.16,2.5,0.48,3.71,0.96
			c1.21,0.47,2.22,1.09,3.02,1.86c0.8,0.76,1.44,1.78,1.94,3.04c0.49,1.26,0.74,2.75,0.74,4.45v27.42h-2.95v-27.33
			c0-2.58-0.67-4.51-2.02-5.78c-1.12-1.06-2.88-1.71-5.29-1.96c-0.96-0.12-2.08-0.17-3.35-0.17c-2.16,0-4.69,0.08-7.6,0.23
			L110.15,161.51z"/>
		<path class="st1" d="M144.75,161.71v-2.6h26.11v2.28c-0.67,0.25-1.27,0.5-1.78,0.74c-0.51,0.24-1.06,0.58-1.65,1.03
			c-0.59,0.44-1.07,0.94-1.46,1.5c-0.87,1.31-1.3,2.97-1.3,4.97v26.81h-2.95v-26.81c0-1.14,0.14-2.19,0.42-3.15
			c0.28-0.96,0.62-1.72,1.03-2.28c0.83-1.16,1.57-1.91,2.22-2.25l0.4-0.23H144.75z"/>
		<path class="st1" d="M181.67,196.44v-2.6h13.17c0.52-2.44,0.78-4.8,0.78-7.07V167.1c0-1.77-0.39-3.2-1.17-4.28
			c-0.78-1.09-1.97-1.63-3.58-1.63c-1.61,0-3.26,0.14-4.95,0.43v-2.6c1.44-0.29,3.1-0.43,4.97-0.43c2.5,0,4.41,0.78,5.72,2.35
			c1.31,1.57,1.96,3.63,1.96,6.17v19.7c0,1.31-0.1,2.76-0.29,4.36c-0.19,1.6-0.39,2.87-0.58,3.81l-0.26,1.44H181.67z"/>
		<path class="st1" d="M212.63,196.44v-12.97c0-3.27,0.41-5.77,1.24-7.48c0.37-0.77,0.82-1.51,1.36-2.23
			c1.12-1.46,2.83-2.42,5.14-2.86l-7.11-11.73h3.15l13.87,22.91c0.64-0.12,1.2-0.31,1.7-0.58c1.41-0.77,2.4-1.81,2.98-3.11
			c0.58-1.3,0.87-3.17,0.87-5.62v-13.61h2.83v13.64c0,3.54-0.59,6.26-1.76,8.15c-0.48,0.75-1.16,1.45-2.04,2.11
			c-0.88,0.65-1.91,1.14-3.11,1.44l7.22,11.93h-3.18l-13.95-23.08c-0.87,0-1.71,0.24-2.54,0.72c-1.37,0.77-2.35,1.91-2.95,3.42
			c-0.6,1.51-0.9,3.51-0.9,5.99v12.94H212.63z"/>
		<path class="st1" d="M253.53,161.94v-2.6c5.62-0.39,9.5-0.58,11.63-0.58c2.13,0,3.82,0.08,5.08,0.24c1.26,0.16,2.49,0.48,3.7,0.95
			c1.21,0.47,2.21,1.08,3.01,1.84c0.8,0.76,1.44,1.76,1.93,3.02c0.49,1.26,0.74,2.73,0.74,4.41v27.2h-2.95v-27.33
			c0-2.58-0.67-4.51-2.02-5.78c-1.1-1.06-2.85-1.71-5.26-1.96c-0.96-0.12-2.45-0.17-4.46-0.17S259.12,161.44,253.53,161.94z
			 M253.53,196.44v-23.41h2.95v23.41H253.53z"/>
		<path class="st1" d="M312.6,162.75v-2.76c0.77-0.35,1.9-0.67,3.38-0.96c1.48-0.29,3.13-0.44,4.95-0.44s3.58,0.34,5.29,1.01
			c1.7,0.67,3.09,1.56,4.14,2.64c1.06,1.09,1.93,2.39,2.61,3.92c1.21,2.7,1.81,5.88,1.81,9.54v34.95h-2.95v-34.93
			c0-4.55-0.93-8.1-2.8-10.67c-1.87-2.57-4.75-3.86-8.64-3.86c-1.85,0-3.48,0.2-4.88,0.61c-0.48,0.14-1.05,0.32-1.72,0.55
			C313.13,162.58,312.73,162.71,312.6,162.75z"/>
		<path class="st1" d="M350.55,182.51v-23.34h2.95v20.05l-2.69,3.29H350.55z"/>
		<path class="st1" d="M365.62,161.51v-2.74c3.23-0.2,5.91-0.3,8.03-0.3c2.12,0,3.81,0.08,5.07,0.25c1.26,0.16,2.5,0.48,3.71,0.96
			c1.21,0.47,2.22,1.09,3.02,1.86c0.8,0.76,1.44,1.78,1.94,3.04c0.49,1.26,0.74,2.75,0.74,4.45v27.42h-2.95v-27.33
			c0-2.58-0.67-4.51-2.02-5.78c-1.12-1.06-2.88-1.71-5.29-1.96c-0.96-0.12-2.08-0.17-3.35-0.17c-2.16,0-4.69,0.08-7.6,0.23
			L365.62,161.51z"/>
		<path class="st1" d="M400.23,161.71v-2.6h26.11v2.28c-0.67,0.25-1.27,0.5-1.78,0.74c-0.51,0.24-1.06,0.58-1.65,1.03
			c-0.59,0.44-1.07,0.94-1.46,1.5c-0.87,1.31-1.3,2.97-1.3,4.97v26.81h-2.95v-26.81c0-1.14,0.14-2.19,0.42-3.15
			c0.28-0.96,0.62-1.72,1.03-2.28c0.83-1.16,1.57-1.91,2.22-2.25l0.4-0.23H400.23z"/>
		<path class="st1" d="M436.22,196.44l2.77-29.03c0.08-1.37-0.01-2.51-0.26-3.44c-0.08-0.31-0.14-0.55-0.17-0.72
			c-0.04-0.17-0.12-0.43-0.25-0.78c-0.13-0.35-0.21-0.58-0.25-0.69c-0.08-0.27-0.26-0.76-0.55-1.47l-0.49-1.3h3.15
			c0.71,1.66,1.19,3.01,1.42,4.07h0.38c0.25-0.38,0.74-0.87,1.46-1.46c0.72-0.59,1.46-1.07,2.21-1.46c0.75-0.38,1.75-0.74,3-1.07
			c1.25-0.33,2.57-0.49,3.96-0.49c3.46,0,6.09,1.1,7.89,3.29c1.81,2.2,2.71,5.18,2.71,8.96v25.6h-11.12v-2.6h8.18v-23.01
			c0-2.96-0.7-5.31-2.1-7.04c-1.4-1.73-3.25-2.6-5.56-2.6c-1.6,0-3.05,0.19-4.36,0.58c-1.31,0.39-2.34,0.85-3.08,1.4
			c-0.74,0.55-1.37,1.1-1.88,1.65c-0.51,0.55-0.85,1.02-1.03,1.4l-0.29,0.58l-2.8,29.64H436.22z"/>
		<path class="st1" d="M479.25,161.94v-2.6c5.62-0.39,9.5-0.58,11.63-0.58c2.13,0,3.82,0.08,5.08,0.24c1.26,0.16,2.49,0.48,3.7,0.95
			c1.21,0.47,2.21,1.08,3.01,1.84c0.8,0.76,1.44,1.76,1.93,3.02c0.49,1.26,0.74,2.73,0.74,4.41v27.2h-2.95v-27.33
			c0-2.58-0.67-4.51-2.02-5.78c-1.1-1.06-2.85-1.71-5.26-1.96c-0.96-0.12-2.45-0.17-4.46-0.17S484.84,161.44,479.25,161.94z
			 M479.25,196.44v-23.41h2.95v23.41H479.25z"/>
	</g>
</g>
</svg>
